<svg xmlns="http://www.w3.org/2000/svg" xmlns:xlink="http://www.w3.org/1999/xlink" width="435.038" height="229.97" viewBox="0 0 435.038 229.97" xml:space="preserve">
  <path d="M296.703 177.3q1.155-1.012 1.837-2.092.683-1.08.683-2.04 0-.825-.495-1.313c-.495-.488-.8-.488-1.409-.488q-.856 0-1.471.338c-.615.338-.79.503-1.14.833l-.48-.676q.526-.614 1.5-1.117a4.5 4.5 0 0 1 2.085-.503q1.05 0 1.771.383t1.064.998q.346.614.346 1.35 0 1.485-1.425 3.053t-3.57 2.813l4.649-.346.525-1.289.765.149-.39 2.37h-7.155l-.225-.63a15 15 0 0 0 2.535-1.793m7.612 1.231q-.954-1.327-.953-3.428 0-1.469.54-2.572t1.471-1.688 2.04-.585q1.95 0 2.85 1.252.9 1.254.9 3.428 0 1.456-.518 2.572-.518 1.118-1.426 1.732a3.54 3.54 0 0 1-2.032.615q-1.92.001-2.872-1.326m5.167-3.443q0-1.95-.502-3-.504-1.05-1.688-1.05-1.157 0-1.71.997-.555.997-.556 2.857 0 1.905.533 3.053.531 1.147 1.688 1.147 2.235.001 2.235-4.004" fill="#A2C617"/>
  <path fill="none" stroke="#DA671D" stroke-width=".5" stroke-miterlimit="10" d="M425.571 118.562H164.793"/>
  <defs>
    <path id="a" d="M0 0h435.038v229.97H0z"/>
  </defs>
  <clipPath id="b">
    <use xlink:href="#a" overflow="visible"/>
  </clipPath>
  <path clip-path="url(#b)" fill="#0C3958" d="m314.306 125.072-1.655-3.445c-5.348-11.137-10.024-20.093-13.959-27.174h.003l-5.667-10.273c-3.109-5.008-6.495-4.66-9.6-4.66h-.647v-3.4c4.843-2.5 8.154-7.553 8.154-13.379 0-8.313-6.737-15.051-15.05-15.051-1.927 0-3.77.362-5.463 1.022a15 15 0 0 0-3.72 2.11l-.669.401c-4.051 2.435-5.619 8.886-6.034 10.928-2.607 12.822-10.091 12.091-10.091 12.091s1.132.425 9.913 2.563c3.748.913 7.511 1.224 10.6 1.283v1.431h-4.633v.091c-4.251.446-8.188 2.575-10.807 6.005-5.845 7.663-6.896 18.667-7.063 23.49-.003.065-.021.127-.021.192v.495c-.022 1.097 0 1.737 0 1.737v19.583c0 2.623 1.97 4.925 4.587 5.109 2.873.202 5.291-2.094 5.291-4.927v-21.998c0-.205-.036-.4-.061-.599.525-11.047 4.645-14.481 4.645-14.481v88.518c0 3.679 3.01 6.688 6.688 6.688s6.688-3.009 6.688-6.688l.095-30.433 1.717.014h2.257v30.759c0 3.198 2.36 6.005 5.544 6.317 3.658.359 6.77-2.538 6.77-6.126v-30.95h14.662c2.426 0 3.941-3.182 2.729-5.727l-14.616-30.672-3.307-9.002c-.184-5.752.25-6.592.25-6.592l13.439 29.085a4.53 4.53 0 0 0 6.028 2.116l.887-.427c2.239-1.073 3.191-3.785 2.116-6.024"/>
  <defs>
    <path id="c" d="M270.422 48.713a15 15 0 0 0-3.72 2.109q-.336.2-.669.401c-4.05 2.435-5.619 8.886-6.034 10.929-2.607 12.821-10.091 12.09-10.091 12.09s1.133.425 9.913 2.563c3.748.913 7.511 1.223 10.6 1.283v1.431h-4.634v.091c-4.25.446-8.188 2.575-10.805 6.005-5.847 7.663-6.896 18.667-7.064 23.49-.003.065-.02.126-.02.192v.495c-.023 1.097 0 1.738 0 1.738v19.582c0 2.624 1.968 4.926 4.585 5.109 2.875.203 5.292-2.092 5.292-4.925v-21.999c0-.205-.036-.4-.061-.598.525-11.048 4.645-14.482 4.645-14.482v88.518c0 3.68 3.01 6.688 6.687 6.688s6.688-3.008 6.688-6.688l.095-30.432 1.717.013h2.257v30.758c0 3.198 2.36 6.006 5.544 6.319 3.657.358 6.77-2.539 6.77-6.128v-30.949h14.662c2.426 0 3.941-3.181 2.728-5.727l-14.616-30.672-3.305-9.002c-.186-5.751.249-6.592.249-6.592l13.44 29.085c1.074 2.239 3.788 3.191 6.027 2.115l.888-.425a4.53 4.53 0 0 0 2.116-6.028l-1.654-3.444c-5.349-11.137-10.025-20.093-13.959-27.174h.002l-5.667-10.273c-3.11-5.008-6.495-4.66-9.6-4.66h-.648V76.12c4.844-2.501 8.155-7.552 8.155-13.379 0-8.312-6.737-15.051-15.051-15.051-1.926 0-3.769.362-5.462 1.023"/>
  </defs>
  <clipPath id="d">
    <use xlink:href="#c" overflow="visible"/>
  </clipPath>
  <linearGradient id="e" gradientUnits="userSpaceOnUse" x1="0" y1="229.969" x2="1" y2="229.969" gradientTransform="matrix(0 -144.0643 -144.0643 0 33412 190.595)">
    <stop offset="0" style="stop-color:#cee1ac"/>
    <stop offset=".094" style="stop-color:#c6dc99"/>
    <stop offset=".302" style="stop-color:#b6d270"/>
    <stop offset=".503" style="stop-color:#a9ca4e"/>
    <stop offset=".691" style="stop-color:#9ec536"/>
    <stop offset=".862" style="stop-color:#97c226"/>
    <stop offset="1" style="stop-color:#95c11f"/>
  </linearGradient>
  <path clip-path="url(#d)" fill="url(#e)" d="M247.875 47.69h67.507v142.061h-67.507z"/>
  <path clip-path="url(#d)" fill="#0C3958" d="M240.35 47.69h73.958v113.386H240.35z"/>
  <defs>
    <path id="f" d="M0 0h435.038v229.97H0z"/>
  </defs>
  <clipPath id="g">
    <use xlink:href="#f" overflow="visible"/>
  </clipPath>
  <path clip-path="url(#g)" fill="#0C3958" d="m83.993 125.116-1.655-3.445c-5.348-11.137-10.025-20.093-13.959-27.174h.002l-5.667-10.273c-3.109-5.008-6.495-4.66-9.599-4.66h-.648v-3.399c4.843-2.5 8.155-7.553 8.155-13.379 0-8.313-6.738-15.051-15.051-15.051a15 15 0 0 0-5.462 1.022 15 15 0 0 0-3.72 2.11l-.669.401c-4.05 2.435-5.619 8.886-6.034 10.928-2.607 12.822-10.091 12.091-10.091 12.091s1.132.425 9.913 2.563c3.748.913 7.511 1.224 10.6 1.283v1.431h-4.633v.091c-4.251.446-8.188 2.575-10.806 6.005-5.845 7.663-6.896 18.667-7.064 23.49-.003.065-.02.127-.02.192v.495c-.023 1.097 0 1.737 0 1.737v19.583c0 2.624 1.969 4.925 4.586 5.109 2.874.202 5.291-2.094 5.291-4.927v-21.998c0-.205-.036-.4-.06-.599.525-11.047 4.644-14.481 4.644-14.481v88.519c0 3.678 3.009 6.687 6.688 6.687s6.687-3.009 6.687-6.687l.095-30.434 1.717.014h2.257v30.759c0 3.198 2.36 6.005 5.544 6.317 3.658.359 6.769-2.538 6.769-6.126v-30.95h14.662c2.426 0 3.942-3.182 2.729-5.727l-14.616-30.672-3.307-9.002c-.184-5.752.25-6.592.25-6.592l13.44 29.085a4.53 4.53 0 0 0 6.028 2.116l.887-.427c2.24-1.074 3.191-3.786 2.117-6.025"/>
  <defs>
    <path id="h" d="M40.109 48.756a15 15 0 0 0-3.72 2.11l-.67.401c-4.049 2.435-5.618 8.886-6.033 10.929-2.608 12.821-10.092 12.09-10.092 12.09s1.133.425 9.913 2.563c3.749.913 7.512 1.224 10.601 1.283v1.431h-4.634v.091c-4.25.446-8.188 2.575-10.805 6.005-5.845 7.663-6.896 18.667-7.064 23.491-.003.064-.021.125-.021.191v.495c-.022 1.096 0 1.737 0 1.737v19.583c0 2.624 1.969 4.926 4.587 5.11 2.874.202 5.291-2.094 5.291-4.927v-21.998c0-.205-.036-.4-.061-.598.525-11.048 4.645-14.482 4.645-14.482v88.518c0 3.68 3.009 6.688 6.687 6.688s6.687-3.008 6.687-6.688l.096-30.432 1.716.012h2.257v30.76c0 3.197 2.36 6.006 5.544 6.318 3.659.358 6.769-2.539 6.769-6.128v-30.95h14.663c2.425 0 3.942-3.181 2.729-5.726l-14.617-30.671-3.306-9.003c-.184-5.752.249-6.592.249-6.592l13.441 29.086a4.53 4.53 0 0 0 6.027 2.114l.888-.425a4.53 4.53 0 0 0 2.117-6.028l-1.655-3.444c-5.348-11.137-10.026-20.093-13.96-27.174h.003l-5.667-10.273c-3.11-5.008-6.495-4.66-9.599-4.66h-.649v-3.398c4.844-2.502 8.156-7.553 8.156-13.381 0-8.312-6.738-15.05-15.051-15.05-1.926 0-3.77.362-5.462 1.022"/>
  </defs>
  <clipPath id="i">
    <use xlink:href="#h" overflow="visible"/>
  </clipPath>
  <linearGradient id="j" gradientUnits="userSpaceOnUse" x1="0" y1="229.97" x2="1" y2="229.97" gradientTransform="matrix(0 -144.0643 -144.0643 0 33181.75 190.72)">
    <stop offset="0" style="stop-color:#cee1ac"/>
    <stop offset=".094" style="stop-color:#c6dc99"/>
    <stop offset=".302" style="stop-color:#b6d270"/>
    <stop offset=".503" style="stop-color:#a9ca4e"/>
    <stop offset=".691" style="stop-color:#9ec536"/>
    <stop offset=".862" style="stop-color:#97c226"/>
    <stop offset="1" style="stop-color:#95c11f"/>
  </linearGradient>
  <path clip-path="url(#i)" fill="url(#j)" d="M17.562 47.734h67.506v142.061H17.562z"/>
  <path clip-path="url(#i)" fill="#0C3958" d="M10.905 47.735h80.002v77.982H10.905z"/>
  <path d="M47.644 141.639h-4.98l-.39-.675q.884-1.68 2.175-4.447a279 279 0 0 0 2.31-5.078h.39l1.2.646-4.05 7.8-.6.915 3.945-.21.06-2.925 1.275-.105v2.955l2.115-.105v1.23h-2.115v2.415h-1.335zm6.045 1.635q1.065 0 1.95-.435t1.395-1.2c.51-.765.51-1.09.51-1.74q0-2.414-2.235-2.415-.495 0-1.103.143a6.4 6.4 0 0 0-1.058.338l-.405-.285.735-5.4h4.275l.15-.284h.93l-.27 1.545h-3.975l-.69 3.494q.405-.21 1.035-.375.63-.164 1.26-.164 1.44 0 2.265.81t.825 2.354q0 1.186-.682 2.19-.683 1.005-1.928 1.605t-2.835.6q-.645 0-1.05-.105v-.72q.421.044.901.044" fill="#FFF"/>
  <defs>
    <path id="k" d="M0 0h435.038v229.97H0z"/>
  </defs>
  <clipPath id="l">
    <use xlink:href="#k" overflow="visible"/>
  </clipPath>
  <path clip-path="url(#l)" fill="none" stroke="#0C3958" stroke-width=".25" stroke-miterlimit="10" d="M321.313 210.759v6h-6"/>
  <path clip-path="url(#l)" fill="none" stroke="#0C3958" stroke-width=".25" stroke-miterlimit="10" stroke-dasharray="11.591,11.591" d="M303.722 216.759H170.424"/>
  <path clip-path="url(#l)" fill="none" stroke="#0C3958" stroke-width=".25" stroke-miterlimit="10" d="M164.629 216.759h-6v-6"/>
  <path clip-path="url(#l)" fill="none" stroke="#0C3958" stroke-width=".25" stroke-miterlimit="10" stroke-dasharray="12.712,12.712" d="M158.629 198.047V51.859"/>
  <path clip-path="url(#l)" fill="none" stroke="#0C3958" stroke-width=".25" stroke-miterlimit="10" d="M158.629 45.504v-6h6"/>
  <path clip-path="url(#l)" fill="none" stroke="#0C3958" stroke-width=".25" stroke-miterlimit="10" stroke-dasharray="11.591,11.591" d="M176.22 39.504h133.298"/>
  <path clip-path="url(#l)" fill="none" stroke="#0C3958" stroke-width=".25" stroke-miterlimit="10" d="M315.313 39.504h6v6"/>
  <path clip-path="url(#l)" fill="none" stroke="#0C3958" stroke-width=".25" stroke-miterlimit="10" stroke-dasharray="12.712,12.712" d="M321.313 58.216v146.188"/>
  <path clip-path="url(#l)" fill="#0C3958" d="m235.039 125.116-1.655-3.445c-5.348-11.137-10.024-20.093-13.959-27.174h.002l-5.667-10.273c-3.109-5.008-6.495-4.66-9.599-4.66h-.648v-3.399c4.843-2.5 8.155-7.553 8.155-13.379 0-8.313-6.738-15.051-15.051-15.051a15 15 0 0 0-5.462 1.022 15 15 0 0 0-3.72 2.11l-.669.401c-4.05 2.435-5.619 8.886-6.034 10.928-2.607 12.822-10.091 12.091-10.091 12.091s1.132.425 9.913 2.563c3.748.913 7.511 1.224 10.6 1.283v1.431h-4.633v.091c-4.251.446-8.188 2.575-10.806 6.005-5.845 7.663-6.896 18.667-7.064 23.49-.003.065-.02.127-.02.192v.495c-.023 1.097 0 1.737 0 1.737v19.583c0 2.624 1.969 4.925 4.586 5.109 2.874.202 5.291-2.094 5.291-4.927v-21.998c0-.205-.036-.4-.06-.599.525-11.047 4.644-14.481 4.644-14.481v88.519c0 3.678 3.009 6.687 6.688 6.687s6.687-3.009 6.687-6.687l.095-30.434 1.717.014h2.257v30.759c0 3.198 2.36 6.005 5.544 6.317 3.658.359 6.769-2.538 6.769-6.126v-30.95h14.662c2.427 0 3.942-3.182 2.729-5.727l-14.616-30.672-3.307-9.002c-.184-5.752.25-6.592.25-6.592l13.439 29.085a4.53 4.53 0 0 0 6.028 2.116l.887-.427a4.527 4.527 0 0 0 2.118-6.025"/>
  <defs>
    <path id="m" d="M191.156 48.756a15 15 0 0 0-3.72 2.11l-.67.401c-4.05 2.435-5.619 8.886-6.033 10.929-2.608 12.821-10.092 12.09-10.092 12.09s1.133.425 9.913 2.563c3.748.913 7.512 1.224 10.601 1.283v1.431h-4.635v.091c-4.25.446-8.187 2.575-10.805 6.005-5.845 7.663-6.896 18.667-7.064 23.491-.003.064-.02.125-.02.191v.495c-.022 1.096 0 1.737 0 1.737v19.583c0 2.624 1.969 4.926 4.586 5.11 2.874.202 5.292-2.094 5.292-4.927v-21.998c0-.205-.036-.4-.062-.598.526-11.048 4.645-14.482 4.645-14.482v88.518c0 3.68 3.01 6.688 6.687 6.688 3.679 0 6.688-3.008 6.688-6.688l.096-30.432 1.716.012h2.257v30.76c0 3.197 2.36 6.006 5.544 6.318 3.658.358 6.769-2.539 6.769-6.128v-30.95h14.662c2.426 0 3.943-3.181 2.729-5.726l-14.616-30.671-3.306-9.003c-.185-5.752.249-6.592.249-6.592l13.44 29.086a4.53 4.53 0 0 0 6.027 2.114l.889-.425a4.53 4.53 0 0 0 2.117-6.028l-1.656-3.444c-5.347-11.137-10.024-20.093-13.959-27.174h.002l-5.666-10.273c-3.111-5.008-6.495-4.66-9.6-4.66h-.649v-3.398c4.844-2.502 8.156-7.553 8.156-13.381 0-8.312-6.738-15.05-15.05-15.05-1.926 0-3.77.362-5.462 1.022"/>
  </defs>
  <clipPath id="n">
    <use xlink:href="#m" overflow="visible"/>
  </clipPath>
  <linearGradient id="o" gradientUnits="userSpaceOnUse" x1="0" y1="229.969" x2="1" y2="229.969" gradientTransform="matrix(0 -144.0643 -144.0643 0 33332.75 190.72)">
    <stop offset="0" style="stop-color:#cee1ac"/>
    <stop offset=".094" style="stop-color:#c6dc99"/>
    <stop offset=".302" style="stop-color:#b6d270"/>
    <stop offset=".503" style="stop-color:#a9ca4e"/>
    <stop offset=".691" style="stop-color:#9ec536"/>
    <stop offset=".862" style="stop-color:#97c226"/>
    <stop offset="1" style="stop-color:#95c11f"/>
  </linearGradient>
  <path clip-path="url(#n)" fill="url(#o)" d="M168.609 47.734h67.506v142.061h-67.506z"/>
  <path clip-path="url(#n)" fill="#0C3958" d="M161.524 47.735h73.958v28.346h-73.958z"/>
  <path d="M192.045 118.263q.577-.757 1.732-1.268-.885-.57-1.365-1.207t-.48-1.598q0-.885.473-1.522a2.96 2.96 0 0 1 1.252-.968q.78-.33 1.68-.33 1.455 0 2.34.675t.885 1.8q0 .855-.517 1.583-.518.727-1.493 1.268 1.2.675 1.86 1.365c.66.69.66 1.03.66 1.71q0 .915-.533 1.598c-.533.683-.828.808-1.417 1.058q-.885.374-1.92.375a5.4 5.4 0 0 1-1.808-.301 3.1 3.1 0 0 1-1.387-.952q-.54-.652-.54-1.643 0-.885.578-1.643m5.122.87a3 3 0 0 0-.787-.713 17 17 0 0 0-1.298-.72q-.42-.21-.63-.33-.705.36-1.14.96t-.435 1.29q0 1.11.653 1.763.652.653 1.777.652.54 0 1.042-.24t.817-.689c.315-.449.315-.64.315-1.021a1.52 1.52 0 0 0-.314-.952m-3.525-4.327q.33.42.81.72t1.38.78q.675-.36 1.065-.915t.39-1.2q0-.99-.54-1.553t-1.455-.563q-.826 0-1.402.48-.578.48-.578 1.29 0 .541.33.961m8.228 6.652q-.952-1.327-.952-3.428 0-1.47.54-2.572t1.47-1.688q.93-.585 2.04-.585 1.95 0 2.85 1.252c.9 1.252.9 1.977.9 3.427q0 1.456-.518 2.572-.517 1.118-1.425 1.732a3.54 3.54 0 0 1-2.033.615q-1.92.003-2.872-1.325m5.167-3.442q0-1.95-.502-3t-1.688-1.05q-1.155 0-1.71.998c-.555.998-.555 1.618-.555 2.857q0 1.905.532 3.053t1.688 1.147q2.235 0 2.235-4.005" fill="#FFF"/>
  <path d="M170.592 207.049q.71 0 1.3-.29t.93-.8c.339-.51.34-.727.34-1.16q0-1.61-1.49-1.609-.33 0-.735.095t-.705.225l-.27-.189.49-3.601h2.85l.1-.189h.62l-.18 1.029h-2.65l-.46 2.33q.27-.14.69-.25t.84-.109q.96 0 1.51.54t.55 1.569q0 .79-.455 1.46-.454.67-1.285 1.07-.83.4-1.89.4a3 3 0 0 1-.7-.07v-.48q.28.03.6.029m5.655-1.884q-.635-.885-.635-2.285 0-.98.36-1.715t.98-1.125 1.36-.39q1.3 0 1.9.835t.6 2.284q0 .97-.345 1.716-.345.744-.95 1.154c-.605.41-.855.41-1.355.41q-1.28 0-1.915-.884m3.445-2.295q0-1.3-.335-2-.336-.7-1.125-.7-.771 0-1.14.665c-.369.665-.37 1.078-.37 1.905q0 1.27.355 2.035.356.765 1.125.765 1.49 0 1.49-2.67m2.985 2.295q-.635-.885-.635-2.285 0-.98.36-1.715t.98-1.125 1.36-.39q1.3 0 1.9.835t.6 2.284q0 .97-.345 1.716-.345.744-.95 1.154c-.605.41-.855.41-1.355.41q-1.28 0-1.915-.884m3.445-2.295q0-1.3-.335-2-.336-.7-1.125-.7-.771 0-1.14.665c-.369.665-.37 1.078-.37 1.905q0 1.27.355 2.035t1.125.765q1.49 0 1.49-2.67m9.61 1.674q-.35.705-1 1.115t-1.52.41q-.24 0-.52-.04a2.4 2.4 0 0 1-.45-.101l.03.84v1.011l1.04.109v.49h-2.79v-.49l.72-.109v-6.601l-.73-.18v-.54l1.42-.18h.02l.21.18v.59q.3-.33.745-.56.444-.23.995-.23.59 0 1.085.29c.495.29.595.493.795.9q.3.61.3 1.54a3.45 3.45 0 0 1-.35 1.556m-2.95-3.424q-.33.16-.51.35v3.771q.07.12.355.215t.625.095q.771 0 1.245-.609.475-.61.475-1.841 0-1.08-.415-1.609-.415-.53-1.065-.53a1.56 1.56 0 0 0-.71.158m4.785 4.16q-.635-.79-.635-2.11 0-.87.33-1.53.33-.659.925-1.02.594-.36 1.355-.36.93 0 1.445.516.515.515.545 1.475 0 .61-.07.93h-3.44q.02.99.46 1.596c.44.606.71.604 1.25.604q.4 0 .835-.145c.435-.145.515-.212.675-.346l.19.44q-.29.3-.86.52t-1.16.221q-1.21-.002-1.845-.791m2.865-2.63q.03-.211.03-.431-.01-.65-.275-1.024-.265-.375-.835-.375-.58 0-.925.42-.344.42-.395 1.41zm1.98 2.819.75-.06v-4.23l-.72-.18v-.54l1.38-.18h.02l.22.18v.18l-.03.78h.03a2.6 2.6 0 0 1 .36-.44q.26-.27.67-.494.41-.226.89-.226a1 1 0 0 1 .33.05v1.12a.8.8 0 0 0-.225-.095 1.2 1.2 0 0 0-.345-.045q-.83 0-1.54.51v3.601l1.27.079v.48h-3.06zm5.489-.309q.1.15.425.27t.685.12q.57 0 .84-.22t.27-.61a.7.7 0 0 0-.17-.47 1.5 1.5 0 0 0-.475-.355 10 10 0 0 0-.875-.375q-.771-.29-1.125-.694-.355-.406-.355-1.065 0-.44.265-.77.264-.33.73-.516.465-.185 1.035-.185.46 0 .805.07t.555.14.28.09v1.24h-.61l-.2-.74q-.06-.12-.32-.205c-.26-.085-.367-.085-.58-.085q-.45 0-.725.2a.63.63 0 0 0-.275.54q0 .3.145.495c.145.195.218.234.365.314q.22.12.6.28l.2.08q.56.22.91.42.35.201.585.525.234.325.235.795 0 .74-.575 1.18t-1.575.44q-.49 0-1.025-.136a7 7 0 0 1-.875-.274v-1.28h.65zm4.491-3.55q.37-.66.975-1.006a2.6 2.6 0 0 1 1.295-.345q1.26 0 1.895.8t.635 2.101q0 .91-.369 1.569-.371.66-.975 1a2.6 2.6 0 0 1-1.296.341q-1.26 0-1.895-.801-.635-.799-.635-2.1 0-.9.37-1.559m3.28 3.319q.369-.57.369-1.689 0-1.11-.34-1.761t-1.089-.649q-.69 0-1.065.57t-.375 1.689q0 1.11.35 1.76t1.09.65q.69 0 1.06-.57m3.029-3.75-.72-.18v-.54l1.43-.18h.03l.21.18v.42l-.01.24q.36-.32.95-.58t1.13-.26q.63 0 .975.239.345.24.485.735t.14 1.335v2.8l.7.07v.5h-2.37v-.49l.62-.08v-2.81q0-.59-.08-.925t-.3-.5-.641-.165q-.359 0-.77.18c-.411.18-.517.26-.73.42v3.79l.681.09v.49h-2.36v-.49l.63-.09zm6.98 1.896q.94-.445 2.38-.476v-.279q0-.47-.1-.74c-.1-.27-.182-.312-.345-.396q-.246-.125-.695-.125-.51 0-.915.146t-.805.354l-.25-.52q.13-.11.479-.29c.349-.18.504-.227.811-.32q.46-.14.92-.14.711 0 1.125.195t.595.625q.18.43.18 1.149v3.21h.591v.44a7 7 0 0 1-.505.1 3.4 3.4 0 0 1-.535.05q-.28 0-.38-.085t-.101-.375v-.33q-.3.3-.734.551a1.95 1.95 0 0 1-.985.25q-.72 0-1.195-.415-.475-.416-.475-1.195 0-.939.939-1.384m1.76 2.154q.34-.159.619-.38v-1.72q-1.09 0-1.645.335c-.555.335-.555.515-.555.875s.088.625.265.795.415.255.715.255q.262 0 .601-.16m3.84-.069q.1.15.425.27c.325.12.445.12.686.12q.57 0 .84-.22c.27-.22.27-.351.27-.61q0-.27-.17-.47c-.17-.2-.271-.252-.475-.355a10 10 0 0 0-.875-.375q-.771-.29-1.125-.694-.355-.406-.355-1.065 0-.44.266-.77.265-.33.729-.516a2.8 2.8 0 0 1 1.035-.185q.46 0 .805.07t.556.14q.21.07.279.09v1.24h-.609l-.2-.74q-.06-.12-.32-.205a1.9 1.9 0 0 0-.58-.085q-.45 0-.725.2c-.275.2-.275.313-.275.54q0 .3.146.495c.146.195.218.234.365.314q.22.12.6.28l.2.08q.56.22.91.42.35.201.585.525.234.325.234.795 0 .74-.574 1.18-.576.44-1.575.44-.49 0-1.025-.136a7 7 0 0 1-.875-.274v-1.28h.65zm-212.529-4.361a6 6 0 0 1-.66.19q-.45.11-.73.149l-.1-.56q.51-.11 1.045-.37t.895-.57h.01l.61.101v5.64l1.24.09v.49h-3.6v-.49l1.29-.09zm3.775 4.366q-.635-.885-.635-2.285 0-.98.36-1.715t.98-1.125 1.36-.39q1.3 0 1.9.835t.6 2.284q0 .97-.345 1.716-.345.744-.95 1.154c-.605.41-.855.41-1.355.41q-1.28 0-1.915-.884m3.445-2.295q0-1.3-.335-2-.336-.7-1.125-.7-.771 0-1.14.665c-.369.665-.37 1.078-.37 1.905q0 1.27.355 2.035t1.125.765q1.49 0 1.49-2.67m2.985 2.295q-.635-.885-.635-2.285 0-.98.36-1.715t.98-1.125 1.36-.39q1.3 0 1.9.835t.6 2.284q0 .97-.345 1.716-.345.744-.95 1.154c-.605.41-.855.41-1.355.41q-1.28 0-1.915-.884m3.445-2.295q0-1.3-.335-2-.336-.7-1.125-.7-.771 0-1.14.665c-.369.665-.37 1.078-.37 1.905q0 1.27.355 2.035t1.125.765q1.49 0 1.49-2.67m2.985 2.295q-.635-.885-.635-2.285 0-.98.36-1.715t.98-1.125 1.36-.39q1.3 0 1.9.835t.6 2.284q0 .97-.345 1.716-.345.744-.95 1.154c-.605.41-.855.41-1.355.41q-1.28 0-1.915-.884m3.445-2.295q0-1.3-.335-2-.336-.7-1.125-.7-.771 0-1.14.665c-.369.665-.37 1.078-.37 1.905q0 1.27.355 2.035t1.125.765q1.49 0 1.49-2.67m9.609 1.674q-.35.705-1 1.115t-1.52.41q-.24 0-.52-.04a2.4 2.4 0 0 1-.45-.101l.03.84v1.011l1.04.109v.49h-2.79v-.49l.72-.109v-6.601l-.73-.18v-.54l1.42-.18h.02l.21.18v.59q.3-.33.745-.56.444-.23.995-.23.59 0 1.085.29c.495.29.595.493.795.9q.3.61.3 1.54a3.4 3.4 0 0 1-.35 1.556m-2.949-3.424q-.33.16-.51.35v3.771q.07.12.355.215t.625.095q.771 0 1.245-.609.475-.61.475-1.841 0-1.08-.415-1.609-.416-.53-1.065-.53a1.56 1.56 0 0 0-.71.158m4.784 4.16q-.635-.79-.635-2.11 0-.87.33-1.53.33-.659.925-1.02.594-.36 1.355-.36.93 0 1.445.516.515.515.545 1.475 0 .61-.07.93h-3.44q.02.99.46 1.596c.44.606.71.604 1.25.604q.4 0 .835-.145c.435-.145.515-.212.675-.346l.19.44q-.29.3-.86.52t-1.16.221q-1.209-.002-1.845-.791m2.866-2.63q.03-.211.03-.431-.01-.65-.275-1.024-.265-.375-.835-.375-.58 0-.925.42-.344.42-.395 1.41zm1.98 2.819.75-.06v-4.23l-.72-.18v-.54l1.38-.18h.02l.22.18v.18l-.03.78h.03a2.6 2.6 0 0 1 .36-.44q.26-.27.67-.494.41-.226.89-.226a1 1 0 0 1 .33.05v1.12a.8.8 0 0 0-.225-.095 1.2 1.2 0 0 0-.345-.045q-.83 0-1.54.51v3.601l1.27.079v.48h-3.06zm5.489-.309q.1.15.425.27t.685.12q.57 0 .84-.22t.27-.61a.7.7 0 0 0-.17-.47 1.5 1.5 0 0 0-.475-.355 10 10 0 0 0-.875-.375q-.771-.29-1.125-.694-.355-.406-.355-1.065 0-.44.265-.77t.73-.516 1.035-.185q.46 0 .805.07t.555.14.28.09v1.24h-.61l-.2-.74q-.06-.12-.32-.205c-.26-.085-.367-.085-.58-.085q-.45 0-.725.2a.63.63 0 0 0-.275.54q0 .3.145.495c.145.195.218.234.365.314q.22.12.6.28l.2.08q.56.22.91.42.35.201.585.525.234.325.235.795 0 .74-.575 1.18t-1.575.44q-.49 0-1.025-.136a7 7 0 0 1-.875-.274v-1.28h.65zm4.49-3.55q.37-.66.975-1.006a2.6 2.6 0 0 1 1.295-.345q1.26 0 1.895.8t.635 2.101q0 .91-.37 1.569-.37.66-.975 1a2.6 2.6 0 0 1-1.295.341q-1.26 0-1.895-.801-.635-.799-.635-2.1 0-.9.37-1.559m3.28 3.319q.37-.57.37-1.689 0-1.11-.34-1.761t-1.09-.649q-.69 0-1.065.57t-.375 1.689q0 1.11.35 1.76t1.09.65q.69 0 1.06-.57m3.03-3.75-.72-.18v-.54l1.43-.18h.03l.21.18v.42l-.01.24q.36-.32.95-.58c.59-.26.77-.26 1.13-.26q.63 0 .975.239.345.24.485.735c.14.495.14.775.14 1.335v2.8l.7.07v.5h-2.37v-.49l.62-.08v-2.81q0-.59-.08-.925t-.3-.5-.64-.165q-.36 0-.77.18c-.41.18-.517.26-.73.42v3.79l.68.09v.49h-2.36v-.49l.63-.09zm6.98 1.896q.94-.445 2.38-.476v-.279q0-.47-.1-.74c-.1-.27-.182-.312-.345-.396q-.245-.125-.695-.125-.51 0-.915.146a5 5 0 0 0-.805.354l-.25-.52q.13-.11.48-.29t.81-.32.92-.14q.71 0 1.125.195t.595.625.18 1.149v3.21h.59v.44a7 7 0 0 1-.505.1 3.4 3.4 0 0 1-.535.05q-.28 0-.38-.085t-.1-.375v-.33q-.3.3-.735.551a1.95 1.95 0 0 1-.985.25q-.72 0-1.195-.415-.475-.416-.475-1.195 0-.939.94-1.384m1.76 2.154a3 3 0 0 0 .62-.38v-1.72q-1.09 0-1.645.335c-.555.335-.555.515-.555.875s.088.625.265.795.415.255.715.255q.26 0 .6-.16m3.84-.069q.1.15.425.27t.685.12q.57 0 .84-.22t.27-.61a.7.7 0 0 0-.17-.47 1.5 1.5 0 0 0-.475-.355 10 10 0 0 0-.875-.375q-.771-.29-1.125-.694-.355-.406-.355-1.065 0-.44.265-.77.264-.33.73-.516.465-.185 1.035-.185.46 0 .805.07t.555.14.28.09v1.24h-.61l-.2-.74q-.06-.12-.32-.205c-.26-.085-.367-.085-.58-.085q-.45 0-.725.2a.63.63 0 0 0-.275.54q0 .3.145.495c.145.195.218.234.365.314q.22.12.6.28l.2.08q.56.22.91.42.35.201.585.525.234.325.235.795 0 .74-.575 1.18t-1.575.44q-.49 0-1.025-.136a7 7 0 0 1-.875-.274v-1.28h.65zm165.862 1.889q.71 0 1.3-.29c.59-.29.703-.46.93-.8s.341-.727.341-1.16q0-1.61-1.49-1.609-.33 0-.735.095t-.705.225l-.27-.189.49-3.601h2.85l.1-.189h.62l-.18 1.029h-2.65l-.46 2.33q.27-.14.69-.25t.84-.109q.96 0 1.51.54t.55 1.569q0 .79-.454 1.46-.456.67-1.285 1.07-.83.4-1.891.4-.43 0-.699-.07v-.48q.276.03.598.029m5.654-1.884q-.635-.885-.635-2.285 0-.98.36-1.715.359-.735.979-1.125c.62-.39.866-.39 1.36-.39q1.3 0 1.899.835.6.835.601 2.284 0 .97-.346 1.716-.344.744-.949 1.154-.606.41-1.355.41-1.279 0-1.914-.884m3.445-2.295q0-1.3-.335-2-.336-.7-1.125-.7-.77 0-1.141.665-.369.665-.369 1.905 0 1.27.354 2.035t1.125.765q1.491 0 1.491-2.67m2.986 2.295q-.635-.885-.635-2.285 0-.98.36-1.715.359-.735.979-1.125c.62-.39.866-.39 1.36-.39q1.3 0 1.899.835.6.835.601 2.284 0 .97-.346 1.716-.344.744-.949 1.154-.606.41-1.355.41-1.28 0-1.914-.884m3.445-2.295q0-1.3-.335-2-.336-.7-1.125-.7-.77 0-1.141.665-.369.665-.369 1.905 0 1.27.354 2.035t1.125.765q1.491 0 1.491-2.67m9.609 1.674q-.35.705-1 1.115c-.65.41-.939.41-1.52.41q-.24 0-.521-.04a2.4 2.4 0 0 1-.45-.101l.03.84v1.011l1.04.109v.49h-2.79v-.49l.72-.109v-6.601l-.729-.18v-.54l1.42-.18h.021l.21.18v.59a2.6 2.6 0 0 1 .744-.56q.446-.23.995-.23.59 0 1.085.29c.495.29.596.493.795.9q.3.61.301 1.54 0 .852-.351 1.556m-2.95-3.424q-.33.16-.51.35v3.771q.07.12.355.215.284.095.625.095.77 0 1.245-.609.475-.61.475-1.841 0-1.08-.415-1.609c-.415-.529-.632-.53-1.065-.53a1.6 1.6 0 0 0-.71.158m4.785 4.16q-.636-.79-.636-2.11 0-.87.33-1.53.33-.659.925-1.02.596-.36 1.355-.36.93 0 1.445.516.514.515.545 1.475 0 .61-.07.93h-3.44q.02.99.461 1.596.44.604 1.25.604.4 0 .835-.145c.435-.145.515-.212.675-.346l.189.44q-.29.3-.859.52c-.569.22-.767.221-1.16.221q-1.21-.002-1.845-.791m2.864-2.63q.03-.211.03-.431-.01-.65-.275-1.024c-.265-.374-.454-.375-.835-.375q-.58 0-.925.42-.344.42-.395 1.41zm1.981 2.819.75-.06v-4.23l-.72-.18v-.54l1.38-.18h.021l.22.18v.18l-.03.78h.03a2.6 2.6 0 0 1 .36-.44q.26-.27.67-.494.408-.226.89-.226a1 1 0 0 1 .33.05v1.12a.8.8 0 0 0-.226-.095 1.2 1.2 0 0 0-.345-.045q-.83 0-1.54.51v3.601l1.271.079v.48h-3.061zm5.49-.309q.1.15.425.27c.325.12.445.12.686.12q.57 0 .84-.22c.27-.22.27-.351.27-.61q0-.27-.17-.47c-.17-.2-.271-.252-.475-.355a10 10 0 0 0-.875-.375q-.771-.29-1.125-.694-.354-.406-.355-1.065 0-.44.266-.77.265-.33.729-.516a2.8 2.8 0 0 1 1.035-.185q.46 0 .805.07t.556.14.279.09v1.24h-.609l-.2-.74q-.06-.12-.32-.205a1.9 1.9 0 0 0-.58-.085q-.45 0-.725.2c-.275.2-.275.313-.275.54q0 .3.146.495c.146.195.218.234.365.314q.22.12.6.28l.2.08q.56.22.91.42.35.201.585.525.234.325.234.795 0 .74-.574 1.18-.576.44-1.575.44-.49 0-1.025-.136a7 7 0 0 1-.875-.274v-1.28h.65zm4.49-3.55a2.57 2.57 0 0 1 2.27-1.351q1.26 0 1.896.8t.635 2.101q0 .91-.37 1.569-.37.66-.975 1a2.6 2.6 0 0 1-1.295.341q-1.261 0-1.896-.801-.635-.799-.635-2.1 0-.9.37-1.559m3.28 3.319q.37-.57.37-1.689 0-1.11-.34-1.761t-1.09-.649q-.69 0-1.065.57t-.375 1.689q0 1.11.351 1.76.35.65 1.09.65.69 0 1.059-.57m3.03-3.75-.72-.18v-.54l1.43-.18h.03l.21.18v.42l-.01.24q.36-.32.95-.58t1.13-.26q.63 0 .975.239.345.24.485.735t.14 1.335v2.8l.7.07v.5h-2.37v-.49l.62-.08v-2.81q0-.59-.08-.925t-.3-.5-.641-.165q-.359 0-.77.18c-.411.18-.517.26-.73.42v3.79l.681.09v.49h-2.36v-.49l.63-.09zm6.979 1.896q.94-.445 2.38-.476v-.279q0-.47-.1-.74c-.1-.27-.182-.312-.345-.396q-.246-.125-.695-.125-.51 0-.915.146t-.805.354l-.25-.52q.13-.11.479-.29c.349-.18.504-.227.811-.32q.46-.14.92-.14.711 0 1.125.195t.595.625q.18.43.18 1.149v3.21h.591v.44a7 7 0 0 1-.505.1 3.4 3.4 0 0 1-.535.05q-.28 0-.38-.085t-.101-.375v-.33q-.3.3-.734.551a1.95 1.95 0 0 1-.985.25q-.72 0-1.195-.415-.475-.416-.475-1.195 0-.939.939-1.384m1.761 2.154q.34-.159.619-.38v-1.72q-1.09 0-1.645.335c-.555.335-.555.515-.555.875s.088.625.265.795.415.255.715.255q.26 0 .601-.16m3.839-.069q.1.15.425.27c.325.12.445.12.686.12q.57 0 .84-.22c.27-.22.27-.351.27-.61q0-.27-.17-.47c-.17-.2-.271-.252-.475-.355a10 10 0 0 0-.875-.375q-.771-.29-1.125-.694-.355-.406-.355-1.065 0-.44.266-.77t.729-.516a2.8 2.8 0 0 1 1.035-.185q.46 0 .805.07t.556.14.279.09v1.24h-.609l-.2-.74q-.06-.12-.32-.205a1.9 1.9 0 0 0-.58-.085q-.45 0-.725.2c-.275.2-.275.313-.275.54q0 .3.146.495c.146.195.218.234.365.314q.22.12.6.28l.2.08q.56.22.91.42.35.201.585.525.234.325.234.795 0 .74-.574 1.18-.576.44-1.575.44-.49 0-1.025-.136a7 7 0 0 1-.875-.274v-1.28h.65z" fill="#0C3958"/>
  <path d="M343.19 111.899a3.27 3.27 0 0 1-1.2 1.338q-.78.492-1.824.492-.287 0-.624-.048a3 3 0 0 1-.54-.12l.036 1.008v1.212l1.248.132v.588h-3.348v-.588l.863-.132v-7.92l-.876-.216v-.648l1.704-.216h.024l.252.216v.708q.36-.396.894-.672a2.56 2.56 0 0 1 1.194-.276q.708 0 1.302.348t.954 1.08.36 1.848a4.1 4.1 0 0 1-.419 1.866m-3.54-4.11a2.1 2.1 0 0 0-.612.42v4.524q.084.144.426.258.343.114.75.114.924 0 1.494-.732t.57-2.208q0-1.296-.498-1.932t-1.278-.636q-.456 0-.852.192m5.029 5.22.899-.072v-5.076l-.864-.216v-.648l1.656-.216h.024l.264.216v.216l-.036.936h.036q.12-.204.432-.528.313-.324.805-.594t1.067-.27q.24 0 .396.06v1.344a1 1 0 0 0-.271-.114 1.5 1.5 0 0 0-.414-.054q-.995 0-1.848.612v4.32l1.524.096v.576h-3.672v-.588zm5.916-4.632a3.09 3.09 0 0 1 2.724-1.62q1.512 0 2.274.96t.762 2.52q0 1.092-.444 1.884c-.444.792-.686.928-1.17 1.2s-1.002.408-1.554.408q-1.513 0-2.274-.96t-.762-2.52q-.002-1.08.444-1.872m3.935 3.984q.444-.684.444-2.028 0-1.332-.408-2.112t-1.308-.78q-.83 0-1.278.684c-.448.684-.45 1.132-.45 2.028q0 1.332.42 2.112c.42.78.716.78 1.309.78q.828 0 1.271-.684m2.905.648.731-.108v-5.04l-.863-.216v-.648l1.716-.216.216.156.072.48-.013.384q.42-.384 1.146-.702.725-.318 1.302-.318.648 0 1.044.216c.396.216.464.368.601.672q.384-.323 1.073-.606.69-.282 1.29-.282.744 0 1.164.282t.594.876.175 1.59v3.372l.863.108v.588h-2.855v-.588l.744-.108v-3.336q0-.696-.103-1.11-.101-.414-.384-.618-.282-.204-.81-.204-.397 0-.841.174a3 3 0 0 0-.756.414q.108.468.108 1.332v3.348l.852.108v.588h-2.903v-.588l.792-.108v-3.36q0-.72-.091-1.116-.09-.396-.342-.594t-.768-.198q-.432 0-.918.216c-.486.216-.606.312-.847.504v4.548l.805.108v.588h-2.796v-.588zm12.689-.228q-.763-.948-.763-2.532 0-1.044.396-1.836a2.9 2.9 0 0 1 1.11-1.224 3.1 3.1 0 0 1 1.626-.432q1.115 0 1.733.618t.654 1.77q0 .732-.084 1.116h-4.128q.023 1.188.552 1.914.528.726 1.5.726.48 0 1.002-.174t.811-.414l.228.528q-.348.36-1.032.624t-1.392.264q-1.45 0-2.213-.948m3.438-3.156q.036-.252.036-.516-.012-.78-.33-1.23t-1.002-.45q-.696 0-1.11.504-.413.504-.474 1.692zm3.624 3.744q-.6-.36-.953-1.104-.354-.744-.354-1.836 0-1.02.42-1.86c.42-.84.682-1.002 1.206-1.326s1.142-.486 1.854-.486a4.4 4.4 0 0 1 1.115.132v-2.244l-1.224-.144v-.516l2.16-.216h.036l.264.192v9.024h.696v.552q-.386.084-.666.132a3.6 3.6 0 0 1-.594.048q-.313 0-.444-.108-.132-.108-.132-.456v-.384a2.7 2.7 0 0 1-.882.684 2.6 2.6 0 0 1-1.183.276q-.719 0-1.319-.36m2.676-.702q.408-.21.611-.486v-4.392q-.095-.144-.449-.258a2.4 2.4 0 0 0-.75-.114q-.936 0-1.494.714c-.558.714-.559 1.21-.559 2.202q0 1.296.492 1.92.492.625 1.272.624.47 0 .877-.21m4.439-4.806-.911-.216v-.636l1.859-.228h.024l.275.216v5.916l.96.096v.588h-3.18v-.588l.972-.108zm-.096-2.34a.8.8 0 0 1-.191-.552q0-.384.233-.636c.233-.252.37-.252.643-.252q.407 0 .6.216c.193.216.192.328.192.552q0 .408-.234.648t-.654.24h-.012q-.385 0-.577-.216m3.601 2.856a3.09 3.09 0 0 1 2.724-1.62q1.512 0 2.274.96t.762 2.52q0 1.092-.444 1.884c-.444.792-.686.928-1.17 1.2s-1.002.408-1.554.408q-1.513 0-2.274-.96t-.762-2.52q-.001-1.08.444-1.872m3.935 3.984q.444-.684.444-2.028 0-1.332-.408-2.112t-1.308-.78q-.83 0-1.278.684c-.448.684-.45 1.132-.45 2.028q0 1.332.42 2.112c.42.78.716.78 1.309.78q.827 0 1.271-.684m11.412-2.172h-4.849v-.876h4.849zm6.035 4.716q.852 0 1.561-.348a2.8 2.8 0 0 0 1.116-.96q.407-.612.407-1.392 0-1.932-1.788-1.932-.396 0-.882.114a5 5 0 0 0-.846.27l-.324-.228.588-4.32h3.42l.12-.228h.744l-.216 1.236h-3.18l-.553 2.796q.325-.168.828-.3c.503-.132.672-.132 1.008-.132q1.153 0 1.813.648t.66 1.884q0 .948-.546 1.752t-1.542 1.284q-.997.48-2.269.48-.516 0-.84-.084v-.576q.338.036.721.036m6.787-2.262q-.762-1.062-.762-2.742 0-1.176.432-2.058c.432-.882.68-1.038 1.176-1.35s1.04-.468 1.633-.468q1.56 0 2.279 1.002.72 1.002.721 2.742 0 1.164-.414 2.058t-1.141 1.386a2.83 2.83 0 0 1-1.626.492q-1.537 0-2.298-1.062m4.133-2.754q0-1.56-.401-2.4-.403-.84-1.351-.84-.924 0-1.368.798c-.444.798-.443 1.294-.443 2.286q0 1.524.426 2.442t1.35.918q1.788 0 1.787-3.204" fill="#DA671D"/>
  <path d="m193.509 11.69-1.17-.18v-.75h1.965q.465 0 1.335-.06t1.305-.06q2.79 0 4.147 1.403t1.357 3.938q0 1.77-.697 3.142-.698 1.373-1.958 2.138t-2.895.765q-.36 0-1.23-.06-.9-.06-1.35-.06h-2.055v-.736l1.245-.15zm2.94 9.495h.45q1.125-.015 1.987-.57t1.342-1.657q.48-1.103.48-2.678 0-2.37-1.027-3.6t-3.098-1.23q-.435 0-1.035.06-.255.045-.45.045v9.51q.526.12 1.351.12m8.093-.3q-.953-1.185-.953-3.165 0-1.305.495-2.295c.495-.99.792-1.17 1.387-1.53q.892-.54 2.033-.54 1.395 0 2.167.772t.817 2.212q0 .915-.104 1.395h-5.161q.03 1.485.69 2.393t1.875.907q.599 0 1.252-.217.652-.217 1.013-.518l.284.66q-.435.45-1.29.78-.854.33-1.739.33-1.814.001-2.766-1.184m4.297-3.945q.045-.315.045-.645-.014-.975-.413-1.538c-.399-.563-.682-.563-1.252-.563q-.87 0-1.387.63-.518.63-.593 2.115zm4.336 3.765q.15.225.637.405.488.18 1.028.18.853 0 1.26-.33.405-.33.405-.915 0-.405-.256-.705c-.256-.3-.407-.377-.712-.533a15 15 0 0 0-1.313-.563q-1.156-.435-1.688-1.042-.532-.608-.532-1.597 0-.66.397-1.155.398-.495 1.095-.772c.697-.277.982-.277 1.553-.277q.69 0 1.207.105c.517.105.623.14.833.21s.35.115.42.135v1.86h-.915l-.3-1.11q-.091-.18-.48-.307c-.389-.127-.55-.128-.87-.128q-.675 0-1.087.3a.95.95 0 0 0-.413.81q0 .45.218.742.217.293.548.473.33.18.899.42l.3.12q.841.33 1.365.63.525.3.878.788.352.488.353 1.192 0 1.11-.863 1.77-.862.66-2.362.66-.735 0-1.537-.203a10 10 0 0 1-1.313-.413v-1.92h.975zm7.348-5.97-1.14-.27v-.795l2.325-.285h.029l.346.27v7.395l1.2.12v.735h-3.976v-.735l1.215-.135v-6.3zm-.12-2.925q-.24-.27-.239-.69 0-.48.292-.795c.292-.315.463-.315.803-.315s.59.09.75.27.24.41.24.69q0 .51-.293.81t-.817.3h-.015q-.48 0-.721-.27m4.748 13.537q-.862-.607-.862-1.672 0-.66.412-1.215.413-.555.982-.84-.69-.39-.689-1.26 0-.54.314-1.02.315-.48.825-.735-.75-.33-1.147-.945t-.397-1.455q0-.87.487-1.515t1.29-.99a4.3 4.3 0 0 1 1.702-.345q1.517 0 2.37.63.225-.225.69-.435t.99-.21h.51v1.32h-1.65q.36.555.36 1.29 0 .886-.442 1.567a2.9 2.9 0 0 1-1.23 1.058q-.786.375-1.777.375-.645 0-1.155-.135-.21.21-.345.465c-.135.255-.135.335-.135.495q0 .54.36.742.359.203 1.29.203h1.694q1.455 0 2.16.555c.705.555.705.895.705 1.575q0 .855-.615 1.568t-1.657 1.125a6.1 6.1 0 0 1-2.258.412q-1.919 0-2.782-.608m4.305-.48q.653-.218 1.058-.645.406-.428.405-.998 0-.675-.36-.982c-.36-.307-.705-.308-1.395-.308h-1.771q-.6 0-.944-.075-.615.675-.615 1.515t.51 1.275c.51.435.915.435 1.725.435q.735.001 1.387-.217m.293-8.767q0-1.004-.442-1.478-.443-.472-1.328-.472-.824 0-1.305.458c-.481.458-.48.792-.48 1.462q0 .945.458 1.5t1.388.555q1.709 0 1.709-2.025m9.907 5.775q-.203-.165-.203-.54v-.51q-.495.495-1.237.87c-.742.375-.992.375-1.492.375q-1.396 0-1.98-.75t-.585-2.475v-4.35l-.84-.24v-.66l2.1-.195h.016l.285.18v5.145q0 .87.127 1.358.128.488.45.72t.938.232q.598 0 1.125-.255.524-.255.915-.6v-5.685l-1.08-.24v-.66l2.28-.195h.015l.345.18v7.56h.9l-.015.675q-.42.105-.728.165a4 4 0 0 1-.713.06q-.421 0-.623-.165m4.688-4.298q1.41-.667 3.57-.712v-.42q0-.705-.15-1.11c-.15-.405-.272-.467-.518-.593q-.368-.188-1.042-.188-.766 0-1.373.218a9.4 9.4 0 0 0-1.207.532l-.375-.78q.194-.165.72-.435.525-.27 1.215-.48c.69-.21.92-.21 1.38-.21q1.065 0 1.688.292t.893.938q.271.645.271 1.725v4.815h.885v.66q-.3.075-.758.15-.457.075-.802.075-.42 0-.57-.127t-.15-.563v-.494q-.45.45-1.103.825t-1.478.375q-1.08 0-1.792-.623-.713-.623-.713-1.792-.002-1.41 1.409-2.078m2.639 3.233q.51-.24.931-.57v-2.58q-1.636 0-2.468.502t-.832 1.313c0 .811.132.938.397 1.193q.397.382 1.072.382.392 0 .9-.24m5.46-10.095-1.215-.165v-.645l2.415-.285h.03l.33.225V21.05l1.275.12v.735h-4.051v-.735l1.215-.135zm5.49 10.905q-.75-.45-1.192-1.38c-.442-.93-.442-1.385-.442-2.295q0-1.275.525-2.325.526-1.05 1.507-1.657.983-.607 2.318-.607.765 0 1.395.165v-2.805l-1.53-.18V9.89l2.7-.27h.045l.33.24v11.28h.87v.69q-.48.105-.833.165-.351.06-.742.06c-.391 0-.445-.045-.555-.135q-.165-.135-.165-.57v-.48q-.42.51-1.103.855c-.683.345-.947.345-1.478.345q-.9 0-1.65-.45m3.345-.878q.51-.262.765-.607v-5.49q-.12-.18-.563-.323a3 3 0 0 0-.938-.143q-1.17 0-1.867.893t-.698 2.752q0 1.62.615 2.4t1.59.78q.586.001 1.096-.262m5.79-3.165q1.41-.667 3.57-.712v-.42q0-.705-.15-1.11c-.15-.405-.272-.467-.518-.593q-.368-.188-1.042-.188-.766 0-1.373.218a9.4 9.4 0 0 0-1.207.532l-.375-.78q.194-.165.72-.435.525-.27 1.215-.48c.69-.21.92-.21 1.38-.21q1.065 0 1.688.292t.893.938q.271.645.271 1.725v4.815h.885v.66q-.3.075-.758.15-.457.075-.802.075-.42 0-.57-.127t-.15-.563v-.494q-.45.45-1.103.825t-1.478.375q-1.08 0-1.792-.623-.714-.623-.713-1.792-.001-1.41 1.409-2.078m2.64 3.233q.51-.24.931-.57v-2.58q-1.636 0-2.468.502t-.832 1.313c0 .811.132.938.397 1.193q.397.382 1.072.382.39 0 .9-.24m5.954.81q-.75-.45-1.192-1.38c-.442-.93-.442-1.385-.442-2.295q0-1.275.525-2.325.526-1.05 1.507-1.657.983-.607 2.318-.607.765 0 1.395.165v-2.805l-1.53-.18V9.89l2.7-.27h.045l.33.24v11.28h.87v.69q-.48.105-.833.165-.351.06-.742.06c-.391 0-.445-.045-.555-.135q-.165-.135-.165-.57v-.48q-.42.51-1.103.855c-.683.345-.947.345-1.478.345a3.15 3.15 0 0 1-1.65-.45m3.346-.878q.51-.262.765-.607v-5.49q-.12-.18-.563-.323a3 3 0 0 0-.938-.143q-1.17 0-1.867.893t-.698 2.752q0 1.62.615 2.4t1.59.78a2.35 2.35 0 0 0 1.096-.262M17.469 11.69l-1.395-.18v-.75h4.41v.75l-1.395.18v9.33l1.395.165v.72h-4.395v-.735l1.38-.15zm5.318 13.657q-.862-.607-.862-1.672 0-.66.412-1.215.413-.555.982-.84-.69-.39-.69-1.26 0-.54.315-1.02t.825-.735q-.75-.33-1.147-.945t-.397-1.455q0-.87.487-1.515t1.29-.99a4.3 4.3 0 0 1 1.703-.345q1.515 0 2.37.63.225-.225.69-.435t.99-.21h.51v1.32h-1.65q.36.555.36 1.29 0 .886-.442 1.567a2.9 2.9 0 0 1-1.23 1.058q-.788.375-1.778.375-.645 0-1.155-.135-.21.21-.345.465t-.135.495q0 .54.36.742.36.203 1.29.203h1.695q1.455 0 2.16.555t.705 1.575q0 .855-.615 1.568t-1.657 1.125a6.1 6.1 0 0 1-2.258.412q-1.922 0-2.783-.608m4.305-.48q.652-.218 1.057-.645t.405-.998q0-.675-.36-.982-.36-.308-1.395-.308h-1.77q-.6 0-.945-.075-.615.675-.615 1.515t.51 1.275c.51.435.915.435 1.725.435q.735.001 1.388-.217m.292-8.767q0-1.004-.443-1.478-.442-.472-1.327-.472-.825 0-1.305.458-.48.457-.48 1.462 0 .945.458 1.5.457.555 1.388.555 1.709 0 1.709-2.025m9.908 5.775q-.203-.165-.203-.54v-.51q-.495.495-1.237.87c-.742.375-.993.375-1.493.375q-1.395 0-1.98-.75t-.585-2.475v-4.35l-.84-.24v-.66l2.1-.195h.015l.285.18v5.145q0 .87.127 1.358t.45.72.938.232q.6 0 1.125-.255t.915-.6v-5.685l-1.08-.24v-.66l2.28-.195h.015l.345.18v7.56h.9l-.015.675q-.42.105-.728.165-.307.06-.712.06-.42 0-.622-.165m4.687-4.298q1.41-.667 3.57-.712v-.42q0-.705-.15-1.11c-.15-.405-.272-.467-.518-.593q-.367-.188-1.042-.188-.765 0-1.373.218a9 9 0 0 0-1.207.532l-.375-.78q.194-.165.72-.435c.526-.27.755-.34 1.215-.48s.92-.21 1.38-.21q1.065 0 1.688.292.622.292.892.938t.27 1.725v4.815h.885v.66q-.3.075-.757.15-.458.075-.803.075-.42 0-.57-.127t-.15-.563v-.494q-.45.45-1.102.825t-1.478.375q-1.08 0-1.792-.623-.713-.623-.713-1.792 0-1.41 1.41-2.078m2.64 3.233q.51-.24.93-.57v-2.58q-1.635 0-2.467.502t-.833 1.313c0 .811.132.938.397 1.193q.398.382 1.073.382.39 0 .9-.24m5.46-10.095-1.215-.165v-.645l2.415-.285h.03l.33.225V21.05l1.275.12v.735h-4.05v-.735l1.215-.135zm5.49 10.905q-.75-.45-1.193-1.38c-.443-.93-.442-1.385-.442-2.295q0-1.275.525-2.325t1.508-1.657q.982-.607 2.317-.607.765 0 1.395.165v-2.805l-1.53-.18V9.89l2.7-.27h.045l.33.24v11.28h.87v.69q-.48.105-.833.165c-.353.06-.482.06-.743.06q-.39 0-.555-.135t-.165-.57v-.48q-.42.51-1.103.855c-.683.345-.948.345-1.478.345q-.898 0-1.648-.45m3.345-.878q.51-.262.765-.607v-5.49q-.12-.18-.563-.323a3 3 0 0 0-.938-.143q-1.17 0-1.868.893-.697.893-.697 2.752 0 1.62.615 2.4t1.59.78a2.35 2.35 0 0 0 1.096-.262m5.79-3.165q1.41-.667 3.57-.712v-.42q0-.705-.15-1.11c-.15-.405-.272-.467-.518-.593q-.367-.188-1.042-.188-.764 0-1.373.218a9 9 0 0 0-1.207.532l-.375-.78q.194-.165.72-.435c.526-.27.755-.34 1.215-.48s.92-.21 1.38-.21q1.065 0 1.688.292.622.292.892.938t.27 1.725v4.815h.885v.66q-.3.075-.757.15-.458.075-.803.075-.42 0-.57-.127t-.15-.563v-.494q-.45.45-1.102.825t-1.478.375q-1.08 0-1.792-.623-.713-.623-.713-1.792 0-1.41 1.41-2.078m2.64 3.233q.51-.24.93-.57v-2.58q-1.635 0-2.467.502t-.833 1.313c0 .811.132.938.397 1.193q.398.382 1.073.382.39 0 .9-.24m5.954.81q-.75-.45-1.193-1.38c-.443-.93-.442-1.385-.442-2.295q0-1.275.525-2.325t1.508-1.657 2.317-.607q.765 0 1.395.165v-2.805l-1.53-.18V9.89l2.7-.27h.045l.33.24v11.28h.87v.69q-.48.105-.833.165c-.353.06-.482.06-.743.06q-.39 0-.555-.135t-.165-.57v-.48q-.42.51-1.103.855c-.683.345-.948.345-1.478.345q-.897 0-1.648-.45m3.345-.878q.51-.262.765-.607v-5.49q-.12-.18-.563-.323a3 3 0 0 0-.938-.143q-1.17 0-1.868.893-.697.893-.697 2.752 0 1.62.615 2.4t1.59.78q.586.001 1.096-.262" fill="#0C3958"/>
</svg>
