<svg xmlns="http://www.w3.org/2000/svg" xmlns:xlink="http://www.w3.org/1999/xlink" width="562.055" height="274.783" viewBox="0 0 562.055 274.783" xml:space="preserve">
  <defs>
    <path id="a" d="M0 0h562.055v274.783H0z"/>
  </defs>
  <clipPath id="b">
    <use xlink:href="#a" overflow="visible"/>
  </clipPath>
  <path clip-path="url(#b)" fill="#0C3958" d="m97.04 178.062-1.413-2.941c-4.565-9.507-8.558-17.152-11.916-23.198h.002l-4.838-8.77c-2.655-4.275-5.545-3.979-8.195-3.979h-.554v-2.901a12.84 12.84 0 0 0 6.963-11.421c0-7.097-5.752-12.848-12.849-12.848-1.644 0-3.218.309-4.663.872a12.8 12.8 0 0 0-3.175 1.801q-.287.17-.572.342c-3.457 2.079-4.796 7.586-5.151 9.329-2.225 10.946-8.615 10.322-8.615 10.322s.967.363 8.463 2.188c3.2.78 6.412 1.045 9.05 1.095v1.222h-3.956v.078c-3.629.38-6.99 2.198-9.225 5.126-4.99 6.542-5.887 15.937-6.03 20.054-.002.056-.017.107-.017.164v.422c-.02.937 0 1.483 0 1.483v16.718c0 2.239 1.68 4.203 3.914 4.361 2.454.173 4.518-1.787 4.518-4.205v-18.779c0-.176-.031-.342-.052-.512.448-9.431 3.965-12.361 3.965-12.361v75.565c0 3.141 2.569 5.708 5.709 5.708s5.709-2.567 5.709-5.708l.081-25.979 1.465.011h1.927v26.258c0 2.731 2.015 5.127 4.733 5.395 3.123.306 5.779-2.167 5.779-5.23v-26.422h12.516c2.072 0 3.366-2.716 2.33-4.889l-12.478-26.184-2.822-7.685c-.158-4.911.213-5.628.213-5.628l11.474 24.83a3.867 3.867 0 0 0 5.145 1.806l.758-.364a3.87 3.87 0 0 0 1.807-5.146"/>
  <defs>
    <path id="c" d="M59.577 112.875a12.8 12.8 0 0 0-3.175 1.801q-.286.17-.572.343c-3.457 2.079-4.796 7.585-5.151 9.328-2.226 10.946-8.615 10.322-8.615 10.322s.968.363 8.463 2.188c3.199.78 6.412 1.045 9.049 1.095v1.223h-3.955v.077c-3.629.381-6.99 2.198-9.224 5.126-4.991 6.542-5.888 15.937-6.031 20.054-.003.056-.017.107-.017.163v.423c-.02.937 0 1.483 0 1.483v16.717c0 2.24 1.68 4.205 3.915 4.362 2.453.173 4.517-1.786 4.517-4.206v-18.779c0-.175-.031-.341-.052-.511.448-9.431 3.965-12.362 3.965-12.362v75.566c0 3.139 2.569 5.708 5.709 5.708s5.708-2.569 5.708-5.708l.082-25.979 1.466.012h1.926v26.257c0 2.731 2.015 5.127 4.733 5.395 3.123.306 5.779-2.167 5.779-5.23V201.32h12.517c2.071 0 3.365-2.717 2.329-4.889l-12.478-26.186-2.822-7.684c-.157-4.91.213-5.628.213-5.628l11.473 24.829a3.87 3.87 0 0 0 5.146 1.808l.758-.365a3.867 3.867 0 0 0 1.807-5.145l-1.412-2.941c-4.566-9.507-8.559-17.153-11.917-23.198h.002l-4.839-8.77c-2.654-4.274-5.544-3.978-8.193-3.978h-.555v-2.903a12.84 12.84 0 0 0 6.963-11.421c0-7.096-5.752-12.848-12.849-12.848-1.644.002-3.217.31-4.663.874"/>
  </defs>
  <clipPath id="d">
    <use xlink:href="#c" overflow="visible"/>
  </clipPath>
  <linearGradient id="e" gradientUnits="userSpaceOnUse" x1="0" y1="274.781" x2="1" y2="274.781" gradientTransform="matrix(0 -122.9849 -122.9849 0 33863.254 234.033)">
    <stop offset="0" style="stop-color:#cee1ac"/>
    <stop offset=".094" style="stop-color:#c6dc99"/>
    <stop offset=".302" style="stop-color:#b6d270"/>
    <stop offset=".503" style="stop-color:#a9ca4e"/>
    <stop offset=".691" style="stop-color:#9ec536"/>
    <stop offset=".862" style="stop-color:#97c226"/>
    <stop offset="1" style="stop-color:#95c11f"/>
  </linearGradient>
  <path clip-path="url(#d)" fill="url(#e)" d="M40.329 112.003h57.629v121.274H40.329z"/>
  <path clip-path="url(#d)" fill="#0C3958" d="M34.647 112.003h68.296v66.572H34.647z"/>
  <path d="M66.011 192.168H61.76l-.333-.576a90 90 0 0 0 1.857-3.797q1.1-2.363 1.972-4.335h.333l1.024.551-3.457 6.659-.512.781 3.368-.18.051-2.497 1.088-.09v2.523l1.806-.09v1.05h-1.806v2.062h-1.14zm5.161 1.395q.909 0 1.665-.371.754-.372 1.191-1.024a2.6 2.6 0 0 0 .435-1.485q0-2.062-1.908-2.062-.423 0-.941.121a5.5 5.5 0 0 0-.902.288l-.346-.243.628-4.609h3.649l.128-.243h.794l-.23 1.318H71.94l-.589 2.983q.346-.179.883-.319a4.2 4.2 0 0 1 1.076-.142q1.23 0 1.934.691.705.693.705 2.011 0 1.012-.583 1.87-.582.857-1.646 1.37-1.062.512-2.42.512-.55 0-.896-.09v-.614a7 7 0 0 0 .768.038" fill="#FFF"/>
  <defs>
    <path id="f" d="M0 0h562.055v274.783H0z"/>
  </defs>
  <clipPath id="g">
    <use xlink:href="#f" overflow="visible"/>
  </clipPath>
  <path clip-path="url(#g)" fill="#0C3958" d="m169.608 178.062-1.412-2.941c-4.566-9.507-8.559-17.152-11.917-23.198h.002l-4.838-8.77c-2.655-4.275-5.545-3.979-8.195-3.979h-.554v-2.901a12.84 12.84 0 0 0 6.963-11.421c0-7.097-5.752-12.848-12.849-12.848-1.644 0-3.217.309-4.663.872a12.8 12.8 0 0 0-3.175 1.801q-.287.17-.572.342c-3.457 2.079-4.796 7.586-5.151 9.329-2.225 10.946-8.615 10.322-8.615 10.322s.967.363 8.463 2.188c3.2.78 6.413 1.045 9.05 1.095v1.222h-3.956v.078c-3.629.38-6.99 2.198-9.225 5.126-4.99 6.542-5.887 15.937-6.03 20.054-.002.056-.017.107-.017.164v.422c-.02.937 0 1.483 0 1.483v16.718c0 2.239 1.68 4.203 3.914 4.361 2.454.173 4.518-1.787 4.518-4.205v-18.779c0-.176-.031-.342-.052-.512.448-9.431 3.965-12.361 3.965-12.361v75.565c0 3.141 2.569 5.708 5.709 5.708s5.709-2.567 5.709-5.708l.081-25.979 1.465.011h1.927v26.258c0 2.731 2.015 5.127 4.733 5.395 3.123.306 5.779-2.167 5.779-5.23v-26.422h12.516c2.072 0 3.366-2.716 2.33-4.889l-12.478-26.184-2.822-7.685c-.158-4.911.213-5.628.213-5.628l11.474 24.83a3.867 3.867 0 0 0 5.145 1.806l.758-.364a3.87 3.87 0 0 0 1.807-5.146"/>
  <defs>
    <path id="h" d="M132.145 112.875a12.8 12.8 0 0 0-3.176 1.801q-.285.17-.571.343c-3.457 2.079-4.796 7.585-5.151 9.328-2.226 10.946-8.615 10.322-8.615 10.322s.968.363 8.463 2.188c3.199.78 6.412 1.045 9.049 1.095v1.223h-3.955v.077c-3.629.381-6.99 2.198-9.224 5.126-4.991 6.542-5.888 15.937-6.031 20.054-.003.056-.017.107-.017.163v.423c-.02.937 0 1.483 0 1.483v16.717c0 2.24 1.68 4.205 3.914 4.362a4.227 4.227 0 0 0 4.518-4.206v-18.779c0-.175-.031-.341-.052-.511.448-9.431 3.965-12.362 3.965-12.362v75.566c0 3.139 2.569 5.708 5.709 5.708s5.708-2.569 5.708-5.708l.081-25.979 1.467.012h1.926v26.257c0 2.731 2.015 5.127 4.733 5.395 3.123.306 5.778-2.167 5.778-5.23V201.32h12.518c2.071 0 3.365-2.717 2.329-4.889l-12.478-26.186-2.822-7.684c-.158-4.91.212-5.628.212-5.628l11.474 24.829a3.87 3.87 0 0 0 5.146 1.808l.757-.365a3.867 3.867 0 0 0 1.808-5.145l-1.412-2.941c-4.566-9.507-8.559-17.153-11.917-23.198h.002l-4.839-8.77c-2.654-4.274-5.545-3.978-8.194-3.978h-.554v-2.903a12.84 12.84 0 0 0 6.962-11.421c0-7.096-5.751-12.848-12.848-12.848-1.644.002-3.217.31-4.663.874"/>
  </defs>
  <clipPath id="i">
    <use xlink:href="#h" overflow="visible"/>
  </clipPath>
  <linearGradient id="j" gradientUnits="userSpaceOnUse" x1="0" y1="274.782" x2="1" y2="274.782" gradientTransform="matrix(0 -122.9849 -122.9849 0 33935.816 234.033)">
    <stop offset="0" style="stop-color:#cee1ac"/>
    <stop offset=".094" style="stop-color:#c6dc99"/>
    <stop offset=".302" style="stop-color:#b6d270"/>
    <stop offset=".503" style="stop-color:#a9ca4e"/>
    <stop offset=".691" style="stop-color:#9ec536"/>
    <stop offset=".862" style="stop-color:#97c226"/>
    <stop offset="1" style="stop-color:#95c11f"/>
  </linearGradient>
  <path clip-path="url(#i)" fill="url(#j)" d="M112.897 112.003h57.629v121.274h-57.629z"/>
  <path clip-path="url(#i)" fill="#0C3958" d="M107.215 112.003h68.296v66.572h-68.296z"/>
  <path d="M138.579 192.168h-4.251l-.333-.576a90 90 0 0 0 1.857-3.797q1.1-2.363 1.972-4.335h.333l1.024.551-3.457 6.659-.512.781 3.368-.18.051-2.497 1.088-.09v2.523l1.806-.09v1.05h-1.806v2.062h-1.14zm5.16 1.395q.909 0 1.665-.371.755-.372 1.191-1.024a2.6 2.6 0 0 0 .435-1.485q0-2.062-1.908-2.062-.423 0-.941.121a5.5 5.5 0 0 0-.902.288l-.346-.243.628-4.609h3.649l.128-.243h.794l-.23 1.318h-3.394l-.589 2.983q.345-.179.883-.319a4.2 4.2 0 0 1 1.076-.142q1.23 0 1.934.691.705.693.705 2.011 0 1.012-.583 1.87-.582.857-1.646 1.37-1.062.512-2.42.512-.55 0-.896-.09v-.614q.356.039.767.038" fill="#FFF"/>
  <defs>
    <path id="k" d="M0 0h562.055v274.783H0z"/>
  </defs>
  <clipPath id="l">
    <use xlink:href="#k" overflow="visible"/>
  </clipPath>
  <path clip-path="url(#l)" fill="#0C3958" d="m297.35 177.688-1.414-2.945c-4.572-9.52-8.57-17.176-11.933-23.229h.002l-4.845-8.782c-2.658-4.28-5.552-3.983-8.205-3.983h-.555v-2.906a12.86 12.86 0 0 0 6.972-11.437c0-7.105-5.76-12.865-12.866-12.865-1.646 0-3.222.31-4.669.874a12.9 12.9 0 0 0-3.18 1.803l-.572.343c-3.462 2.081-4.803 7.596-5.158 9.341-2.228 10.961-8.626 10.336-8.626 10.336s.968.363 8.474 2.191c3.204.78 6.421 1.046 9.061 1.097v1.223h-3.961v.078c-3.633.381-6.999 2.201-9.236 5.133-4.997 6.551-5.895 15.957-6.039 20.08-.002.057-.017.108-.017.164v.423c-.02.938 0 1.485 0 1.485v16.74c0 2.243 1.683 4.21 3.92 4.368 2.457.173 4.523-1.789 4.523-4.211v-18.806c0-.175-.031-.342-.052-.512.449-9.443 3.971-12.379 3.971-12.379v75.668c0 3.144 2.572 5.716 5.716 5.716s5.716-2.572 5.716-5.716l.082-26.016 1.467.012h1.93v26.293c0 2.734 2.017 5.134 4.739 5.401 3.127.307 5.786-2.171 5.786-5.237v-26.457h12.534c2.073 0 3.37-2.72 2.333-4.896l-12.495-26.219-2.826-7.695c-.158-4.917.213-5.635.213-5.635l11.489 24.863a3.873 3.873 0 0 0 5.152 1.809l.759-.365a3.87 3.87 0 0 0 1.81-5.15"/>
  <defs>
    <path id="m" d="M259.836 112.414a12.8 12.8 0 0 0-3.179 1.803l-.572.343c-3.462 2.081-4.803 7.596-5.158 9.342-2.229 10.96-8.626 10.335-8.626 10.335s.968.364 8.473 2.191c3.204.78 6.422 1.046 9.062 1.097v1.223h-3.961v.077c-3.634.382-6.999 2.202-9.236 5.134-4.998 6.55-5.895 15.957-6.039 20.08-.002.056-.017.108-.017.165v.422c-.02.938 0 1.486 0 1.486v16.74c0 2.241 1.683 4.209 3.919 4.366 2.458.174 4.523-1.788 4.523-4.211v-18.804c0-.176-.03-.342-.051-.513.448-9.443 3.97-12.379 3.97-12.379v75.668c0 3.144 2.572 5.716 5.717 5.716s5.716-2.572 5.716-5.716l.082-26.016 1.467.013h1.929v26.292c0 2.734 2.018 5.134 4.74 5.4 3.126.308 5.786-2.17 5.786-5.236v-26.456h12.533c2.075 0 3.371-2.721 2.333-4.896l-12.494-26.22-2.826-7.695c-.158-4.917.213-5.635.213-5.635l11.489 24.862a3.87 3.87 0 0 0 5.152 1.81l.759-.364a3.873 3.873 0 0 0 1.81-5.152l-1.415-2.945c-4.571-9.52-8.569-17.176-11.932-23.228h.002l-4.845-8.783c-2.658-4.28-5.552-3.983-8.205-3.983h-.555v-2.905c4.14-2.138 6.972-6.457 6.972-11.437 0-7.106-5.76-12.866-12.866-12.866a12.9 12.9 0 0 0-4.67.875"/>
  </defs>
  <clipPath id="n">
    <use xlink:href="#m" overflow="visible"/>
  </clipPath>
  <linearGradient id="o" gradientUnits="userSpaceOnUse" x1="0" y1="274.783" x2="1" y2="274.783" gradientTransform="matrix(0 -123.1497 -123.1497 0 34108.848 233.72)">
    <stop offset="0" style="stop-color:#cee1ac"/>
    <stop offset=".094" style="stop-color:#c6dc99"/>
    <stop offset=".302" style="stop-color:#b6d270"/>
    <stop offset=".503" style="stop-color:#a9ca4e"/>
    <stop offset=".691" style="stop-color:#9ec536"/>
    <stop offset=".862" style="stop-color:#97c226"/>
    <stop offset="1" style="stop-color:#95c11f"/>
  </linearGradient>
  <path clip-path="url(#n)" fill="url(#o)" d="M240.563 111.54h57.706v121.438h-57.706z"/>
  <path clip-path="url(#n)" fill="#0C3958" d="M234.507 111.54h63.221v24.231h-63.221z"/>
  <path d="M350.061 222.297q.987-.865 1.571-1.788.583-.923.583-1.744 0-.705-.423-1.122-.424-.416-1.206-.416-.73 0-1.256.288c-.526.288-.676.43-.975.712l-.41-.577q.449-.526 1.282-.955a3.8 3.8 0 0 1 1.782-.43q.897 0 1.513.327t.91.853.295 1.153q0 1.27-1.218 2.609-1.218 1.34-3.052 2.404l3.975-.295.449-1.103.654.128-.334 2.026h-6.116l-.192-.538a13 13 0 0 0 2.168-1.532m6.507 1.052q-.814-1.134-.814-2.93 0-1.257.462-2.199c.462-.942.727-1.109 1.257-1.442q.793-.5 1.743-.5 1.667 0 2.437 1.07c.77 1.07.77 1.69.77 2.93q0 1.245-.442 2.199-.442.957-1.219 1.481a3 3 0 0 1-1.737.525q-1.642 0-2.457-1.134m4.417-2.943q0-1.667-.43-2.564c-.43-.897-.767-.897-1.442-.897q-.988 0-1.462.853c-.474.853-.474 1.383-.474 2.442q0 1.629.455 2.609.455.981 1.442.981 1.912 0 1.911-3.424" fill="#A2C617"/>
  <path d="M260.592 171.828q.494-.647 1.481-1.083-.757-.488-1.167-1.032c-.41-.544-.41-.818-.41-1.365q0-.757.404-1.302t1.071-.827a3.65 3.65 0 0 1 1.436-.282q1.244 0 2 .577t.756 1.539q0 .73-.442 1.353c-.442.623-.72.775-1.276 1.083q1.026.577 1.59 1.167t.564 1.462q0 .782-.455 1.365-.456.584-1.212.904c-.756.32-1.051.32-1.641.32q-.821 0-1.545-.256c-.724-.256-.878-.442-1.186-.814q-.462-.558-.461-1.404 0-.756.493-1.405m4.379.744a2.6 2.6 0 0 0-.673-.609 14 14 0 0 0-1.109-.615q-.36-.18-.539-.282a2.7 2.7 0 0 0-.975.821 1.84 1.84 0 0 0-.372 1.103q0 .95.558 1.507t1.52.558q.461 0 .891-.205a1.8 1.8 0 0 0 .699-.59q.269-.385.269-.872 0-.463-.269-.816m-3.013-3.699q.281.358.692.615t1.18.667q.577-.308.91-.782c.333-.474.333-.658.333-1.025q0-.846-.461-1.327-.462-.481-1.244-.481-.705 0-1.199.41-.494.411-.494 1.104.001.46.283.819m7.033 5.687q-.814-1.134-.814-2.93 0-1.257.462-2.199t1.256-1.442q.795-.5 1.744-.5 1.666 0 2.437 1.07t.769 2.93q0 1.245-.442 2.199-.443.957-1.218 1.481a3 3 0 0 1-1.737.525q-1.643 0-2.457-1.134m4.417-2.943q0-1.667-.429-2.564-.43-.898-1.443-.897-.988 0-1.461.853t-.475 2.442q0 1.629.455 2.609c.455.98.784.981 1.443.981q1.91 0 1.91-3.424" fill="#FFF"/>
  <defs>
    <path id="p" d="M0 0h562.055v274.783H0z"/>
  </defs>
  <clipPath id="q">
    <use xlink:href="#p" overflow="visible"/>
  </clipPath>
  <path clip-path="url(#q)" fill="#0C3958" d="m365.109 177.649-1.414-2.944c-4.572-9.521-8.57-17.177-11.934-23.229h.002l-4.845-8.782c-2.658-4.279-5.552-3.982-8.205-3.982h-.555v-2.906a12.86 12.86 0 0 0 6.972-11.437c0-7.105-5.76-12.865-12.866-12.865-1.646 0-3.222.31-4.669.874a12.9 12.9 0 0 0-3.18 1.803l-.572.343c-3.462 2.081-4.803 7.596-5.158 9.341-2.228 10.961-8.626 10.336-8.626 10.336s.969.363 8.475 2.191c3.204.78 6.421 1.046 9.061 1.097v1.223h-3.961v.078c-3.633.381-6.999 2.2-9.236 5.133-4.997 6.55-5.895 15.957-6.038 20.08-.003.056-.018.107-.018.164v.423c-.02.938 0 1.484 0 1.484v16.74c0 2.243 1.683 4.21 3.92 4.368 2.457.173 4.523-1.789 4.523-4.211v-18.805c0-.176-.031-.343-.053-.513.449-9.442 3.972-12.379 3.972-12.379v75.668c0 3.145 2.571 5.717 5.716 5.717s5.716-2.572 5.716-5.717l.082-26.015 1.467.011h1.931v26.293c0 2.735 2.017 5.134 4.738 5.402 3.127.306 5.786-2.171 5.786-5.238v-26.457h12.534c2.074 0 3.37-2.719 2.333-4.895l-12.495-26.22-2.826-7.694c-.157-4.917.213-5.635.213-5.635l11.489 24.862a3.874 3.874 0 0 0 5.153 1.81l.758-.365a3.87 3.87 0 0 0 1.81-5.152"/>
  <defs>
    <path id="r" d="M327.595 112.376a12.9 12.9 0 0 0-3.179 1.804q-.287.17-.573.343c-3.461 2.081-4.802 7.595-5.157 9.341-2.229 10.96-8.626 10.335-8.626 10.335s.969.364 8.474 2.191c3.204.781 6.422 1.047 9.062 1.097v1.223h-3.961v.079c-3.634.38-6.999 2.2-9.236 5.133-4.997 6.55-5.895 15.956-6.038 20.08-.003.056-.018.107-.018.164v.423c-.02.938 0 1.485 0 1.485v16.74c0 2.243 1.684 4.209 3.919 4.367a4.233 4.233 0 0 0 4.524-4.212v-18.804c0-.176-.031-.342-.052-.512.448-9.444 3.97-12.379 3.97-12.379v75.668c0 3.143 2.572 5.716 5.717 5.716s5.716-2.573 5.716-5.716l.082-26.017 1.467.013h1.931v26.293c0 2.733 2.017 5.133 4.738 5.4 3.127.307 5.786-2.17 5.786-5.237v-26.456h12.533c2.075 0 3.371-2.721 2.333-4.896l-12.494-26.22-2.827-7.695c-.156-4.917.215-5.635.215-5.635l11.488 24.863a3.874 3.874 0 0 0 5.153 1.81l.758-.365a3.87 3.87 0 0 0 1.81-5.151l-1.414-2.945c-4.572-9.52-8.569-17.177-11.934-23.229h.002l-4.844-8.782c-2.658-4.281-5.552-3.984-8.205-3.984h-.555v-2.905a12.86 12.86 0 0 0 6.972-11.437c0-7.106-5.76-12.866-12.865-12.866a12.9 12.9 0 0 0-4.672.875"/>
  </defs>
  <clipPath id="s">
    <use xlink:href="#r" overflow="visible"/>
  </clipPath>
  <linearGradient id="t" gradientUnits="userSpaceOnUse" x1="0" y1="274.783" x2="1" y2="274.783" gradientTransform="matrix(0 -123.1497 -123.1497 0 34176.598 233.658)">
    <stop offset="0" style="stop-color:#cee1ac"/>
    <stop offset=".094" style="stop-color:#c6dc99"/>
    <stop offset=".302" style="stop-color:#b6d270"/>
    <stop offset=".503" style="stop-color:#a9ca4e"/>
    <stop offset=".691" style="stop-color:#9ec536"/>
    <stop offset=".862" style="stop-color:#97c226"/>
    <stop offset="1" style="stop-color:#95c11f"/>
  </linearGradient>
  <path clip-path="url(#s)" fill="url(#t)" d="M308.322 111.502h57.706v121.437h-57.706z"/>
  <path clip-path="url(#s)" fill="#0C3958" d="M301.89 111.502h63.222v96.925H301.89z"/>
  <defs>
    <path id="u" d="M0 0h562.055v274.783H0z"/>
  </defs>
  <clipPath id="v">
    <use xlink:href="#u" overflow="visible"/>
  </clipPath>
  <path clip-path="url(#v)" fill="#0C3958" d="m536.461 175.442-1.414-2.945c-4.571-9.52-8.569-17.176-11.933-23.229h.002l-4.845-8.782c-2.658-4.28-5.553-3.983-8.205-3.983h-.556v-2.906a12.86 12.86 0 0 0 6.973-11.437c0-7.105-5.76-12.865-12.866-12.865-1.646 0-3.222.31-4.669.874a12.9 12.9 0 0 0-3.18 1.803q-.287.17-.572.343c-3.462 2.081-4.803 7.596-5.158 9.341-2.228 10.961-8.626 10.336-8.626 10.336s.968.363 8.474 2.191c3.204.78 6.422 1.046 9.062 1.097v1.223h-3.961v.078c-3.633.381-6.999 2.201-9.236 5.133-4.997 6.55-5.895 15.957-6.039 20.079-.002.057-.017.108-.017.164v.424c-.021.938 0 1.484 0 1.484v16.74c0 2.243 1.683 4.21 3.92 4.368 2.457.173 4.522-1.789 4.522-4.211v-18.806c0-.175-.03-.342-.052-.512.449-9.443 3.972-12.379 3.972-12.379v75.668c0 3.145 2.571 5.716 5.716 5.716s5.716-2.571 5.716-5.716l.082-26.015 1.467.011h1.93v26.293c0 2.735 2.018 5.134 4.739 5.402 3.127.306 5.786-2.17 5.786-5.238v-26.457h12.534c2.074 0 3.37-2.719 2.333-4.896l-12.495-26.219-2.826-7.694c-.158-4.917.213-5.636.213-5.636l11.489 24.863a3.874 3.874 0 0 0 5.153 1.809l.758-.364a3.87 3.87 0 0 0 1.809-5.15"/>
  <defs>
    <path id="w" d="M498.948 110.168a12.9 12.9 0 0 0-3.18 1.804l-.572.343c-3.461 2.082-4.803 7.596-5.158 9.342-2.229 10.96-8.626 10.335-8.626 10.335s.968.363 8.474 2.191c3.204.781 6.421 1.046 9.062 1.096v1.224h-3.96v.078c-3.635.381-7 2.201-9.237 5.133-4.997 6.552-5.895 15.957-6.039 20.08-.002.057-.017.108-.017.164v.423c-.02.938 0 1.486 0 1.486v16.739c0 2.243 1.683 4.21 3.92 4.368 2.457.173 4.522-1.789 4.522-4.211v-18.806c0-.175-.029-.342-.052-.511.449-9.444 3.971-12.38 3.971-12.38v75.668c0 3.144 2.572 5.716 5.717 5.716s5.717-2.572 5.717-5.716l.081-26.016 1.468.012h1.929v26.294c0 2.733 2.018 5.133 4.739 5.4 3.127.307 5.787-2.17 5.787-5.236V198.73h12.533c2.073 0 3.37-2.72 2.333-4.896l-12.495-26.219-2.826-7.695c-.157-4.916.214-5.635.214-5.635l11.489 24.863a3.87 3.87 0 0 0 5.151 1.809l.759-.365a3.87 3.87 0 0 0 1.81-5.151l-1.415-2.945c-4.571-9.52-8.569-17.176-11.932-23.229h.002l-4.845-8.781c-2.657-4.281-5.553-3.984-8.205-3.984h-.555v-2.906a12.86 12.86 0 0 0 6.972-11.436c0-7.106-5.761-12.866-12.866-12.866a12.9 12.9 0 0 0-4.67.874"/>
  </defs>
  <clipPath id="x">
    <use xlink:href="#w" overflow="visible"/>
  </clipPath>
  <linearGradient id="y" gradientUnits="userSpaceOnUse" x1="0" y1="274.783" x2="1" y2="274.783" gradientTransform="matrix(0 -123.1497 -123.1497 0 34347.973 231.47)">
    <stop offset="0" style="stop-color:#cee1ac"/>
    <stop offset=".094" style="stop-color:#c6dc99"/>
    <stop offset=".302" style="stop-color:#b6d270"/>
    <stop offset=".503" style="stop-color:#a9ca4e"/>
    <stop offset=".691" style="stop-color:#9ec536"/>
    <stop offset=".862" style="stop-color:#97c226"/>
    <stop offset="1" style="stop-color:#95c11f"/>
  </linearGradient>
  <path clip-path="url(#x)" fill="url(#y)" d="M479.675 109.295h57.705v121.437h-57.705z"/>
  <path clip-path="url(#x)" fill="#0C3958" d="M473.619 109.295h63.221v24.231h-63.221z"/>
  <path d="M499.708 169.585q.493-.647 1.481-1.083-.757-.488-1.167-1.032t-.411-1.365q0-.757.404-1.302c.404-.545.626-.639 1.07-.827a3.7 3.7 0 0 1 1.437-.282q1.244 0 2 .577.757.577.757 1.539 0 .73-.442 1.353c-.442.623-.721.775-1.275 1.083q1.025.577 1.59 1.167.563.59.563 1.462 0 .782-.455 1.365-.455.584-1.211.904a4.2 4.2 0 0 1-1.642.32 4.6 4.6 0 0 1-1.545-.256q-.725-.256-1.187-.814c-.462-.558-.462-.84-.462-1.404q.002-.757.495-1.405m4.379.744a2.6 2.6 0 0 0-.673-.609q-.405-.256-1.109-.615a12 12 0 0 1-.539-.282q-.602.308-.975.821c-.373.513-.371.709-.371 1.103q0 .95.558 1.507t1.52.558q.461 0 .891-.205c.43-.205.52-.334.699-.59q.27-.385.27-.872a1.32 1.32 0 0 0-.271-.816m-3.014-3.699q.282.358.692.615c.41.257.667.394 1.18.667q.577-.308.911-.782.333-.474.333-1.025 0-.846-.462-1.327-.463-.481-1.243-.481-.706 0-1.199.41-.494.411-.494 1.104 0 .46.282.819m7.033 5.686q-.814-1.134-.814-2.93 0-1.257.462-2.199c.462-.942.727-1.109 1.257-1.442q.793-.5 1.743-.5 1.667 0 2.437 1.07c.77 1.07.77 1.69.77 2.93q0 1.245-.442 2.199-.442.957-1.219 1.481a3 3 0 0 1-1.737.525q-1.643.001-2.457-1.134m4.417-2.942q0-1.667-.43-2.564c-.43-.897-.767-.897-1.442-.897q-.988 0-1.462.853c-.474.853-.474 1.383-.474 2.442q0 1.629.455 2.609.455.981 1.442.981 1.912 0 1.911-3.424" fill="#FFF"/>
  <path d="M455.656 220.093q.987-.865 1.571-1.788.583-.923.583-1.744 0-.705-.423-1.122-.424-.416-1.206-.416-.73 0-1.256.288c-.526.288-.676.43-.975.712l-.41-.577q.449-.526 1.282-.955a3.8 3.8 0 0 1 1.782-.43q.898 0 1.513.327t.91.853.295 1.153q0 1.27-1.218 2.609-1.219 1.34-3.052 2.404l3.975-.295.449-1.103.654.128-.334 2.026h-6.116l-.192-.538q1.18-.666 2.168-1.532m6.508 1.052q-.814-1.134-.814-2.93 0-1.257.462-2.199c.462-.942.727-1.109 1.257-1.442q.793-.5 1.743-.5 1.667 0 2.437 1.07c.77 1.07.77 1.69.77 2.93q0 1.245-.442 2.199-.442.956-1.219 1.481a3 3 0 0 1-1.737.525q-1.643 0-2.457-1.134m4.417-2.943q0-1.667-.43-2.564c-.43-.897-.767-.897-1.442-.897q-.988 0-1.462.853c-.474.853-.474 1.383-.474 2.442q0 1.629.455 2.609.455.981 1.442.981 1.911 0 1.911-3.424" fill="#A2C617"/>
  <defs>
    <path id="z" d="M0 0h562.055v274.783H0z"/>
  </defs>
  <clipPath id="A">
    <use xlink:href="#z" overflow="visible"/>
  </clipPath>
  <path clip-path="url(#A)" fill="#0C3958" d="m470.702 175.442-1.414-2.945c-4.572-9.52-8.57-17.176-11.934-23.229h.002l-4.845-8.782c-2.658-4.28-5.552-3.983-8.205-3.983h-.555v-2.906a12.86 12.86 0 0 0 6.972-11.437c0-7.105-5.76-12.865-12.866-12.865-1.646 0-3.222.31-4.669.874a12.9 12.9 0 0 0-3.18 1.803l-.572.343c-3.462 2.081-4.803 7.596-5.157 9.341-2.229 10.961-8.626 10.336-8.626 10.336s.968.363 8.474 2.191c3.204.78 6.421 1.046 9.061 1.097v1.223h-3.961v.078c-3.633.381-6.999 2.201-9.235 5.133-4.997 6.55-5.896 15.957-6.039 20.079-.002.057-.018.108-.018.164v.424c-.019.938 0 1.484 0 1.484v16.74c0 2.243 1.684 4.21 3.92 4.368 2.457.173 4.523-1.789 4.523-4.211v-18.806c0-.175-.031-.342-.052-.512.449-9.443 3.971-12.379 3.971-12.379v75.668c0 3.145 2.572 5.716 5.716 5.716s5.716-2.571 5.716-5.716l.082-26.015 1.468.011h1.93v26.293c0 2.735 2.017 5.134 4.739 5.402 3.127.306 5.785-2.17 5.785-5.238v-26.457h12.534c2.074 0 3.37-2.719 2.333-4.896l-12.495-26.219-2.825-7.694c-.158-4.917.213-5.636.213-5.636l11.488 24.863a3.874 3.874 0 0 0 5.153 1.809l.758-.364a3.87 3.87 0 0 0 1.81-5.15"/>
  <defs>
    <path id="B" d="M433.189 110.168a12.9 12.9 0 0 0-3.181 1.804l-.571.343c-3.463 2.082-4.804 7.596-5.158 9.342-2.229 10.96-8.627 10.335-8.627 10.335s.969.363 8.475 2.191c3.204.781 6.42 1.046 9.061 1.096v1.224h-3.961v.078c-3.633.381-6.999 2.201-9.236 5.133-4.996 6.552-5.896 15.957-6.039 20.08-.001.057-.018.108-.018.164v.423c-.019.938 0 1.486 0 1.486v16.739c0 2.243 1.684 4.21 3.922 4.368 2.457.173 4.522-1.789 4.522-4.211v-18.806c0-.175-.03-.342-.052-.511.449-9.444 3.971-12.38 3.971-12.38v75.668c0 3.144 2.572 5.716 5.716 5.716s5.716-2.572 5.716-5.716l.081-26.016 1.469.012h1.93v26.294c0 2.733 2.017 5.133 4.738 5.4 3.128.307 5.787-2.17 5.787-5.236V198.73h12.533c2.073 0 3.369-2.72 2.333-4.896l-12.494-26.219-2.826-7.695c-.158-4.916.213-5.635.213-5.635l11.49 24.863a3.87 3.87 0 0 0 5.151 1.809l.758-.365a3.87 3.87 0 0 0 1.811-5.151l-1.414-2.945c-4.572-9.52-8.571-17.176-11.933-23.229h.002l-4.846-8.781c-2.658-4.281-5.552-3.984-8.205-3.984h-.555v-2.906a12.86 12.86 0 0 0 6.972-11.436c0-7.106-5.76-12.866-12.865-12.866a12.9 12.9 0 0 0-4.67.874"/>
  </defs>
  <clipPath id="C">
    <use xlink:href="#B" overflow="visible"/>
  </clipPath>
  <linearGradient id="D" gradientUnits="userSpaceOnUse" x1="0" y1="274.783" x2="1" y2="274.783" gradientTransform="matrix(0 -123.1497 -123.1497 0 34282.16 231.47)">
    <stop offset="0" style="stop-color:#cee1ac"/>
    <stop offset=".094" style="stop-color:#c6dc99"/>
    <stop offset=".302" style="stop-color:#b6d270"/>
    <stop offset=".503" style="stop-color:#a9ca4e"/>
    <stop offset=".691" style="stop-color:#9ec536"/>
    <stop offset=".862" style="stop-color:#97c226"/>
    <stop offset="1" style="stop-color:#95c11f"/>
  </linearGradient>
  <path clip-path="url(#C)" fill="url(#D)" d="M413.915 109.295h57.706v121.437h-57.706z"/>
  <path clip-path="url(#C)" fill="#0C3958" d="M407.483 109.295h63.221v96.924h-63.221z"/>
  <path d="M55.978 241.276h1.32l2.916 8.28.744.12v.588H57.79v-.588l.996-.12-.564-1.776h-3.504l-.564 1.776 1.032.12v.588h-2.844v-.588l.744-.12zm.755 1.92-.3-1.056-.288 1.08-1.212 3.852h3.06zm4.044-2.531 1.92-.229h.024l.276.18v3.612q.36-.347.858-.576a2.65 2.65 0 0 1 1.11-.228q.72 0 1.314.348.594.349.948 1.08t.354 1.848q0 1.033-.426 1.872a3.3 3.3 0 0 1-1.218 1.332q-.792.492-1.836.492a6.6 6.6 0 0 1-1.512-.162q-.684-.161-.828-.294v-8.64l-.984-.132zm2.85 3.821q-.39.211-.63.475v4.416q.072.168.414.27t.774.103q.924 0 1.488-.744c.564-.744.564-1.22.564-2.172q0-1.284-.492-1.92-.492-.637-1.272-.637a1.76 1.76 0 0 0-.846.209m5.736 4.962q-.762-.948-.762-2.531 0-1.045.396-1.836.396-.793 1.11-1.225c.714-.432 1.018-.432 1.626-.432q1.116 0 1.734.618c.618.618.63 1.002.654 1.77q0 .732-.084 1.116H69.91q.024 1.188.552 1.914c.528.726.852.726 1.5.726q.48 0 1.002-.174c.522-.174.618-.254.81-.414l.228.528q-.348.36-1.032.624t-1.392.264q-1.453 0-2.215-.948m3.438-3.155q.036-.252.036-.517-.012-.78-.33-1.229c-.318-.449-.546-.45-1.002-.45q-.696 0-1.11.504c-.414.504-.434.9-.474 1.692zm3.228-4.98-.972-.132v-.516l1.932-.229h.024l.264.18v8.965l1.02.096v.588h-3.24v-.588l.972-.108zm51 .78-.984-.145v-.6h1.62q.408 0 1.032-.048.576-.048.852-.048 1.656 0 2.37.516c.714.516.714.849.714 1.512q0 .852-.492 1.465-.492.611-1.344.768 1.152-.024 1.812.54c.66.564.66.888.66 1.536q0 1.212-.858 1.979-.858.77-2.838.769-.432 0-.828-.036a48 48 0 0 0-1.116-.036h-1.596v-.588l.996-.12zm1.956 3.204h.66q.84 0 1.272-.468.432-.47.432-1.332 0-.842-.432-1.23c-.432-.388-.78-.39-1.476-.39q-.432 0-.888.048l-.252.023v3.336q.17.013.684.013m.564 4.391q1.212 0 1.758-.498t.546-1.434q0-.924-.474-1.344t-1.53-.421q-1.224 0-1.548.024v3.576q.276.098 1.248.097m5.43-.24q-.762-.948-.762-2.531 0-1.045.396-1.836.396-.793 1.11-1.225c.714-.432 1.018-.432 1.626-.432q1.116 0 1.734.618c.618.618.63 1.002.654 1.77q0 .732-.084 1.116h-4.128q.024 1.188.552 1.914c.528.726.852.726 1.5.726q.48 0 1.002-.174c.522-.174.618-.254.81-.414l.228.528q-.348.36-1.032.624t-1.392.264q-1.452 0-2.214-.948m3.438-3.155q.036-.252.036-.517-.012-.78-.33-1.229c-.318-.449-.546-.45-1.002-.45q-.696 0-1.11.504c-.414.504-.434.9-.474 1.692zm3.384 3.779q-.336-.311-.336-1.067v-4.608h-.864v-.54q.06-.012.336-.084c.276-.072.308-.092.372-.132q.192-.108.3-.432.096-.228.228-.732l.156-.6h.708l.024 1.728h2.004v.792h-2.004v3.685q0 .683.042.96t.18.359q.138.085.474.084.324 0 .714-.084.39-.083.606-.18l.18.54q-.288.216-.93.42a3.9 3.9 0 0 1-1.17.204q-.683 0-1.02-.313m4.5-8.759-1.008-.132v-.516l1.956-.229h.024l.264.18v2.784l-.048 1.021q.384-.348 1.056-.66t1.356-.313q.756 0 1.176.288t.588.882.168 1.603v3.348l.84.108v.588h-2.868v-.588l.78-.108v-3.359q0-.709-.096-1.11t-.36-.6-.792-.198q-.432 0-.924.216a4.2 4.2 0 0 0-.864.504v4.548l.828.108v.588h-2.796v-.588l.72-.096zm111.733.06h1.32l2.916 8.28.744.12v.588h-3.168v-.588l.996-.12-.564-1.776h-3.504l-.564 1.776 1.032.12v.588h-2.844v-.588l.744-.12zm.756 1.92-.3-1.056-.288 1.08-1.212 3.852h3.06zm4.043-2.531 1.92-.229h.024l.276.18v3.612q.36-.347.858-.576a2.65 2.65 0 0 1 1.11-.228q.72 0 1.314.348.594.349.948 1.08t.354 1.848q0 1.033-.426 1.872a3.3 3.3 0 0 1-1.218 1.332q-.792.492-1.836.492a6.6 6.6 0 0 1-1.512-.162q-.684-.161-.828-.294v-8.64l-.984-.132zm2.851 3.821q-.39.211-.63.475v4.416q.072.168.414.27t.774.103q.924 0 1.488-.744c.564-.744.564-1.22.564-2.172q0-1.284-.492-1.92-.492-.637-1.272-.637a1.74 1.74 0 0 0-.846.209m5.735 4.962q-.762-.948-.762-2.531 0-1.045.396-1.836.396-.793 1.11-1.225c.714-.432 1.018-.432 1.626-.432q1.116 0 1.734.618c.618.618.63 1.002.654 1.77q0 .732-.084 1.116h-4.128q.024 1.188.552 1.914c.528.726.852.726 1.5.726q.48 0 1.002-.174c.522-.174.618-.254.81-.414l.228.528q-.348.36-1.032.624t-1.392.264q-1.45 0-2.214-.948m3.438-3.155q.036-.252.036-.517-.012-.78-.33-1.229c-.318-.449-.546-.45-1.002-.45q-.696 0-1.11.504c-.414.504-.434.9-.474 1.692zm3.228-4.981-.972-.132v-.516l1.932-.229h.024l.264.18v8.965l1.02.096v.588h-3.24v-.588l.972-.108zm43.669.78-.983-.145v-.6h1.619q.408 0 1.032-.048.576-.048.853-.048 1.656 0 2.37.516.714.517.714 1.512 0 .852-.492 1.465-.492.611-1.344.768 1.151-.024 1.812.54c.661.564.66.888.66 1.536q0 1.212-.858 1.979-.857.77-2.838.769a10 10 0 0 1-.828-.036 48 48 0 0 0-1.115-.036h-1.597v-.588l.996-.12v-7.464zm1.956 3.205h.66q.84 0 1.271-.468.432-.47.433-1.332 0-.842-.433-1.23-.43-.39-1.476-.39-.432 0-.888.048l-.252.023v3.336q.17.013.685.013m.564 4.391q1.212 0 1.758-.498.545-.498.546-1.434 0-.924-.474-1.344t-1.53-.421q-1.224 0-1.548.024v3.576q.276.098 1.248.097m5.43-.24q-.763-.948-.763-2.531 0-1.045.396-1.836a2.9 2.9 0 0 1 1.11-1.225 3.1 3.1 0 0 1 1.626-.432q1.115 0 1.733.618c.618.618.63 1.002.654 1.77q0 .732-.084 1.116h-4.128q.023 1.188.552 1.914.528.726 1.5.726.48 0 1.002-.174c.522-.174.618-.254.811-.414l.228.528q-.348.36-1.032.624c-.684.264-.92.264-1.392.264q-1.45 0-2.213-.948m3.438-3.155q.036-.252.036-.517-.012-.78-.33-1.229c-.318-.449-.546-.45-1.002-.45q-.696 0-1.11.504-.413.504-.474 1.692zm3.384 3.779q-.337-.311-.336-1.067v-4.608h-.864v-.54q.06-.012.336-.084t.372-.132q.192-.108.3-.432.096-.228.229-.732.132-.504.155-.6h.708l.024 1.728h2.004v.792h-2.004v3.685q0 .683.042.96t.18.359q.138.085.475.084.323 0 .714-.084.39-.083.605-.18l.181.54q-.288.216-.931.42c-.643.204-.817.204-1.17.204q-.684-.001-1.02-.313m4.5-8.76-1.009-.132v-.516l1.956-.229h.024l.264.18v2.784l-.048 1.021q.383-.348 1.056-.66c.673-.312.9-.313 1.356-.313q.756 0 1.176.288t.588.882.168 1.603v3.348l.84.108v.588h-2.867v-.588l.779-.108v-3.359q0-.709-.096-1.11-.097-.402-.36-.6-.263-.199-.792-.198-.432 0-.924.216a4.2 4.2 0 0 0-.864.504v4.548l.828.108v.588h-2.796v-.588l.721-.096zm91.296-.036h1.319l2.916 8.28.744.12v.588h-3.168v-.588l.996-.12-.564-1.776h-3.504l-.563 1.776 1.032.12v.588h-2.845v-.588l.744-.12zm.756 1.92-.301-1.056-.287 1.08-1.213 3.852h3.061zm4.043-2.531 1.921-.229h.023l.276.18v3.612q.359-.347.857-.576a2.65 2.65 0 0 1 1.11-.228q.72 0 1.313.348.594.349.948 1.08t.354 1.848q0 1.033-.427 1.872a3.26 3.26 0 0 1-1.218 1.332q-.791.492-1.836.492a6.6 6.6 0 0 1-1.512-.162q-.684-.161-.828-.294v-8.64l-.984-.132v-.503zm2.851 3.821q-.39.211-.63.475v4.416q.072.168.414.27t.773.103q.924 0 1.488-.744c.564-.744.563-1.22.563-2.172q0-1.284-.491-1.92-.492-.637-1.272-.637a1.74 1.74 0 0 0-.845.209m5.736 4.962q-.763-.948-.763-2.531 0-1.045.396-1.836a2.9 2.9 0 0 1 1.11-1.225 3.1 3.1 0 0 1 1.626-.432q1.115 0 1.733.618c.618.618.63 1.002.654 1.77q0 .732-.084 1.116h-4.128q.023 1.188.552 1.914.528.726 1.5.726.48 0 1.002-.174c.522-.174.618-.254.811-.414l.228.528q-.348.36-1.032.624c-.684.264-.92.264-1.392.264q-1.45 0-2.213-.948m3.438-3.155q.036-.252.036-.517-.012-.78-.33-1.229c-.318-.449-.546-.45-1.002-.45q-.696 0-1.11.504-.413.504-.474 1.692zm3.227-4.981-.972-.132v-.516l1.932-.229h.024l.264.18v8.965l1.02.096v.588h-3.239v-.588l.972-.108v-8.256zm43.668.78-.983-.145v-.6h1.619q.408 0 1.032-.048.576-.048.853-.048 1.656 0 2.37.516.714.517.714 1.512 0 .852-.492 1.465-.492.611-1.344.768 1.151-.024 1.812.54c.661.564.66.888.66 1.536q0 1.212-.858 1.979-.857.77-2.838.769a10 10 0 0 1-.828-.036 48 48 0 0 0-1.115-.036h-1.597v-.588l.996-.12v-7.464zm1.956 3.205h.66q.84 0 1.271-.468.432-.47.433-1.332 0-.842-.433-1.23-.43-.39-1.476-.39-.432 0-.888.048l-.252.023v3.336q.17.013.685.013m.565 4.391q1.212 0 1.758-.498.545-.498.546-1.434 0-.924-.474-1.344t-1.53-.421q-1.224 0-1.548.024v3.576q.274.098 1.248.097m5.429-.24q-.763-.948-.763-2.531 0-1.045.396-1.836a2.9 2.9 0 0 1 1.11-1.225 3.1 3.1 0 0 1 1.626-.432q1.115 0 1.733.618c.618.618.63 1.002.654 1.77q0 .732-.084 1.116h-4.128q.023 1.188.552 1.914.528.726 1.5.726.48 0 1.002-.174c.522-.174.618-.254.811-.414l.228.528q-.348.36-1.032.624c-.684.264-.92.264-1.392.264q-1.45 0-2.213-.948m3.438-3.155q.036-.252.036-.517-.012-.78-.33-1.229c-.318-.449-.546-.45-1.002-.45q-.696 0-1.11.504-.413.504-.474 1.692zm3.384 3.779q-.337-.311-.336-1.067v-4.608h-.864v-.54q.06-.012.336-.084t.372-.132q.192-.108.3-.432.096-.228.229-.732.132-.504.155-.6h.708l.024 1.728h2.004v.792h-2.004v3.685q0 .683.042.96t.18.359q.138.085.475.084.323 0 .714-.084.39-.083.605-.18l.181.54q-.289.216-.931.42c-.642.204-.817.204-1.17.204q-.684-.001-1.02-.313m4.5-8.76-1.009-.132v-.516l1.956-.229h.024l.264.18v2.784l-.048 1.021q.383-.348 1.056-.66c.673-.312.9-.313 1.356-.313q.756 0 1.176.288t.588.882.168 1.603v3.348l.84.108v.588h-2.867v-.588l.779-.108v-3.359q0-.709-.096-1.11-.097-.402-.36-.6-.263-.199-.792-.198-.432 0-.924.216a4.2 4.2 0 0 0-.864.504v4.548l.828.108v.588h-2.796v-.588l.721-.096z" fill="#0C3958"/>
  <path d="M85.371 53.803a10 10 0 0 1-1.056.304q-.72.177-1.168.24l-.16-.896a7.4 7.4 0 0 0 1.672-.592 6.6 6.6 0 0 0 1.432-.912h.016l.976.16v9.024l1.984.144v.784h-5.76v-.784l2.064-.144zm6.04 6.984q-1.016-1.416-1.016-3.656 0-1.568.576-2.744t1.568-1.8a4 4 0 0 1 2.176-.624q2.08 0 3.04 1.336c.96 1.336.96 2.109.96 3.656q0 1.553-.552 2.744t-1.52 1.848a3.77 3.77 0 0 1-2.168.656q-2.048 0-3.064-1.416m5.512-3.672q0-2.08-.536-3.2c-.536-1.12-.958-1.12-1.8-1.12q-1.233 0-1.824 1.064-.592 1.064-.592 3.048 0 2.031.568 3.256t1.8 1.224q2.384 0 2.384-4.272m4.776 3.672q-1.016-1.416-1.016-3.656 0-1.568.576-2.744t1.568-1.8a4 4 0 0 1 2.176-.624q2.08 0 3.04 1.336c.96 1.336.96 2.109.96 3.656q0 1.553-.552 2.744t-1.52 1.848a3.77 3.77 0 0 1-2.168.656q-2.049 0-3.064-1.416m5.512-3.672q0-2.08-.536-3.2c-.536-1.12-.958-1.12-1.8-1.12q-1.233 0-1.824 1.064-.592 1.064-.592 3.048 0 2.031.568 3.256t1.8 1.224q2.384 0 2.384-4.272m4.959-.633q-.657-.44-1-1.176c-.343-.736-.344-1.035-.344-1.632q0-1.056.424-1.824c.424-.768.664-.901 1.144-1.168s1.002-.4 1.568-.4q1.456 0 2.16.912t.704 2.384q0 1.04-.432 1.8t-1.144 1.152c-.712.392-.995.392-1.56.392q-.863 0-1.52-.44m2.785-1.047q.4-.656.4-1.792 0-1.12-.376-1.816-.377-.696-1.112-.696-.752 0-1.152.656c-.4.656-.4 1.04-.4 1.808q0 1.04.384 1.768t1.104.728q.752 0 1.152-.656m5.248-5.393h1.216l-5.12 12.016h-1.216zm.823 11.257a2.83 2.83 0 0 1-.992-1.184 3.9 3.9 0 0 1-.344-1.64q0-1.04.424-1.808.423-.768 1.144-1.176c.721-.408 1.003-.408 1.568-.408q1.424 0 2.136.92.712.921.712 2.376 0 1.04-.432 1.8a3 3 0 0 1-1.144 1.16 3.13 3.13 0 0 1-1.56.4q-.864 0-1.512-.44m2.777-1.065q.416-.655.416-1.792 0-1.12-.376-1.816-.375-.696-1.112-.696-.752 0-1.16.664-.408.663-.408 1.8 0 1.056.384 1.776t1.088.72q.751.001 1.168-.656m338.832 4.017q1.136 0 2.08-.464a3.7 3.7 0 0 0 1.488-1.28 3.3 3.3 0 0 0 .544-1.856q0-2.576-2.384-2.576a5.2 5.2 0 0 0-1.177.152 6.6 6.6 0 0 0-1.128.36l-.432-.304.784-5.76h4.56l.16-.304h.992l-.288 1.648h-4.24l-.735 3.728a5.4 5.4 0 0 1 1.104-.4 5.3 5.3 0 0 1 1.344-.176q1.536 0 2.416.864c.88.864.88 1.414.88 2.512q0 1.264-.728 2.336t-2.056 1.712q-1.329.64-3.024.64-.688 0-1.12-.112v-.768q.448.048.96.048m9.048-3.016q-1.017-1.416-1.016-3.656 0-1.568.576-2.744t1.567-1.8c.991-.624 1.387-.624 2.176-.624q2.08 0 3.04 1.336t.96 3.656q0 1.553-.552 2.744c-.552 1.191-.875 1.411-1.52 1.848a3.77 3.77 0 0 1-2.168.656q-2.048 0-3.063-1.416m5.511-3.672q0-2.08-.535-3.2-.536-1.12-1.801-1.12-1.232 0-1.823 1.064-.594 1.064-.593 3.048 0 2.031.568 3.256c.568 1.225.979 1.224 1.8 1.224q2.385 0 2.384-4.272m4.961-.632a2.8 2.8 0 0 1-1-1.176 3.8 3.8 0 0 1-.345-1.632q0-1.056.425-1.824.423-.768 1.144-1.168c.721-.4 1.003-.4 1.568-.4q1.455 0 2.159.912.704.911.704 2.384 0 1.04-.432 1.8-.433.76-1.144 1.152a3.2 3.2 0 0 1-1.561.392q-.862 0-1.518-.44m2.783-1.048q.4-.656.4-1.792 0-1.12-.376-1.816c-.376-.696-.621-.696-1.112-.696q-.752 0-1.151.656c-.399.656-.4 1.04-.4 1.808q0 1.04.384 1.768c.384.728.624.728 1.104.728q.752 0 1.151-.656m5.249-5.392h1.217l-5.12 12.016h-1.217zm.824 11.256a2.83 2.83 0 0 1-.992-1.184 3.9 3.9 0 0 1-.344-1.64q0-1.04.424-1.808a2.96 2.96 0 0 1 1.145-1.176 3.1 3.1 0 0 1 1.567-.408q1.423 0 2.137.92.712.921.712 2.376 0 1.04-.433 1.8c-.433.76-.669.894-1.144 1.16a3.13 3.13 0 0 1-1.561.4q-.863 0-1.511-.44m2.776-1.064q.416-.655.416-1.792 0-1.12-.376-1.816-.377-.696-1.112-.696-.752 0-1.16.664-.407.663-.408 1.8 0 1.056.385 1.776.383.72 1.088.72.75 0 1.167-.656m-208.815 3.568q1.136 0 2.08-.464a3.7 3.7 0 0 0 1.488-1.28 3.3 3.3 0 0 0 .544-1.856q0-2.576-2.384-2.576a5.2 5.2 0 0 0-1.177.152 6.6 6.6 0 0 0-1.128.36l-.432-.304.784-5.76h4.56l.16-.304h.992l-.288 1.648h-4.24l-.735 3.728a5.4 5.4 0 0 1 1.104-.4 5.3 5.3 0 0 1 1.344-.176q1.536 0 2.416.864c.88.864.88 1.414.88 2.512q0 1.264-.728 2.336t-2.056 1.712q-1.329.64-3.024.64-.688 0-1.12-.112v-.768q.448.048.96.048m9.048-3.016q-1.016-1.416-1.016-3.656 0-1.568.576-2.744t1.567-1.8c.991-.624 1.387-.624 2.176-.624q2.08 0 3.04 1.336t.96 3.656q0 1.553-.552 2.744c-.552 1.191-.875 1.411-1.52 1.848a3.77 3.77 0 0 1-2.168.656q-2.048 0-3.063-1.416m5.511-3.672q0-2.08-.535-3.2-.536-1.12-1.801-1.12-1.232 0-1.823 1.064-.594 1.064-.593 3.048 0 2.031.568 3.256c.568 1.225.979 1.224 1.8 1.224q2.385 0 2.384-4.272m4.961-.632a2.8 2.8 0 0 1-1-1.176 3.8 3.8 0 0 1-.345-1.632q0-1.056.425-1.824.423-.768 1.144-1.168c.721-.4 1.003-.4 1.568-.4q1.455 0 2.159.912.705.911.704 2.384 0 1.04-.432 1.8-.433.76-1.144 1.152a3.2 3.2 0 0 1-1.561.392q-.862 0-1.518-.44m2.783-1.048q.4-.656.4-1.792 0-1.12-.376-1.816c-.376-.696-.621-.696-1.112-.696q-.752 0-1.151.656c-.399.656-.4 1.04-.4 1.808q0 1.04.384 1.768c.384.728.624.728 1.104.728q.752 0 1.151-.656m5.248-5.392h1.217l-5.12 12.016h-1.217zm.825 11.256a2.83 2.83 0 0 1-.992-1.184 3.9 3.9 0 0 1-.344-1.64q0-1.04.424-1.808a2.96 2.96 0 0 1 1.145-1.176 3.1 3.1 0 0 1 1.567-.408q1.423 0 2.137.92.712.921.712 2.376 0 1.04-.433 1.8c-.433.76-.669.894-1.144 1.16a3.13 3.13 0 0 1-1.561.4q-.863 0-1.511-.44m2.776-1.064q.416-.655.416-1.792 0-1.12-.376-1.816-.377-.696-1.112-.696-.752 0-1.16.664-.407.663-.408 1.8 0 1.056.385 1.776.383.72 1.088.72.75 0 1.167-.656" fill="#878787"/>
  <defs>
    <path id="E" d="M0 0h562.055v274.783H0z"/>
  </defs>
  <clipPath id="F">
    <use xlink:href="#E" overflow="visible"/>
  </clipPath>
  <path clip-path="url(#F)" fill="none" stroke="#0C3958" stroke-width=".5" stroke-miterlimit="10" d="M544.178 256.108v6h-6"/>
  <path clip-path="url(#F)" fill="none" stroke="#0C3958" stroke-width=".5" stroke-miterlimit="10" stroke-dasharray="12.2,12.2" d="M525.979 262.108H410.082"/>
  <path clip-path="url(#F)" fill="none" stroke="#0C3958" stroke-width=".5" stroke-miterlimit="10" d="M403.982 262.108h-6v-6"/>
  <path clip-path="url(#F)" fill="none" stroke="#0C3958" stroke-width=".5" stroke-miterlimit="10" stroke-dasharray="12.392,12.392" d="M397.982 243.716V51.635"/>
  <path clip-path="url(#F)" fill="none" stroke="#0C3958" stroke-width=".5" stroke-miterlimit="10" d="M397.982 45.438v-6h6"/>
  <path clip-path="url(#F)" fill="none" stroke="#0C3958" stroke-width=".5" stroke-miterlimit="10" stroke-dasharray="12.2,12.2" d="M416.182 39.438h115.896"/>
  <path clip-path="url(#F)" fill="none" stroke="#0C3958" stroke-width=".5" stroke-miterlimit="10" d="M538.178 39.438h6v6"/>
  <path clip-path="url(#F)" fill="none" stroke="#0C3958" stroke-width=".5" stroke-miterlimit="10" stroke-dasharray="12.392,12.392" d="M544.178 57.831v192.081"/>
  <path clip-path="url(#F)" fill="none" stroke="#0C3958" stroke-width=".5" stroke-miterlimit="10" d="M374.374 256.108v6h-6"/>
  <path clip-path="url(#F)" fill="none" stroke="#0C3958" stroke-width=".5" stroke-miterlimit="10" stroke-dasharray="12.2,12.2" d="M356.174 262.108H240.278"/>
  <path clip-path="url(#F)" fill="none" stroke="#0C3958" stroke-width=".5" stroke-miterlimit="10" d="M234.178 262.108h-6v-6"/>
  <path clip-path="url(#F)" fill="none" stroke="#0C3958" stroke-width=".5" stroke-miterlimit="10" stroke-dasharray="12.392,12.392" d="M228.178 243.716V51.635"/>
  <path clip-path="url(#F)" fill="none" stroke="#0C3958" stroke-width=".5" stroke-miterlimit="10" d="M228.178 45.438v-6h6"/>
  <path clip-path="url(#F)" fill="none" stroke="#0C3958" stroke-width=".5" stroke-miterlimit="10" stroke-dasharray="12.2,12.2" d="M246.378 39.438h115.895"/>
  <path clip-path="url(#F)" fill="none" stroke="#0C3958" stroke-width=".5" stroke-miterlimit="10" d="M368.374 39.438h6v6"/>
  <path clip-path="url(#F)" fill="none" stroke="#0C3958" stroke-width=".5" stroke-miterlimit="10" stroke-dasharray="12.392,12.392" d="M374.374 57.831v192.081"/>
  <path clip-path="url(#F)" fill="#676766" d="M433.856 67.312c-12.135 0-21.641 4.753-21.641 10.82v6.493c0 6.067 9.506 10.82 21.641 10.82 12.136 0 21.643-4.753 21.643-10.82v-6.493c0-6.067-9.507-10.82-21.643-10.82m0 1.442c10.949 0 20.199 4.295 20.199 9.378s-9.25 9.378-20.199 9.378c-10.948 0-20.197-4.294-20.197-9.378 0-5.083 9.249-9.378 20.197-9.378m3.39 20.072.134-.011q.683-.056 1.35-.13l.178-.016v5.023q-1.063.132-2.164.21v-5.043q.25-.015.502-.033m3.104-.35.106-.017.203-.034q.615-.099 1.214-.216l.281-.055.359-.073v4.982q-1.052.239-2.164.419v-5.006zm3.607-.736q.422-.108.834-.228l.227-.064.381-.117v4.931q-.702.231-1.442.436zm2.885-.895q.308-.115.606-.235.08-.03.16-.063.344-.14.677-.288v4.853q-.69.33-1.443.628zm2.886-1.289.076-.04.093-.049a18 18 0 0 0 1.108-.663q.084-.052.166-.106v4.678q-.659.505-1.443.968zm-33.184-.857.168.108.192.123q.441.276.914.538l.089.046q.039.022.079.042v4.788a15 15 0 0 1-1.442-.968zm2.886 1.56q.332.147.677.288l.157.062q.3.121.609.236v4.895a23 23 0 0 1-1.443-.628zm2.884 1.073q.19.06.384.117.11.033.225.064.411.118.835.228V92.7a30 30 0 0 1-1.443-.437v-4.931zm2.887.749.358.074q.14.028.281.054.598.116 1.215.216l.202.034.107.017v5.007a37 37 0 0 1-2.164-.419zm3.607.587.177.017q.667.074 1.351.129l.134.011q.25.018.503.033V93.9a39 39 0 0 1-2.164-.209v-5.023zm-15.149-4.043v-2.533c.021.03.05.057.072.087q.249.316.532.624.02.021.039.044.308.324.658.634l.141.124v4.429c-.925-1.063-1.442-2.213-1.442-3.409m18.756 9.35v-5.047q.714.024 1.441.025.73-.001 1.443-.025v5.047a43 43 0 0 1-1.443.028q-.725-.002-1.441-.028m21.641-11.883v2.533c0 1.196-.517 2.346-1.443 3.41v-4.43q.074-.061.143-.126c.229-.207.452-.417.656-.632l.04-.046q.284-.306.53-.623c.023-.029.052-.057.074-.086"/>
  <path clip-path="url(#F)" fill="#676766" d="m423.736 84.703.361.104 1.937.487c.348.072.707.129 1.062.191l.21.038a38 38 0 0 0 4.332.483l.276.015a40 40 0 0 0 3.838.002l.292-.016q.72-.04 1.42-.102a39 39 0 0 0 2.949-.384l.131-.023c.348-.06.699-.114 1.039-.184l1.539-.379.731-.195c5.349-1.536 8.761-4.165 8.761-6.608 0-3.745-8.021-7.935-18.756-7.935s-18.756 4.19-18.756 7.935c0 2.423 3.359 5.031 8.634 6.571m7.185-3.686c-1.482-.483-2.329-1.319-2.513-2.484l-.078-.489-.486-.103c-.318-.068-.425-.182-.444-.184l.167-.541c.019-.063.216-.278.679-.41l.324-.093.137-.307c.181-.407.433-.773.746-1.089.134-.136.243-.236.333-.317.308-.281.501-.503.557-.857l.014.005c1.056.385 2.275.425 3.114.39q.19-.007.388-.007c2.911 0 4.548.599 5.148 1.885l.14.299.317.09c.468.132.665.347.686.411l.172.508c-.015.029-.135.15-.451.217l-.485.103-.077.489c-.185 1.166-1.031 2.001-2.514 2.484l-.561.183.174 1.502c.059.512.439.96.995 1.166l1.219.456q-.213.028-.427.053-.71.078-1.437.131c-.227.017-.448.037-.681.05a40 40 0 0 1-4.468-.002c-.233-.013-.458-.033-.687-.05q-.729-.053-1.441-.134c-.146-.017-.287-.036-.431-.054l1.245-.449c.566-.205.955-.655 1.016-1.173l.172-1.496zm2.936-9.377c10.74 0 17.313 4.203 17.313 6.492 0 1.683-3.561 4.394-9.705 5.715l-3.559-1.33a.3.3 0 0 1-.074-.038l-.034-.295c1.821-.754 2.56-1.947 2.836-2.972.414-.168.737-.427.93-.755.202-.343.248-.742.13-1.124l-.166-.54c-.166-.542-.665-1.004-1.362-1.273-1.24-2.172-4.172-2.432-6.308-2.432q-.228 0-.447.009c-1.001.039-1.91-.068-2.56-.305-.363-.132-.521-.229-.583-.274-.313-.229-.716-.199-.978-.067a.79.79 0 0 0-.441.7c0 .163.012.354.047.567q.013.07.02.123l-.103.093c-.104.094-.23.211-.387.367a5.2 5.2 0 0 0-.896 1.225c-.688.271-1.179.729-1.343 1.265l-.166.541c-.118.382-.072.781.13 1.124.191.327.514.587.928.754.278 1.025 1.016 2.218 2.836 2.972l-.033.288a.3.3 0 0 1-.077.04l-3.644 1.316c-6.089-1.328-9.617-4.02-9.617-5.694 0-2.289 6.573-6.492 17.313-6.492M392.16 90.167h-3.816c-1.629 0-1.941-.274-1.941-.713 0-.5.815-1.378 1.002-1.691.189-.314 1.378-1.378 1.629-2.945.25-1.565-1.629-2.693-2.255-1.628-.371.632-1.314 2.505-2.442 3.32-2.092 1.511-3.821 4.8-6.001 4.8v7.09c1.795 0 5.864 1.996 7.306 2.285 1.632.326 3.764 1.048 4.896-.489.698-.948 1.791-3.5 2.612-6.11 2.08-2 .643-3.919-.99-3.919m-21.074-9.207c.01.012.024.017.034.028a.7.7 0 0 0 .174.144c.024.016.044.036.07.047.024.011.049.015.074.024l.004.002c.022.008.044.006.065.012.052.012.101.032.155.032h3.607a.723.723 0 0 0 0-1.443h-2.523c.927-2.155 2.421-4.328 4.688-4.328 1.557 0 3.096 1.393 4.333 3.923a.722.722 0 0 0 1.297-.634c-1.914-3.911-4.119-4.732-5.63-4.732-1.745 0-4.124.922-5.945 5.057l-1.413-1.883a.72.72 0 1 0-1.154.865zm35.694-2.736a.721.721 0 0 0-1.155-.866l-1.413 1.884c-1.821-4.136-4.2-5.058-5.945-5.058-1.512 0-3.716.821-5.63 4.733a.723.723 0 0 0 .331.965c.359.174.79.026.965-.331 1.238-2.53 2.777-3.924 4.334-3.924 2.267 0 3.762 2.174 4.688 4.328h-2.523a.722.722 0 0 0 0 1.443h3.607c.055 0 .104-.019.156-.032.021-.005.043-.003.064-.011l.004-.002c.024-.009.05-.013.074-.024.026-.012.046-.032.069-.047a.7.7 0 0 0 .175-.144c.01-.012.024-.016.034-.028zm-66.606-12.129c-12.136 0-21.642 4.753-21.642 10.82v6.493c0 6.067 9.506 10.82 21.642 10.82s21.642-4.753 21.642-10.82v-6.493c-.001-6.067-9.507-10.82-21.642-10.82m0 1.442c10.949 0 20.198 4.295 20.198 9.378s-9.249 9.378-20.198 9.378-20.198-4.294-20.198-9.378c0-5.083 9.249-9.378 20.198-9.378m3.389 20.072.134-.011q.683-.056 1.351-.13l.177-.016v5.023q-1.063.132-2.164.21v-5.043q.25-.015.502-.033m3.103-.35.106-.017.203-.034q.615-.099 1.214-.216l.282-.055.358-.073v4.982c-.699.16-1.424.298-2.164.419zm3.607-.736q.423-.108.834-.228.113-.031.227-.065.193-.057.382-.116v4.931q-.703.231-1.443.436zm2.885-.895q.308-.115.606-.235l.161-.063q.344-.141.676-.288v4.853q-.69.33-1.443.628zm2.886-1.289.076-.04.093-.049a18 18 0 0 0 1.108-.663q.084-.052.166-.106v4.678q-.659.505-1.443.968zm-33.184-.857.168.108.193.123q.44.277.914.538l.088.046q.038.022.08.042v4.788a15 15 0 0 1-1.443-.968zm2.886 1.56c.223.098.446.194.678.288l.156.062q.3.121.609.236v4.895a23 23 0 0 1-1.443-.628zm2.886 1.073q.19.06.383.117l.225.064q.412.118.835.228v4.959a30 30 0 0 1-1.442-.437zm2.886.749.358.074.281.054q.599.116 1.215.216l.202.034.107.017v5.007a37 37 0 0 1-2.164-.419zm3.606.587c.059.007.118.01.178.017q.666.074 1.35.129l.134.011q.25.018.503.033v5.042a39 39 0 0 1-2.164-.209v-5.023zm-15.148-4.043v-2.533c.021.03.05.057.073.087q.248.317.531.624c.015.014.025.029.039.044q.308.324.658.634l.141.124v4.429c-.926-1.063-1.442-2.213-1.442-3.409m18.755 9.35v-5.047q.714.024 1.442.025c.728.001.966-.01 1.442-.025v5.047q-.716.026-1.442.028c-.726.002-.965-.012-1.442-.028m21.641-11.883v2.533c0 1.196-.517 2.346-1.442 3.41v-4.43q.072-.061.142-.126c.23-.207.452-.417.656-.632l.04-.046q.284-.306.531-.623c.022-.029.052-.057.073-.086"/>
  <path clip-path="url(#F)" fill="#676766" d="M333.618 78.369a.834.834 0 0 0-1.646.187c0 1.217 1.627 1.717 2.851 1.988 1.274.282 2.902.455 4.652.496v.011a.833.833 0 0 0 1.667 0v-.011c1.75-.041 3.378-.214 4.652-.496 1.224-.271 2.852-.771 2.852-1.988s-1.628-1.717-2.852-1.988c-1.475-.327-3.422-.507-5.485-.507-3.283 0-5.466-.462-6.343-.827.877-.365 3.06-.827 6.343-.827 3.881 0 6.226.646 6.69 1.014a.834.834 0 0 0 1.647-.187c0-1.216-1.628-1.717-2.852-1.988-1.274-.282-2.902-.455-4.652-.496v-.01a.833.833 0 1 0-1.667 0v.01c-1.75.041-3.378.214-4.652.496-1.224.271-2.851.772-2.851 1.988 0 1.217 1.627 1.718 2.851 1.989 1.475.326 3.423.506 5.486.506 3.282 0 5.465.462 6.342.827-.877.365-3.06.827-6.342.827-3.881 0-6.226-.646-6.691-1.014"/>
  <path clip-path="url(#F)" fill="#676766" d="M340.241 70.002c10.397 0 17.644 3.58 17.644 6.793s-7.246 6.794-17.644 6.794c-10.396 0-17.643-3.58-17.643-6.794.001-3.212 7.247-6.793 17.643-6.793m0-1c-10.296 0-18.643 3.489-18.643 7.793s8.347 7.794 18.643 7.794 18.644-3.489 18.644-7.794c0-4.303-8.348-7.793-18.644-7.793"/>
  <path d="M49.935 13.538h1.65l3.645 10.35.93.15v.735H52.2v-.735l1.245-.15-.705-2.22h-4.38l-.705 2.22 1.29.15v.735H45.39v-.735l.93-.15zm.945 2.4-.375-1.32-.36 1.35-1.515 4.815h3.825zm13.35 6.712a4.07 4.07 0 0 1-1.5 1.672q-.975.615-2.28.615-.36 0-.78-.06t-.675-.15l.045 1.26v1.515l1.56.165v.735h-4.185v-.735l1.08-.165v-9.9l-1.095-.27v-.81l2.13-.27h.03l.315.27v.885q.45-.494 1.117-.84.667-.345 1.493-.345.885 0 1.627.435.743.436 1.192 1.35.45.915.45 2.31a5.16 5.16 0 0 1-.524 2.333m-4.425-5.137q-.495.24-.765.525v5.655q.105.18.532.323c.427.143.598.142.938.142q1.155 0 1.868-.915.712-.915.712-2.76 0-1.62-.623-2.415t-1.598-.795a2.4 2.4 0 0 0-1.064.24m12.457 7.23q-.203-.165-.203-.54v-.51q-.495.495-1.237.87c-.742.375-.993.375-1.493.375q-1.395 0-1.98-.75t-.585-2.475v-4.35l-.84-.24v-.66l2.1-.195h.015l.285.18v5.145q0 .87.127 1.358t.45.72q.322.232.938.232.6 0 1.125-.255t.915-.6v-5.685l-1.08-.24v-.66l2.28-.195h.015l.345.18v7.56h.9l-.015.675q-.42.105-.728.165-.307.06-.712.06-.42 0-.622-.165m4.2-.991q-.953-1.185-.953-3.165 0-1.305.495-2.295c.495-.99.792-1.17 1.387-1.53q.892-.54 2.033-.54 1.395 0 2.167.772.773.772.817 2.212 0 .915-.105 1.395h-5.16q.03 1.485.69 2.393t1.875.907q.599 0 1.252-.217c.653-.217.772-.317 1.012-.518l.285.66q-.435.45-1.29.78c-.855.33-1.15.33-1.74.33q-1.812.002-2.765-1.184m4.297-3.944q.045-.315.045-.645-.014-.975-.413-1.538c-.399-.563-.682-.563-1.252-.563q-.87 0-1.387.63-.518.63-.593 2.115zm4.335 3.764q.15.225.638.405.487.18 1.027.18.855 0 1.26-.33t.405-.915q0-.405-.255-.705-.256-.3-.712-.533a15 15 0 0 0-1.313-.563q-1.156-.435-1.688-1.042-.533-.608-.533-1.597 0-.66.397-1.155c.397-.495.63-.587 1.095-.772s.982-.277 1.552-.277q.69 0 1.208.105t.833.21c.315.105.35.115.42.135v1.86h-.915l-.3-1.11q-.09-.18-.48-.307a2.8 2.8 0 0 0-.87-.128q-.676 0-1.087.3c-.411.3-.413.47-.413.81q0 .45.218.742.217.293.547.473t.9.42l.3.12q.84.33 1.365.63t.877.788.353 1.192q0 1.11-.862 1.77-.863.66-2.363.66-.735 0-1.537-.203a10 10 0 0 1-1.313-.413v-1.92h.975zm7.47.96q-.42-.39-.42-1.335v-5.76h-1.08v-.675q.075-.015.42-.105t.465-.165q.24-.135.375-.54.12-.285.285-.915l.195-.75h.885l.03 2.16h2.505v.99h-2.505v4.605q0 .855.052 1.2c.052.345.11.38.225.45q.173.105.593.105.405 0 .892-.105a4 4 0 0 0 .758-.225l.225.675q-.36.27-1.163.525t-1.462.255q-.855 0-1.275-.39m6.225-4.087q1.41-.667 3.57-.712v-.42q0-.705-.15-1.11c-.15-.405-.272-.467-.518-.593q-.367-.188-1.042-.188-.765 0-1.373.218a9 9 0 0 0-1.207.532l-.375-.78q.194-.165.72-.435c.526-.27.755-.34 1.215-.48s.92-.21 1.38-.21q1.064 0 1.688.292.622.292.892.938t.27 1.725v4.815h.885v.66q-.3.075-.757.15-.458.075-.803.075-.42 0-.57-.127t-.15-.563v-.495q-.45.45-1.102.825t-1.478.375q-1.08 0-1.792-.623-.713-.623-.713-1.792 0-1.409 1.41-2.077m2.64 3.232q.51-.24.93-.57v-2.58q-1.635 0-2.467.502t-.833 1.313c0 .811.132.938.397 1.193q.398.382 1.073.382.39 0 .9-.24m9.315-.105q.15.225.638.405.487.18 1.027.18.855 0 1.26-.33t.405-.915q0-.405-.255-.705t-.712-.533a15 15 0 0 0-1.313-.563q-1.156-.435-1.688-1.042-.533-.608-.533-1.597 0-.66.397-1.155c.397-.495.63-.587 1.095-.772s.982-.277 1.552-.277q.69 0 1.208.105t.833.21c.315.105.35.115.42.135v1.86h-.915l-.3-1.11q-.09-.18-.48-.307a2.8 2.8 0 0 0-.87-.128q-.675 0-1.087.3c-.412.3-.413.47-.413.81q0 .45.218.742.217.293.547.473t.9.42l.3.12q.84.33 1.365.63.526.3.877.788.353.488.353 1.192 0 1.11-.862 1.77-.863.66-2.363.66-.735 0-1.537-.203a10 10 0 0 1-1.313-.413v-1.92h.975zm7.103.18q-.953-1.185-.953-3.165 0-1.305.495-2.295c.495-.99.792-1.17 1.387-1.53q.892-.54 2.033-.54 1.395 0 2.167.772.773.772.817 2.212 0 .915-.105 1.395h-5.16q.03 1.485.69 2.393t1.875.907q.599 0 1.252-.217c.653-.217.772-.317 1.012-.518l.285.66q-.435.45-1.29.78c-.855.33-1.15.33-1.74.33q-1.813.002-2.765-1.184m4.297-3.944q.045-.315.045-.645-.015-.975-.413-1.538c-.398-.563-.682-.563-1.252-.563q-.87 0-1.387.63-.518.63-.593 2.115zm3.742 8.407q-.862-.607-.862-1.672 0-.66.412-1.215.413-.555.982-.84-.69-.39-.69-1.26 0-.54.315-1.02t.825-.735q-.75-.33-1.147-.945t-.397-1.455q0-.87.487-1.515.488-.645 1.29-.99a4.3 4.3 0 0 1 1.703-.345q1.515 0 2.37.63.225-.225.69-.435t.99-.21h.51v1.32h-1.65q.36.555.36 1.29 0 .886-.442 1.567a2.9 2.9 0 0 1-1.23 1.058q-.788.375-1.778.375-.645 0-1.155-.135-.21.21-.345.465t-.135.495q0 .54.36.742.36.203 1.29.203h1.695q1.455 0 2.16.555t.705 1.575q0 .855-.615 1.568t-1.657 1.125a6.1 6.1 0 0 1-2.258.412q-1.92-.001-2.783-.608m4.305-.48q.652-.218 1.057-.645t.405-.998q0-.675-.36-.982-.36-.308-1.395-.308h-1.77q-.6 0-.945-.075-.615.675-.615 1.515t.51 1.275c.51.435.915.435 1.725.435q.735.001 1.388-.217m.293-8.768q0-1.004-.443-1.478-.442-.472-1.327-.472-.825 0-1.305.458-.48.457-.48 1.462 0 .945.458 1.5.457.555 1.388.555 1.709 0 1.709-2.025m9.907 5.776q-.203-.165-.203-.54v-.51q-.495.495-1.237.87c-.742.375-.993.375-1.493.375q-1.395 0-1.98-.75t-.585-2.475v-4.35l-.84-.24v-.66l2.1-.195h.015l.285.18v5.145q0 .87.127 1.358.128.488.45.72t.938.232q.6 0 1.125-.255t.915-.6v-5.685l-1.08-.24v-.66l2.28-.195h.015l.345.18v7.56h.9l-.015.675q-.42.105-.728.165-.307.06-.712.06-.42 0-.622-.165m3.307-.705 1.125-.09v-6.345l-1.08-.27v-.81l2.07-.27h.03l.33.27v.27l-.045 1.17h.045q.15-.255.54-.66t1.005-.742a2.73 2.73 0 0 1 1.335-.337q.3 0 .495.075v1.68a1.2 1.2 0 0 0-.338-.143 2 2 0 0 0-.517-.067q-1.246 0-2.31.765v5.4l1.905.12v.72h-4.59zm8.25-3.593q1.41-.667 3.57-.712v-.42q0-.705-.15-1.11c-.15-.405-.272-.467-.518-.593q-.367-.188-1.042-.188-.764 0-1.373.218a9 9 0 0 0-1.207.532l-.375-.78q.194-.165.72-.435c.526-.27.755-.34 1.215-.48s.92-.21 1.38-.21q1.065 0 1.688.292.622.292.892.938t.27 1.725v4.815h.885v.66q-.3.075-.757.15-.458.075-.803.075-.42 0-.57-.127t-.15-.563v-.495q-.45.45-1.102.825t-1.478.375q-1.08 0-1.792-.623-.713-.623-.713-1.792 0-1.409 1.41-2.077m2.64 3.232q.51-.24.93-.57v-2.58q-1.635 0-2.467.502t-.833 1.313c0 .811.132.938.397 1.193q.398.382 1.073.382.39 0 .9-.24m162.691-10.034h1.65l3.645 10.35.931.15v.735h-3.96v-.735l1.245-.15-.705-2.22h-4.38l-.705 2.22 1.29.15v.735h-3.556v-.735l.931-.15zm.946 2.399-.375-1.32-.36 1.35-1.515 4.815h3.825zm13.349 6.713a4.07 4.07 0 0 1-1.5 1.672q-.974.615-2.279.615-.36 0-.78-.06t-.675-.15l.045 1.26v1.515l1.56.165v.735h-4.185v-.735l1.08-.165v-9.9l-1.096-.27v-.81l2.131-.27h.029l.315.27v.885q.45-.494 1.117-.84a3.2 3.2 0 0 1 1.492-.345 3.16 3.16 0 0 1 1.628.435q.743.436 1.192 1.35.45.915.45 2.31a5.1 5.1 0 0 1-.524 2.333m-4.425-5.137q-.495.24-.765.525v5.655q.104.18.532.323c.428.143.598.142.938.142q1.155 0 1.867-.915.714-.915.713-2.76 0-1.62-.622-2.415-.623-.795-1.598-.795-.57 0-1.065.24m12.458 7.23q-.203-.165-.203-.54v-.51q-.495.495-1.237.87c-.742.375-.992.375-1.492.375q-1.396 0-1.98-.75t-.585-2.475v-4.35l-.84-.24v-.66l2.1-.195h.016l.285.18v5.145q0 .87.127 1.358.128.488.45.72t.938.232q.599 0 1.125-.255.524-.255.915-.6v-5.685l-1.08-.24v-.66l2.28-.195h.015l.345.18v7.56h.9l-.015.675q-.42.105-.728.165a4 4 0 0 1-.713.06q-.421 0-.623-.165m4.2-.991q-.954-1.185-.953-3.165 0-1.305.495-2.295c.495-.99.793-1.17 1.388-1.53q.892-.54 2.032-.54 1.395 0 2.168.772.772.772.817 2.212 0 .915-.104 1.395h-5.16q.03 1.485.689 2.393.66.907 1.875.907.6 0 1.253-.217t1.013-.518l.284.66q-.435.45-1.289.78-.855.33-1.74.33-1.817.001-2.768-1.184m4.297-3.944q.045-.315.046-.645-.016-.975-.413-1.538c-.397-.563-.683-.563-1.252-.563q-.87 0-1.388.63c-.518.63-.543 1.125-.593 2.115zm4.335 3.764q.15.225.637.405.488.18 1.028.18.853 0 1.26-.33.405-.33.405-.915 0-.405-.256-.705c-.256-.3-.407-.377-.712-.533a15 15 0 0 0-1.313-.563q-1.156-.435-1.688-1.042-.532-.608-.532-1.597 0-.66.397-1.155t1.095-.772c.698-.277.982-.277 1.553-.277q.69 0 1.207.105c.517.105.623.14.833.21s.35.115.42.135v1.86h-.915l-.3-1.11q-.091-.18-.48-.307c-.389-.127-.55-.128-.87-.128q-.675 0-1.087.3a.95.95 0 0 0-.413.81q0 .45.218.742.217.293.548.473.33.18.899.42l.3.12q.841.33 1.365.63.525.3.878.788.352.488.353 1.192 0 1.11-.863 1.77-.862.66-2.362.66-.736 0-1.537-.203a10 10 0 0 1-1.313-.413v-1.92h.975zm7.47.96q-.42-.39-.42-1.335v-5.76h-1.08v-.675q.075-.015.42-.105t.465-.165q.24-.135.375-.54.12-.285.285-.915c.165-.63.175-.67.195-.75h.885l.03 2.16h2.505v.99h-2.505v4.605q0 .855.053 1.2.051.345.225.45.173.105.593.105.405 0 .893-.105a4 4 0 0 0 .757-.225l.226.675q-.36.27-1.163.525c-.803.255-1.022.255-1.462.255q-.858 0-1.277-.39m6.225-4.087q1.41-.667 3.57-.712v-.42q0-.705-.15-1.11c-.15-.405-.272-.467-.518-.593q-.368-.188-1.042-.188-.766 0-1.373.218a9.4 9.4 0 0 0-1.207.532l-.375-.78q.194-.165.72-.435.525-.27 1.215-.48c.69-.21.92-.21 1.38-.21q1.064 0 1.688.292t.893.938q.271.645.271 1.725v4.815h.885v.66q-.3.075-.758.15-.457.075-.802.075-.42 0-.57-.127t-.15-.563v-.495q-.45.45-1.103.825t-1.478.375q-1.08 0-1.792-.623-.714-.623-.713-1.792-.002-1.409 1.409-2.077m2.639 3.232q.51-.24.931-.57v-2.58q-1.636 0-2.468.502t-.832 1.313c0 .811.132.938.397 1.193q.397.382 1.072.382.392 0 .9-.24m9.331-3.232q1.41-.667 3.57-.712v-.42q0-.705-.15-1.11c-.15-.405-.272-.467-.518-.593q-.368-.188-1.042-.188-.766 0-1.373.218a9.4 9.4 0 0 0-1.207.532l-.375-.78q.194-.165.72-.435.525-.27 1.215-.48c.69-.21.92-.21 1.38-.21q1.064 0 1.688.292t.893.938q.271.645.271 1.725v4.815h.885v.66q-.3.075-.758.15-.457.075-.802.075-.42 0-.57-.127t-.15-.563v-.495q-.45.45-1.103.825t-1.478.375q-1.08 0-1.792-.623-.714-.623-.713-1.792-.003-1.409 1.409-2.077m2.639 3.232q.51-.24.931-.57v-2.58q-1.636 0-2.468.502t-.832 1.313c0 .811.132.938.397 1.193q.397.382 1.072.382.39 0 .9-.24m4.396.361 1.125-.09v-6.345l-1.08-.27v-.81l2.07-.27h.029l.33.27v.27l-.045 1.17h.045q.15-.255.54-.66c.39-.405.595-.517 1.005-.742s.855-.337 1.335-.337q.3 0 .495.075v1.68a1.2 1.2 0 0 0-.337-.143 2 2 0 0 0-.518-.067q-1.246 0-2.311.765v5.4l1.905.12v.72h-4.59v-.736zm6.87 0 1.125-.09v-6.345l-1.08-.27v-.81l2.07-.27h.029l.33.27v.27l-.045 1.17h.045q.15-.255.54-.66c.39-.405.595-.517 1.005-.742s.855-.337 1.335-.337q.3 0 .495.075v1.68a1.2 1.2 0 0 0-.337-.143 2 2 0 0 0-.518-.067q-1.245 0-2.311.765v5.4l1.905.12v.72h-4.59v-.736zm8.009-6.435-1.14-.27v-.795l2.325-.285h.029l.346.27v7.395l1.2.12v.735h-3.976v-.735l1.215-.135zm-.121-2.926q-.24-.27-.239-.69 0-.48.292-.795c.292-.315.463-.315.803-.315s.59.09.75.27.24.41.24.69q0 .51-.293.81t-.817.3h-.015q-.48 0-.721-.27m4.869 9.075q-.954-1.185-.953-3.165 0-1.305.495-2.295c.495-.99.793-1.17 1.388-1.53q.892-.54 2.032-.54 1.395 0 2.168.772.772.772.817 2.212 0 .915-.104 1.395h-5.16q.03 1.485.689 2.393.66.907 1.875.907.6 0 1.253-.217t1.013-.518l.284.66q-.435.45-1.289.78-.855.33-1.74.33-1.817.001-2.768-1.184m4.297-3.944q.046-.315.046-.645-.016-.975-.413-1.538c-.397-.563-.683-.563-1.252-.563q-.87 0-1.388.63c-.518.63-.543 1.125-.593 2.115zm4.335 3.764q.15.225.637.405.488.18 1.028.18.853 0 1.26-.33.405-.33.405-.915 0-.405-.256-.705c-.256-.3-.407-.377-.712-.533a15 15 0 0 0-1.313-.563q-1.156-.435-1.688-1.042-.532-.608-.532-1.597 0-.66.397-1.155t1.095-.772c.698-.277.982-.277 1.553-.277q.69 0 1.207.105c.517.105.623.14.833.21s.35.115.42.135v1.86h-.915l-.3-1.11q-.091-.18-.48-.307c-.389-.127-.55-.128-.87-.128q-.675 0-1.087.3a.95.95 0 0 0-.413.81q0 .45.218.742.217.293.548.473.33.18.899.42l.3.12q.841.33 1.365.63.525.3.878.788.352.488.353 1.192 0 1.11-.863 1.77-.862.66-2.362.66-.736 0-1.537-.203a10 10 0 0 1-1.313-.413v-1.92h.975zm6.983 4.643q-.862-.607-.862-1.672 0-.66.412-1.215.413-.555.982-.84-.69-.39-.689-1.26 0-.54.314-1.02.315-.48.825-.735-.75-.33-1.147-.945t-.397-1.455q0-.87.487-1.515.488-.645 1.29-.99a4.3 4.3 0 0 1 1.702-.345q1.517 0 2.37.63.225-.225.69-.435t.99-.21h.51v1.32h-1.65q.36.555.36 1.29 0 .886-.442 1.567a2.9 2.9 0 0 1-1.23 1.058q-.786.375-1.777.375-.645 0-1.155-.135-.21.21-.345.465c-.135.255-.135.335-.135.495q0 .54.36.742.358.203 1.29.203h1.694q1.455 0 2.16.555c.705.555.705.895.705 1.575q0 .855-.615 1.568t-1.657 1.125a6.1 6.1 0 0 1-2.258.412q-1.92-.001-2.782-.608m4.305-.48q.654-.217 1.058-.645.406-.428.405-.998 0-.675-.36-.982c-.36-.307-.705-.308-1.395-.308h-1.771q-.6 0-.944-.075-.615.675-.615 1.515t.51 1.275c.51.435.915.435 1.725.435q.734.001 1.387-.217m.293-8.768q0-1.004-.442-1.478-.443-.472-1.328-.472-.824 0-1.305.458c-.481.458-.48.792-.48 1.462q0 .945.458 1.5t1.388.555q1.708 0 1.709-2.025m5.114 1.478q1.41-.667 3.57-.712v-.42q0-.705-.15-1.11c-.15-.405-.272-.467-.518-.593q-.368-.188-1.042-.188-.766 0-1.373.218a9.4 9.4 0 0 0-1.207.532l-.375-.78q.194-.165.72-.435.525-.27 1.215-.48c.69-.21.92-.21 1.38-.21q1.064 0 1.688.292t.893.938q.271.645.271 1.725v4.815h.885v.66q-.3.075-.758.15-.457.075-.802.075-.42 0-.57-.127t-.15-.563v-.495q-.45.45-1.103.825t-1.478.375q-1.08 0-1.792-.623-.714-.623-.713-1.792-.002-1.409 1.409-2.077m2.639 3.232q.51-.24.931-.57v-2.58q-1.636 0-2.468.502t-.832 1.313c0 .811.132.938.397 1.193q.397.382 1.072.382.391 0 .9-.24m5.956.81q-.75-.45-1.192-1.38c-.442-.93-.442-1.385-.442-2.295q0-1.275.525-2.325t1.507-1.657 2.318-.607q.765 0 1.395.165v-2.805l-1.53-.18v-.645l2.7-.27h.045l.33.24v11.28h.87v.69q-.48.105-.833.165-.351.06-.742.06c-.391 0-.445-.045-.555-.135q-.165-.135-.165-.57v-.48q-.42.51-1.103.855c-.683.345-.947.345-1.478.345q-.9 0-1.65-.451m3.345-.877q.51-.262.765-.607v-5.49q-.12-.18-.563-.323a3 3 0 0 0-.938-.143q-1.17 0-1.867.893t-.698 2.752q0 1.62.615 2.4t1.59.78a2.35 2.35 0 0 0 1.096-.262m5.789-3.165q1.41-.667 3.57-.712v-.42q0-.705-.15-1.11c-.15-.405-.272-.467-.518-.593q-.368-.188-1.042-.188-.766 0-1.373.218a9.4 9.4 0 0 0-1.207.532l-.375-.78q.194-.165.72-.435.525-.27 1.215-.48c.69-.21.92-.21 1.38-.21q1.065 0 1.688.292t.893.938q.271.645.271 1.725v4.815h.885v.66q-.3.075-.758.15-.457.075-.802.075-.42 0-.57-.127t-.15-.563v-.495q-.45.45-1.103.825t-1.478.375q-1.08 0-1.792-.623-.713-.623-.713-1.792-.001-1.409 1.409-2.077m2.64 3.232q.51-.24.931-.57v-2.58q-1.636 0-2.468.502t-.832 1.313c0 .811.132.938.397 1.193q.397.382 1.072.382.39 0 .9-.24" fill="#0C3958"/>
</svg>
