<svg xmlns="http://www.w3.org/2000/svg" xmlns:xlink="http://www.w3.org/1999/xlink" width="551.35" height="194.489" viewBox="0 0 551.35 194.489" xml:space="preserve">
  <path fill="#8DBE23" d="M19.187 71.637h141.732v69.092H19.187z"/>
  <path fill="#9BA0B3" d="M57.455 71.637h103.464v69.092H57.455z"/>
  <defs>
    <path id="a" d="M0 0h551.35v194.489H0z"/>
  </defs>
  <clipPath id="b">
    <use xlink:href="#a" overflow="visible"/>
  </clipPath>
  <path clip-path="url(#b)" fill="#419C35" d="M26.169 133.958h127.768V78.407H26.169zm110.084-6.944h-35.846c5.685-4.166 9.46-11.851 9.46-20.435 0-9.13-4.265-17.063-10.563-21.229h36.949c0 5.555 5.185 12.595 10.74 12.595v20.369c-5.555.001-10.74 3.145-10.74 8.7M33.113 97.946c5.555 0 10.554-7.04 10.554-12.595h35.637c-6.298 4.166-10.563 12.098-10.563 21.229 0 8.584 3.775 16.269 9.46 20.435H43.667c0-5.555-4.999-8.699-10.554-8.699z"/>
  <defs>
    <path id="c" d="M33.113 118.316v-20.37c5.556 0 10.554-7.04 10.554-12.595h35.636c-6.297 4.167-10.562 12.098-10.562 21.228 0 8.584 3.775 16.27 9.46 20.437H43.667c0-5.558-4.998-8.7-10.554-8.7m76.754-11.737c0-9.13-4.265-17.061-10.563-21.228h36.949c0 5.555 5.186 12.595 10.74 12.595v20.37c-5.554 0-10.74 3.143-10.74 8.699h-35.846c5.685-4.167 9.46-11.852 9.46-20.436m-83.698 27.379h127.768V78.407H26.169z"/>
  </defs>
  <clipPath id="d">
    <use xlink:href="#c" overflow="visible"/>
  </clipPath>
  <path clip-path="url(#d)" fill="#0C3958" d="M57.454 72.001h103.465v69.885H57.454z"/>
  <defs>
    <path id="e" d="M0 0h551.35v194.489H0z"/>
  </defs>
  <clipPath id="f">
    <use xlink:href="#e" overflow="visible"/>
  </clipPath>
  <path clip-path="url(#f)" fill="#FFF" d="M96.689 99.749q-.303-.335-.891-.722c-.588-.387-.845-.504-1.36-.739a11 11 0 0 0-1.697-.604 10 10 0 0 0-1.899-.32v6.955l.639.135q1.815.437 3.275.974 1.461.538 2.47 1.311a5.35 5.35 0 0 1 1.562 1.897q.554 1.127.554 2.739 0 1.78-.638 3.04a5.94 5.94 0 0 1-1.764 2.1q-1.126.84-2.62 1.261t-3.208.452v3.528h-1.748v-3.595a17 17 0 0 1-4.602-.957 14.5 14.5 0 0 1-3.998-2.201l1.713-3.225q.37.404 1.076.873.704.47 1.646.906.94.438 2.065.773 1.126.336 2.336.47v-6.954a4 4 0 0 0-.421-.117 4 4 0 0 1-.419-.117 29 29 0 0 1-3.108-.991q-1.326-.521-2.2-1.26a4.9 4.9 0 0 1-1.328-1.73q-.453-.99-.453-2.402 0-1.645.571-2.923a6.4 6.4 0 0 1 1.613-2.201 7.7 7.7 0 0 1 2.436-1.444q1.393-.521 3.073-.655v-3.393h1.748v3.393q2.183.134 4.031.873 1.847.74 3.259 1.781zm-11.086.874q0 1.41.991 2.117.991.706 3.007 1.243v-6.62q-2.05.101-3.025.958-.974.857-.973 2.302m9.709 11.154q0-1.478-1.176-2.234t-3.293-1.361v6.652q2.152-.033 3.309-.806 1.159-.775 1.16-2.251m28.2-5.594a5.426 5.426 0 1 0 10.853 0 5.426 5.426 0 0 0-10.853 0m-66.917 0a5.426 5.426 0 1 1-10.853 0 5.426 5.426 0 0 1 10.853 0"/>
  <path d="M66.324 159.98q-.847.825-2.407.96l-.015 1.755h-1.05l.015-1.739a9.4 9.4 0 0 1-1.702-.271q-.818-.21-1.208-.39l.105-2.565h.945l.315 1.86q.675.57 2.055.57 1.095 0 1.657-.48c.562-.48.563-.79.563-1.41q0-.539-.322-.952t-.825-.728a16 16 0 0 0-1.373-.766 3 3 0 0 0-.27-.149q-.93-.48-1.5-.915a3.3 3.3 0 0 1-.9-1.043q-.33-.606-.33-1.447 0-1.094.833-1.83.832-.734 2.153-.885v-1.65h1.065v1.636q1.2.06 2.43.555l-.075 2.4h-.915l-.345-1.74q-.225-.195-.607-.315c-.382-.12-.553-.12-.893-.12q-.93 0-1.53.413c-.6.413-.6.692-.6 1.252q0 .585.33 1.021t.772.712q.442.279 1.313.743 1.23.69 1.815 1.087.585.399.968.976.382.578.382 1.402-.002 1.228-.849 2.053m4.927-6.915q-.315.12-.99.285-.675.166-1.095.225l-.15-.84q.765-.164 1.567-.555c.802-.391.982-.545 1.343-.855h.015l.915.15v8.46l1.86.135v.735h-5.4v-.735l1.935-.135zm5.37 10.102a6 6 0 0 1-.705-.127v-.855q.495.15 1.185.15 1.185 0 2.048-.375.863-.376 1.32-1.021t.458-1.41q0-1.02-.623-1.582c-.623-.562-1.053-.567-1.913-.577l-.465.119q-.495.151-.48.136l-.255-.795q.63-.12 1.185-.36.93-.39 1.5-1.043t.57-1.387q0-.854-.502-1.253-.503-.397-1.283-.397-.675 0-1.297.24c-.622.24-.772.354-1.073.585l-.405-.675q.42-.42 1.342-.817a4.7 4.7 0 0 1 1.883-.398q1.365 0 2.205.593t.84 1.808q0 1.065-.84 1.936a5.06 5.06 0 0 1-1.995 1.274q.15-.015.42-.015.885 0 1.56.33c.675.33.797.518 1.042.893s.368.797.368 1.268a3.17 3.17 0 0 1-.66 1.965q-.66.869-1.868 1.357-1.207.487-2.797.487a6 6 0 0 1-.765-.054m12.12-.727q1.065 0 1.95-.435t1.395-1.2c.51-.765.51-1.09.51-1.74q0-2.414-2.235-2.415-.495 0-1.103.143a6.4 6.4 0 0 0-1.058.338l-.405-.285.735-5.4h4.275l.15-.284h.93l-.27 1.545H89.64l-.69 3.494q.405-.21 1.035-.375.63-.164 1.26-.164 1.44 0 2.265.81t.825 2.354q0 1.186-.682 2.19-.683 1.005-1.928 1.605t-2.835.6q-.645 0-1.05-.105v-.72q.421.044.901.044m8.482-2.827q-.952-1.327-.952-3.428 0-1.469.54-2.572t1.47-1.688c.93-.585 1.3-.585 2.04-.585q1.95 0 2.85 1.252.9 1.254.9 3.428 0 1.456-.518 2.572-.517 1.118-1.425 1.732a3.54 3.54 0 0 1-2.033.615q-1.92.001-2.872-1.326m5.168-3.443q0-1.95-.502-3c-.502-1.05-.897-1.05-1.688-1.05q-1.155 0-1.71.997c-.555.997-.555 1.617-.555 2.857q0 1.905.532 3.053t1.688 1.147q2.235.001 2.235-4.004m4.477 3.443q-.952-1.327-.952-3.428 0-1.469.54-2.572t1.47-1.688c.93-.585 1.3-.585 2.04-.585q1.95 0 2.85 1.252.9 1.254.9 3.428 0 1.456-.518 2.572-.518 1.118-1.425 1.732a3.54 3.54 0 0 1-2.033.615q-1.92.001-2.872-1.326m5.168-3.443q0-1.95-.502-3c-.502-1.05-.897-1.05-1.688-1.05q-1.155 0-1.71.997c-.555.997-.555 1.617-.555 2.857q0 1.905.532 3.053t1.688 1.147q2.235.001 2.235-4.004" fill="#8DBE23"/>
  <defs>
    <path id="g" d="M0 0h551.35v194.489H0z"/>
  </defs>
  <clipPath id="h">
    <use xlink:href="#g" overflow="visible"/>
  </clipPath>
  <path clip-path="url(#h)" fill="none" stroke="#0C3958" stroke-width=".5" stroke-miterlimit="10" d="M535.439 170.236v6h-6"/>
  <path clip-path="url(#h)" fill="none" stroke="#0C3958" stroke-width=".5" stroke-miterlimit="10" stroke-dasharray="12.168,12.168" d="M517.271 176.236h-310.29"/>
  <path clip-path="url(#h)" fill="none" stroke="#0C3958" stroke-width=".5" stroke-miterlimit="10" d="M200.897 176.236h-6v-6"/>
  <path clip-path="url(#h)" fill="none" stroke="#0C3958" stroke-width=".5" stroke-miterlimit="10" stroke-dasharray="11.051,11.051" d="M194.897 159.185V54.203"/>
  <path clip-path="url(#h)" fill="none" stroke="#0C3958" stroke-width=".5" stroke-miterlimit="10" d="M194.897 48.678v-6h6"/>
  <path clip-path="url(#h)" fill="none" stroke="#0C3958" stroke-width=".5" stroke-miterlimit="10" stroke-dasharray="12.168,12.168" d="M213.065 42.678h310.29"/>
  <path clip-path="url(#h)" fill="none" stroke="#0C3958" stroke-width=".5" stroke-miterlimit="10" d="M529.439 42.678h6v6"/>
  <path clip-path="url(#h)" fill="none" stroke="#0C3958" stroke-width=".5" stroke-miterlimit="10" stroke-dasharray="11.051,11.051" d="M535.439 59.729V164.71"/>
  <path clip-path="url(#h)" fill="#8DBE23" d="M206.303 71.686h141.732v69.092H206.303z"/>
  <defs>
    <path id="i" d="M206.302 71.686h141.733v69.092H206.302z"/>
  </defs>
  <clipPath id="j">
    <use xlink:href="#i" overflow="visible"/>
  </clipPath>
  <path clip-path="url(#j)" fill="#9BA0B3" d="M234.649 59.622h113.386v88.819H234.649z"/>
  <defs>
    <path id="k" d="M0 0h551.35v194.489H0z"/>
  </defs>
  <clipPath id="l">
    <use xlink:href="#k" overflow="visible"/>
  </clipPath>
  <path clip-path="url(#l)" fill="#419C35" d="M213.285 134.007h127.768V78.456H213.285zm110.084-6.944h-35.847c5.686-4.166 9.46-11.852 9.46-20.436 0-9.13-4.265-17.062-10.563-21.228h36.949c0 5.555 5.185 12.595 10.739 12.595v20.369c-5.553.001-10.738 3.145-10.738 8.7m-103.14-29.068c5.555 0 10.554-7.04 10.554-12.595h35.637c-6.298 4.166-10.563 12.098-10.563 21.228 0 8.584 3.775 16.27 9.46 20.436h-34.534c0-5.555-4.999-8.699-10.554-8.699z"/>
  <defs>
    <path id="m" d="M220.229 118.364V97.996c5.555 0 10.554-7.041 10.554-12.596h35.637c-6.298 4.166-10.564 12.098-10.564 21.227 0 8.585 3.776 16.271 9.46 20.438h-34.533c0-5.558-4.999-8.701-10.554-8.701m76.754-11.738c0-9.129-4.266-17.061-10.563-21.227h36.948c0 5.555 5.186 12.596 10.741 12.596v20.368c-5.556 0-10.741 3.144-10.741 8.7h-35.845c5.684-4.166 9.46-11.852 9.46-20.437m-83.698 27.38h127.768V78.455H213.285z"/>
  </defs>
  <clipPath id="n">
    <use xlink:href="#m" overflow="visible"/>
  </clipPath>
  <path clip-path="url(#n)" fill="#0C3958" d="M234.649 67.939h113.386v76.586H234.649z"/>
  <defs>
    <path id="o" d="M0 0h551.35v194.489H0z"/>
  </defs>
  <clipPath id="p">
    <use xlink:href="#o" overflow="visible"/>
  </clipPath>
  <path clip-path="url(#p)" fill="#FFF" d="M283.805 99.797q-.303-.335-.891-.723a10 10 0 0 0-1.36-.738 11 11 0 0 0-1.696-.604 10 10 0 0 0-1.899-.32v6.954l.639.136q1.816.436 3.275.974 1.462.538 2.47 1.311a5.4 5.4 0 0 1 1.563 1.897q.554 1.127.554 2.739 0 1.78-.638 3.04a5.95 5.95 0 0 1-1.765 2.1q-1.126.84-2.62 1.26t-3.208.453v3.528h-1.747v-3.595a17 17 0 0 1-4.603-.957 14.5 14.5 0 0 1-3.998-2.201l1.713-3.226q.37.405 1.076.873.704.472 1.646.907.94.438 2.065.773 1.126.336 2.336.47v-6.954a4 4 0 0 0-.421-.117 4 4 0 0 1-.419-.118 29 29 0 0 1-3.108-.99q-1.327-.522-2.2-1.261a4.9 4.9 0 0 1-1.328-1.729q-.453-.99-.453-2.402 0-1.645.571-2.923a6.4 6.4 0 0 1 1.613-2.2 7.7 7.7 0 0 1 2.436-1.445q1.393-.521 3.073-.655V90.66h1.747v3.393q2.184.134 4.031.873 1.847.74 3.259 1.781zm-11.087.874q0 1.41.991 2.117.991.706 3.007 1.242v-6.619q-2.05.101-3.025.958-.973.858-.973 2.302m9.709 11.154q0-1.477-1.176-2.233-1.175-.757-3.293-1.36v6.651q2.152-.033 3.309-.806 1.16-.774 1.16-2.252m28.2-5.594a5.426 5.426 0 1 0 10.851.001 5.426 5.426 0 0 0-10.851-.001m-66.917 0a5.426 5.426 0 1 1-10.853.001 5.426 5.426 0 0 1 10.853-.001"/>
  <path d="M254.902 160.029q-.847.825-2.407.96l-.015 1.755h-1.05l.015-1.739a9.4 9.4 0 0 1-1.702-.271q-.818-.21-1.208-.39l.105-2.565h.945l.315 1.86q.675.57 2.055.57 1.095 0 1.657-.48c.562-.48.563-.79.563-1.41q0-.539-.322-.952t-.825-.728a16 16 0 0 0-1.373-.766 3 3 0 0 0-.27-.149q-.93-.48-1.5-.915a3.3 3.3 0 0 1-.9-1.043q-.33-.607-.33-1.447 0-1.094.833-1.83.832-.734 2.153-.885v-1.65h1.065v1.636q1.2.06 2.43.555l-.075 2.4h-.915l-.345-1.74q-.226-.195-.607-.315c-.381-.12-.553-.12-.893-.12q-.93 0-1.53.413c-.6.413-.6.692-.6 1.252q0 .585.33 1.021t.772.712q.442.279 1.313.743 1.23.69 1.815 1.087.584.399.968.976.382.578.382 1.402-.002 1.228-.849 2.053m4.927-6.915q-.315.12-.99.285-.675.166-1.095.225l-.15-.84q.765-.164 1.567-.555c.802-.391.982-.545 1.343-.855h.015l.915.15v8.46l1.86.135v.735h-5.4v-.735l1.935-.135zm5.663 6.548q-.952-1.327-.952-3.428 0-1.469.54-2.572t1.47-1.688c.93-.585 1.3-.585 2.04-.585q1.95 0 2.85 1.252.9 1.254.9 3.428 0 1.456-.518 2.572-.518 1.118-1.425 1.732a3.54 3.54 0 0 1-2.033.615q-1.92 0-2.872-1.326m5.167-3.443q0-1.95-.502-3c-.502-1.05-.897-1.05-1.688-1.05q-1.155 0-1.71.997c-.555.997-.555 1.617-.555 2.857q0 1.905.532 3.053t1.688 1.147q2.235.001 2.235-4.004m7.478 3.443q-.953-1.327-.953-3.428 0-1.469.54-2.572t1.471-1.688 2.04-.585q1.95 0 2.85 1.252.9 1.254.9 3.428 0 1.456-.518 2.572-.518 1.118-1.426 1.732a3.54 3.54 0 0 1-2.032.615q-1.92 0-2.872-1.326m5.167-3.443q0-1.95-.502-3-.504-1.05-1.688-1.05-1.156 0-1.71.997-.555.997-.556 2.857 0 1.905.533 3.053.531 1.147 1.688 1.147 2.235.001 2.235-4.004m4.478 3.443q-.953-1.327-.953-3.428 0-1.469.54-2.572t1.471-1.688 2.04-.585q1.95 0 2.85 1.252.9 1.254.9 3.428 0 1.456-.518 2.572-.518 1.118-1.426 1.732a3.54 3.54 0 0 1-2.032.615q-1.92 0-2.872-1.326m5.167-3.443q0-1.95-.502-3-.504-1.05-1.688-1.05-1.157 0-1.71.997-.555.997-.556 2.857 0 1.905.533 3.053.531 1.147 1.688 1.147 2.235.001 2.235-4.004m4.478 3.443q-.953-1.327-.953-3.428 0-1.469.54-2.572t1.471-1.688 2.04-.585q1.95 0 2.85 1.252.9 1.254.9 3.428 0 1.456-.518 2.572-.518 1.118-1.426 1.732a3.54 3.54 0 0 1-2.032.615q-1.92 0-2.872-1.326m5.167-3.443q0-1.95-.502-3-.504-1.05-1.688-1.05-1.157 0-1.71.997-.555.997-.556 2.857 0 1.905.533 3.053.531 1.147 1.688 1.147 2.235.001 2.235-4.004m123.158 3.81q-.847.825-2.407.96l-.015 1.755h-1.051l.016-1.739q-.886-.06-1.703-.271c-.817-.211-.947-.27-1.207-.39l.104-2.565h.945l.315 1.86q.674.57 2.055.57 1.094 0 1.657-.48c.563-.48.563-.79.563-1.41q0-.539-.322-.952c-.322-.413-.49-.518-.825-.728s-.793-.465-1.372-.766a3 3 0 0 0-.271-.149q-.93-.48-1.5-.915c-.57-.435-.68-.638-.899-1.043q-.33-.607-.33-1.447 0-1.094.832-1.83.833-.734 2.152-.885v-1.65h1.065v1.636q1.2.06 2.43.555l-.075 2.4h-.915l-.345-1.74q-.225-.195-.607-.315c-.382-.12-.553-.12-.893-.12q-.93 0-1.53.413-.6.412-.6 1.252 0 .585.33 1.021c.33.436.478.527.772.712q.442.279 1.313.743 1.23.69 1.815 1.087.585.399.967.976c.382.577.383.853.383 1.402q.001 1.228-.847 2.053m4.417 2.46q1.065 0 1.95-.435c.885-.435 1.055-.69 1.396-1.2q.51-.765.51-1.74 0-2.414-2.235-2.415-.494 0-1.103.143a6.4 6.4 0 0 0-1.058.338l-.404-.285.734-5.4h4.275l.15-.284h.93l-.271 1.545h-3.975l-.69 3.494a5 5 0 0 1 1.035-.375 5 5 0 0 1 1.261-.164q1.44 0 2.265.81c.825.81.825 1.325.825 2.354q0 1.186-.683 2.19c-.683 1.004-1.098 1.205-1.928 1.605q-1.245.6-2.835.6-.645 0-1.05-.105v-.72q.422.044.901.044m8.483-2.827q-.954-1.327-.953-3.428 0-1.469.54-2.572t1.471-1.688 2.04-.585q1.95 0 2.85 1.252.9 1.254.9 3.428 0 1.456-.518 2.572-.518 1.118-1.426 1.732a3.54 3.54 0 0 1-2.032.615q-1.92 0-2.872-1.326m5.167-3.443q0-1.95-.502-3-.504-1.05-1.688-1.05-1.157 0-1.71.997-.555.997-.556 2.857 0 1.905.533 3.053.531 1.147 1.688 1.147 2.235.001 2.235-4.004m7.478 3.443q-.954-1.327-.953-3.428 0-1.469.54-2.572t1.471-1.688 2.04-.585q1.95 0 2.85 1.252.9 1.254.9 3.428 0 1.456-.518 2.572-.518 1.118-1.426 1.732a3.54 3.54 0 0 1-2.032.615q-1.92 0-2.872-1.326m5.167-3.443q0-1.95-.502-3-.504-1.05-1.688-1.05-1.157 0-1.71.997-.555.997-.556 2.857 0 1.905.533 3.053.531 1.147 1.688 1.147 2.235.001 2.235-4.004m4.478 3.443q-.954-1.327-.953-3.428 0-1.469.54-2.572t1.471-1.688 2.04-.585q1.95 0 2.85 1.252.9 1.254.9 3.428 0 1.456-.518 2.572-.518 1.118-1.426 1.732a3.54 3.54 0 0 1-2.032.615q-1.92 0-2.872-1.326m5.167-3.443q0-1.95-.502-3-.504-1.05-1.688-1.05-1.157 0-1.71.997-.555.997-.556 2.857 0 1.905.533 3.053.531 1.147 1.688 1.147 2.235.001 2.235-4.004m4.478 3.443q-.954-1.327-.953-3.428 0-1.469.54-2.572t1.471-1.688 2.04-.585q1.95 0 2.85 1.252.9 1.254.9 3.428 0 1.456-.518 2.572-.518 1.118-1.426 1.732a3.54 3.54 0 0 1-2.032.615q-1.92 0-2.872-1.326m5.167-3.443q0-1.95-.502-3-.504-1.05-1.688-1.05-1.157 0-1.71.997-.555.997-.556 2.857 0 1.905.533 3.053.531 1.147 1.688 1.147 2.235.001 2.235-4.004" fill="#8DBE23"/>
  <defs>
    <path id="q" d="M0 0h551.35v194.489H0z"/>
  </defs>
  <clipPath id="r">
    <use xlink:href="#q" overflow="visible"/>
  </clipPath>
  <path clip-path="url(#r)" fill="#8DBE23" d="M378.301 71.686h141.732v69.092H378.301z"/>
  <path clip-path="url(#r)" fill="#419C35" d="M385.283 134.007h127.768V78.456H385.283zm110.084-6.944h-35.846c5.685-4.166 9.46-11.851 9.46-20.435 0-9.131-4.266-17.063-10.563-21.229h36.949c0 5.555 5.185 12.595 10.74 12.595v20.369c-5.555.001-10.74 3.145-10.74 8.7M392.228 97.995c5.555 0 10.554-7.04 10.554-12.595h35.637c-6.298 4.166-10.563 12.098-10.563 21.229 0 8.584 3.774 16.269 9.46 20.435h-34.534c0-5.555-4.999-8.699-10.554-8.699z"/>
  <path clip-path="url(#r)" fill="#FFF" d="M455.804 99.797q-.303-.335-.892-.722a10 10 0 0 0-1.359-.739 11 11 0 0 0-1.697-.604 10 10 0 0 0-1.899-.32v6.955l.64.135q1.815.437 3.274.974 1.463.538 2.471 1.311a5.36 5.36 0 0 1 1.562 1.897q.554 1.127.554 2.739 0 1.78-.638 3.04a5.94 5.94 0 0 1-1.764 2.1q-1.126.84-2.62 1.261t-3.208.452v3.528h-1.748v-3.595a17 17 0 0 1-4.602-.957 14.5 14.5 0 0 1-3.998-2.201l1.713-3.225q.37.404 1.074.873.707.47 1.647.906.94.438 2.065.773 1.125.336 2.336.47v-6.954a5 5 0 0 0-.421-.117 5 5 0 0 1-.42-.117 29 29 0 0 1-3.107-.991q-1.327-.522-2.2-1.26a4.9 4.9 0 0 1-1.328-1.73q-.453-.99-.453-2.402 0-1.645.571-2.923a6.4 6.4 0 0 1 1.613-2.201 7.7 7.7 0 0 1 2.436-1.444q1.394-.521 3.073-.655V90.66h1.748v3.393q2.183.134 4.031.873 1.846.74 3.259 1.781zm-11.087.874q0 1.41.99 2.117.991.706 3.008 1.243v-6.62q-2.05.101-3.025.958-.974.858-.973 2.302m9.709 11.155q0-1.478-1.177-2.234-1.175-.756-3.293-1.361v6.652q2.152-.033 3.31-.806 1.159-.774 1.16-2.251m28.338-6.835a5.437 5.437 0 0 0 6.529 6.528 5.38 5.38 0 0 0 4.047-4.046 5.44 5.44 0 0 0-6.53-6.53 5.38 5.38 0 0 0-4.046 4.048m-67.193-.001a5.438 5.438 0 0 1-6.529 6.529 5.38 5.38 0 0 1-4.047-4.046 5.438 5.438 0 0 1 6.529-6.529 5.38 5.38 0 0 1 4.047 4.046"/>
  <path d="M414.604 63.503q.852 0 1.561-.348a2.8 2.8 0 0 0 1.116-.96q.407-.612.407-1.392 0-1.932-1.788-1.932-.396 0-.882.114a5 5 0 0 0-.846.27l-.324-.228.588-4.32h3.42l.12-.228h.744l-.216 1.236h-3.18l-.553 2.796q.325-.168.828-.3c.503-.132.672-.132 1.008-.132q1.153 0 1.813.648t.66 1.884q0 .948-.546 1.752t-1.542 1.284-2.269.48q-.516 0-.84-.084v-.576q.336.036.721.036m6.786-2.262q-.762-1.062-.762-2.742 0-1.176.432-2.058c.432-.882.68-1.038 1.176-1.35s1.04-.468 1.633-.468q1.56 0 2.279 1.002.72 1.002.721 2.742 0 1.164-.414 2.058t-1.141 1.386a2.83 2.83 0 0 1-1.626.492q-1.537 0-2.298-1.062m4.133-2.754q0-1.56-.401-2.4-.403-.84-1.351-.84-.924 0-1.368.798c-.444.798-.443 1.294-.443 2.286q0 1.524.426 2.442t1.35.918q1.787 0 1.787-3.204m3.582 2.754q-.762-1.062-.762-2.742 0-1.176.432-2.058c.432-.882.68-1.038 1.176-1.35s1.04-.468 1.633-.468q1.56 0 2.279 1.002.72 1.002.721 2.742 0 1.164-.414 2.058t-1.141 1.386a2.83 2.83 0 0 1-1.626.492q-1.535 0-2.298-1.062m4.134-2.754q0-1.56-.401-2.4-.403-.84-1.351-.84-.924 0-1.368.798c-.444.798-.443 1.294-.443 2.286q0 1.524.426 2.442t1.35.918q1.787 0 1.787-3.204m11.532 2.01a3.27 3.27 0 0 1-1.2 1.338q-.78.492-1.824.492-.287 0-.624-.048a3 3 0 0 1-.54-.12l.036 1.008v1.212l1.248.132v.588h-3.348v-.588l.863-.132v-7.92l-.876-.216v-.648l1.704-.216h.024l.252.216v.708q.36-.396.894-.672a2.56 2.56 0 0 1 1.194-.276q.708 0 1.302.348t.954 1.08.36 1.848a4.1 4.1 0 0 1-.419 1.866m-3.54-4.11a2.1 2.1 0 0 0-.612.42v4.524q.084.144.426.258.344.114.75.114.924 0 1.494-.732t.57-2.208q0-1.296-.498-1.932t-1.278-.636q-.456 0-.852.192m5.743 4.992q-.763-.948-.763-2.532 0-1.044.396-1.836a2.9 2.9 0 0 1 1.11-1.224 3.1 3.1 0 0 1 1.626-.432q1.115 0 1.733.618t.654 1.77q0 .732-.084 1.116h-4.128q.023 1.188.552 1.914.528.726 1.5.726.48 0 1.002-.174t.811-.414l.228.528q-.348.36-1.032.624t-1.392.264q-1.451 0-2.213-.948m3.437-3.156q.036-.252.036-.516-.012-.78-.33-1.23t-1.002-.45q-.696 0-1.11.504-.413.504-.474 1.692zm2.377 3.384.899-.072v-5.076l-.864-.216v-.648l1.656-.216h.024l.264.216v.216l-.036.936h.036q.12-.204.432-.528.313-.324.805-.594t1.067-.27q.24 0 .396.06v1.344a1 1 0 0 0-.271-.114 1.5 1.5 0 0 0-.414-.054q-.995 0-1.848.612v4.32l1.524.096v.576h-3.672v-.588zm6.587-.372q.12.18.51.324t.822.144q.684 0 1.008-.264c.324-.264.324-.42.324-.732a.84.84 0 0 0-.204-.564q-.205-.24-.57-.426c-.365-.186-.594-.274-1.05-.45q-.924-.348-1.35-.834t-.427-1.278q0-.528.318-.924t.876-.618c.558-.222.786-.222 1.242-.222q.55 0 .966.084.414.084.666.168t.336.108v1.488h-.732l-.239-.888q-.073-.144-.385-.246c-.312-.102-.439-.102-.695-.102q-.54 0-.87.24a.76.76 0 0 0-.33.648q0 .36.174.594t.438.378q.263.144.72.336l.24.096q.671.264 1.092.504c.421.24.514.37.702.63q.281.39.281.954 0 .888-.689 1.416c-.689.528-1.09.528-1.89.528q-.59 0-1.23-.162a8 8 0 0 1-1.05-.33v-1.536h.78zm5.389-4.26a3.09 3.09 0 0 1 2.724-1.62q1.512 0 2.274.96t.762 2.52q0 1.092-.444 1.884c-.444.792-.686.928-1.17 1.2s-1.002.408-1.554.408q-1.513 0-2.274-.96t-.762-2.52q-.002-1.08.444-1.872m3.935 3.984q.444-.684.444-2.028 0-1.332-.408-2.112t-1.308-.78q-.83 0-1.278.684c-.448.684-.45 1.132-.45 2.028q0 1.332.42 2.112c.42.78.716.78 1.309.78q.827.002 1.271-.684m3.636-4.5-.863-.216v-.648l1.716-.216h.036l.252.216v.504l-.013.288q.432-.384 1.141-.696.708-.312 1.355-.312.757 0 1.17.288.414.288.582.882c.168.594.168.93.168 1.602v3.36l.84.084v.6h-2.844v-.588l.744-.096v-3.372q0-.708-.096-1.11-.097-.402-.36-.6-.264-.198-.768-.198-.433 0-.924.216a4.4 4.4 0 0 0-.877.504V61.5l.816.108v.588h-2.832v-.588l.756-.108zm8.376 2.274q1.128-.534 2.856-.57v-.336q0-.564-.12-.888a.84.84 0 0 0-.414-.474q-.295-.15-.834-.15-.612 0-1.099.174a8 8 0 0 0-.966.426l-.3-.624q.156-.132.576-.348t.972-.384a3.8 3.8 0 0 1 1.104-.168q.851 0 1.35.234.498.234.714.75.217.516.216 1.38v3.852h.708v.528q-.24.06-.605.12c-.365.06-.458.06-.643.06q-.336 0-.456-.102c-.12-.102-.119-.218-.119-.45v-.396q-.36.36-.883.66-.522.3-1.182.3-.864 0-1.434-.498t-.57-1.434q.001-1.127 1.129-1.662m2.112 2.586q.407-.192.744-.456v-2.064q-1.308 0-1.975.402-.665.402-.666 1.05 0 .648.318.954t.857.306q.315 0 .722-.192m4.608-.084q.12.18.51.324t.822.144q.684 0 1.008-.264c.324-.264.324-.42.324-.732a.84.84 0 0 0-.204-.564q-.205-.24-.57-.426c-.365-.186-.594-.274-1.05-.45q-.924-.348-1.35-.834t-.427-1.278q0-.528.318-.924t.876-.618c.558-.222.786-.222 1.242-.222q.55 0 .966.084.414.084.666.168t.336.108v1.488h-.732l-.239-.888q-.073-.144-.385-.246c-.312-.102-.439-.102-.695-.102q-.54 0-.87.24a.76.76 0 0 0-.33.648q0 .36.174.594t.438.378q.263.144.72.336l.24.096q.671.264 1.092.504c.421.24.514.37.702.63q.281.39.281.954 0 .888-.689 1.416c-.689.528-1.09.528-1.89.528q-.59 0-1.23-.162a8 8 0 0 1-1.05-.33v-1.536h.78zm-244.823 2.268q.852 0 1.56-.348t1.116-.96c.408-.612.408-.872.408-1.392q0-1.932-1.788-1.932-.396 0-.882.114a5 5 0 0 0-.846.27l-.324-.228.588-4.32h3.42l.12-.228h.744l-.216 1.236h-3.18l-.552 2.796q.324-.168.828-.3a4 4 0 0 1 1.008-.132q1.152 0 1.812.648t.66 1.884q0 .948-.546 1.752t-1.542 1.284-2.268.48q-.516 0-.84-.084v-.576q.336.036.72.036m6.786-2.262q-.762-1.062-.762-2.742 0-1.176.432-2.058t1.176-1.35c.744-.468 1.04-.468 1.632-.468q1.56 0 2.28 1.002c.72 1.002.72 1.582.72 2.742q0 1.164-.414 2.058t-1.14 1.386a2.83 2.83 0 0 1-1.626.492q-1.537 0-2.298-1.062m4.134-2.754q0-1.56-.402-2.4c-.402-.84-.718-.84-1.35-.84q-.924 0-1.368.798c-.444.798-.444 1.294-.444 2.286q0 1.524.426 2.442t1.35.918q1.788 0 1.788-3.204m3.581 2.754q-.762-1.062-.762-2.742 0-1.176.432-2.058t1.176-1.35c.744-.468 1.04-.468 1.632-.468q1.56 0 2.28 1.002c.72 1.002.72 1.582.72 2.742q0 1.164-.414 2.058t-1.14 1.386a2.83 2.83 0 0 1-1.626.492q-1.535 0-2.298-1.062m4.135-2.754q0-1.56-.402-2.4c-.402-.84-.718-.84-1.35-.84q-.924 0-1.368.798c-.444.798-.444 1.294-.444 2.286q0 1.524.426 2.442t1.35.918q1.787 0 1.788-3.204m11.531 2.01a3.26 3.26 0 0 1-1.199 1.338q-.78.492-1.825.492-.288 0-.624-.048a3 3 0 0 1-.54-.12l.036 1.008v1.212l1.248.132v.588h-3.348v-.588l.864-.132v-7.92l-.876-.216v-.648l1.704-.216h.024l.252.216v.708q.36-.396.894-.672a2.56 2.56 0 0 1 1.194-.276q.708 0 1.301.348.594.348.955 1.08.36.732.359 1.848a4.1 4.1 0 0 1-.419 1.866m-3.54-4.11a2.1 2.1 0 0 0-.612.42v4.524q.084.144.426.258t.75.114a1.8 1.8 0 0 0 1.493-.732q.57-.732.57-2.208 0-1.296-.498-1.932t-1.278-.636q-.453 0-.851.192m5.743 4.992q-.763-.948-.763-2.532 0-1.044.396-1.836a2.9 2.9 0 0 1 1.11-1.224 3.1 3.1 0 0 1 1.626-.432q1.115 0 1.733.618t.654 1.77q0 .732-.084 1.116h-4.128q.023 1.188.552 1.914.528.726 1.5.726.48 0 1.002-.174t.811-.414l.228.528q-.348.36-1.032.624t-1.392.264q-1.452 0-2.213-.948m3.437-3.156q.036-.252.036-.516-.012-.78-.33-1.23t-1.002-.45q-.696 0-1.11.504-.413.504-.474 1.692zm2.377 3.384.899-.072v-5.076l-.864-.216v-.648l1.656-.216h.024l.264.216v.216l-.036.936h.036q.12-.204.432-.528.313-.324.805-.594t1.067-.27q.24 0 .396.06v1.344a1 1 0 0 0-.271-.114 1.5 1.5 0 0 0-.414-.054q-.995 0-1.848.612v4.32l1.524.096v.576h-3.672v-.588zm6.587-.372q.12.18.51.324t.822.144q.684 0 1.008-.264c.324-.264.324-.42.324-.732a.84.84 0 0 0-.204-.564q-.205-.24-.57-.426c-.365-.186-.594-.274-1.05-.45q-.924-.348-1.35-.834t-.427-1.278q0-.528.318-.924t.876-.618c.558-.222.786-.222 1.242-.222q.55 0 .966.084.414.084.666.168t.336.108v1.488h-.732l-.239-.888q-.073-.144-.385-.246c-.312-.102-.439-.102-.695-.102q-.54 0-.87.24a.76.76 0 0 0-.33.648q0 .36.174.594t.438.378q.263.144.72.336l.24.096q.671.264 1.092.504c.421.24.514.37.702.63q.281.39.281.954 0 .888-.689 1.416c-.689.528-1.09.528-1.89.528q-.59 0-1.23-.162a8 8 0 0 1-1.05-.33v-1.536h.78zm5.389-4.26a3.09 3.09 0 0 1 2.724-1.62q1.512 0 2.274.96t.762 2.52q0 1.092-.444 1.884c-.444.792-.686.928-1.17 1.2s-1.002.408-1.554.408q-1.513 0-2.274-.96t-.762-2.52q-.002-1.08.444-1.872m3.935 3.984q.444-.684.444-2.028 0-1.332-.408-2.112t-1.308-.78q-.83 0-1.278.684c-.448.684-.45 1.132-.45 2.028q0 1.332.42 2.112c.42.78.716.78 1.309.78q.827.002 1.271-.684m3.636-4.5-.863-.216v-.648l1.716-.216h.036l.252.216v.504l-.013.288q.432-.384 1.141-.696.708-.312 1.355-.312.757 0 1.17.288.414.288.582.882c.168.594.168.93.168 1.602v3.36l.84.084v.6h-2.844v-.588l.744-.096v-3.372q0-.708-.096-1.11-.097-.402-.36-.6-.264-.198-.768-.198-.433 0-.924.216a4.4 4.4 0 0 0-.877.504V61.5l.816.108v.588h-2.832v-.588l.756-.108zm8.376 2.274q1.128-.534 2.856-.57v-.336q0-.564-.12-.888a.84.84 0 0 0-.414-.474q-.295-.15-.834-.15-.612 0-1.099.174a8 8 0 0 0-.966.426l-.3-.624q.156-.132.576-.348t.972-.384a3.8 3.8 0 0 1 1.104-.168q.851 0 1.35.234.498.234.714.75.217.516.216 1.38v3.852h.708v.528q-.24.06-.605.12c-.365.06-.458.06-.643.06q-.336 0-.456-.102c-.12-.102-.119-.218-.119-.45v-.396q-.36.36-.883.66-.522.3-1.182.3-.864 0-1.434-.498t-.57-1.434q.001-1.127 1.129-1.662m2.112 2.586q.407-.192.744-.456v-2.064q-1.308 0-1.975.402-.665.402-.666 1.05 0 .648.318.954t.857.306q.314 0 .722-.192m4.608-.084q.12.18.51.324t.822.144q.684 0 1.008-.264c.324-.264.324-.42.324-.732a.84.84 0 0 0-.204-.564q-.205-.24-.57-.426c-.365-.186-.594-.274-1.05-.45q-.924-.348-1.35-.834t-.427-1.278q0-.528.318-.924t.876-.618c.558-.222.786-.222 1.242-.222q.55 0 .966.084.414.084.666.168t.336.108v1.488h-.732l-.239-.888q-.073-.144-.385-.246c-.312-.102-.439-.102-.695-.102q-.54 0-.87.24a.76.76 0 0 0-.33.648q0 .36.174.594t.438.378q.263.144.72.336l.24.096q.671.264 1.092.504c.421.24.514.37.702.63q.281.39.281.954 0 .888-.689 1.416c-.689.528-1.09.528-1.89.528q-.59 0-1.23-.162a8 8 0 0 1-1.05-.33v-1.536h.78zm3.734-43.766-1.17-.18v-.75h1.966q.465 0 1.335-.06a21 21 0 0 1 1.305-.06q2.79 0 4.147 1.403c1.357 1.403 1.357 2.248 1.357 3.938q0 1.77-.697 3.142-.698 1.373-1.958 2.138t-2.895.765q-.36 0-1.23-.06-.9-.06-1.35-.06h-2.055v-.735l1.244-.15zm2.94 9.494h.45q1.125-.015 1.987-.57t1.343-1.657q.479-1.103.479-2.678 0-2.37-1.027-3.6-1.028-1.23-3.098-1.23-.435 0-1.035.06-.255.045-.449.045v9.51q.526.12 1.35.12m8.093-.299q-.954-1.185-.953-3.165 0-1.305.495-2.295c.495-.99.793-1.17 1.388-1.53q.892-.54 2.032-.54 1.395 0 2.168.772.772.772.817 2.212 0 .915-.104 1.395h-5.16q.03 1.485.689 2.393.66.907 1.875.907.6 0 1.253-.217t1.013-.518l.284.66q-.435.45-1.289.78-.855.33-1.74.33-1.815.001-2.768-1.184m4.297-3.945q.045-.315.046-.645-.016-.975-.413-1.538c-.397-.563-.683-.563-1.252-.563q-.87 0-1.388.63c-.518.63-.543 1.125-.593 2.115zm4.336 3.764q.15.225.637.405.488.18 1.028.18.853 0 1.26-.33.405-.33.405-.915 0-.405-.256-.705c-.256-.3-.407-.377-.712-.533a15 15 0 0 0-1.313-.563q-1.156-.435-1.688-1.042-.532-.608-.532-1.597 0-.66.397-1.155t1.095-.772c.698-.277.982-.277 1.553-.277q.69 0 1.207.105c.517.105.623.14.833.21s.35.115.42.135v1.86h-.915l-.3-1.11q-.091-.18-.48-.307c-.389-.127-.55-.128-.87-.128q-.675 0-1.087.3a.95.95 0 0 0-.413.81q0 .45.218.742.217.293.548.473.33.18.899.42l.3.12q.841.33 1.365.63.525.3.878.788.352.488.353 1.192 0 1.11-.863 1.77-.862.66-2.362.66-.736 0-1.537-.203a10 10 0 0 1-1.313-.413v-1.92h.975zm7.349-5.969-1.14-.27v-.795l2.325-.285h.029l.346.27v7.395l1.2.12v.735h-3.976v-.735l1.215-.135zm-.121-2.926q-.24-.27-.239-.69 0-.48.292-.795c.292-.315.463-.315.803-.315s.59.09.75.27.24.41.24.69q0 .51-.293.81t-.817.3h-.015q-.48 0-.721-.27m4.749 13.538q-.862-.607-.862-1.672 0-.66.412-1.215.413-.555.982-.84-.69-.39-.689-1.26 0-.54.314-1.02.315-.48.825-.735-.75-.33-1.147-.945t-.397-1.455q0-.87.487-1.515.488-.645 1.29-.99a4.3 4.3 0 0 1 1.702-.345q1.517 0 2.37.63.225-.225.69-.435t.99-.21h.51v1.32h-1.65q.36.555.36 1.29 0 .886-.442 1.567a2.9 2.9 0 0 1-1.23 1.058q-.786.375-1.777.375-.645 0-1.155-.135-.21.21-.345.465c-.135.255-.135.335-.135.495q0 .54.36.742.358.203 1.29.203h1.694q1.455 0 2.16.555c.705.555.705.895.705 1.575q0 .855-.615 1.568t-1.657 1.125a6.1 6.1 0 0 1-2.258.412q-1.92-.001-2.782-.608m4.304-.48q.654-.218 1.058-.645.406-.428.405-.998 0-.675-.36-.982c-.36-.307-.705-.308-1.395-.308h-1.771q-.6 0-.944-.075-.615.675-.615 1.515t.51 1.275c.51.435.915.435 1.725.435q.736.001 1.387-.217m.293-8.768q0-1.004-.442-1.478-.443-.472-1.328-.472-.824 0-1.305.458c-.481.458-.48.792-.48 1.462q0 .945.458 1.5t1.388.555q1.709.002 1.709-2.025m9.907 5.776q-.204-.165-.203-.54v-.51q-.495.495-1.237.87c-.742.375-.992.375-1.492.375q-1.396 0-1.98-.75t-.585-2.475v-4.35l-.84-.24v-.66l2.1-.195h.016l.285.18v5.145q0 .87.127 1.358t.45.72.938.232q.599 0 1.125-.255.524-.255.915-.6v-5.685l-1.08-.24v-.66l2.28-.195h.015l.345.18v7.56h.9l-.015.675q-.42.105-.728.165a4 4 0 0 1-.713.06q-.421 0-.623-.165m4.688-4.298q1.41-.667 3.57-.712v-.42q0-.705-.15-1.11c-.15-.405-.272-.467-.518-.593q-.368-.188-1.042-.188-.766 0-1.373.218a9.4 9.4 0 0 0-1.207.532l-.375-.78q.194-.165.72-.435.525-.27 1.215-.48c.69-.21.92-.21 1.38-.21q1.064 0 1.688.292t.893.938q.271.645.271 1.725v4.815h.885v.66q-.3.075-.758.15-.457.075-.802.075-.42 0-.57-.127t-.15-.563v-.495q-.45.45-1.103.825t-1.478.375q-1.08 0-1.792-.623-.713-.623-.713-1.792-.002-1.409 1.409-2.077m2.64 3.232q.51-.24.931-.57v-2.58q-1.636 0-2.468.502t-.832 1.313c0 .811.132.938.397 1.193q.397.382 1.072.382.39.002.9-.24m5.46-10.094-1.215-.165v-.645l2.415-.285h.03l.33.225v11.205l1.275.12v.735h-4.051v-.735l1.215-.135zm5.489 10.904q-.75-.45-1.192-1.38c-.442-.93-.442-1.385-.442-2.295q0-1.275.525-2.325.526-1.05 1.507-1.657.983-.607 2.318-.607.765 0 1.395.165v-2.805l-1.53-.18v-.645l2.7-.27h.045l.33.24v11.28h.87v.69q-.48.105-.833.165-.351.06-.742.06c-.391 0-.445-.045-.555-.135q-.165-.135-.165-.57v-.48q-.42.51-1.103.855c-.683.345-.947.345-1.478.345q-.9 0-1.65-.451m3.345-.877q.51-.262.765-.607v-5.49q-.12-.18-.563-.323a3 3 0 0 0-.938-.143q-1.17 0-1.867.893t-.698 2.752q0 1.62.615 2.4t1.59.78q.586.001 1.096-.262m5.791-3.165q1.41-.667 3.57-.712v-.42q0-.705-.15-1.11c-.15-.405-.272-.467-.518-.593q-.368-.188-1.042-.188-.766 0-1.373.218a9.4 9.4 0 0 0-1.207.532l-.375-.78q.194-.165.72-.435.525-.27 1.215-.48c.69-.21.92-.21 1.38-.21q1.064 0 1.688.292t.893.938q.271.645.271 1.725v4.815h.885v.66q-.3.075-.758.15-.457.075-.802.075-.42 0-.57-.127t-.15-.563v-.495q-.45.45-1.103.825t-1.478.375q-1.08 0-1.792-.623-.714-.623-.713-1.792-.003-1.409 1.409-2.077m2.639 3.232q.51-.24.931-.57v-2.58q-1.636 0-2.468.502t-.832 1.313c0 .811.132.938.397 1.193q.397.382 1.072.382.39.002.9-.24m5.954.81q-.75-.45-1.192-1.38c-.442-.93-.442-1.385-.442-2.295q0-1.275.525-2.325t1.507-1.657 2.318-.607q.765 0 1.395.165v-2.805l-1.53-.18v-.645l2.7-.27h.045l.33.24v11.28h.87v.69q-.48.105-.833.165-.351.06-.742.06c-.391 0-.445-.045-.555-.135q-.165-.135-.165-.57v-.48q-.42.51-1.103.855c-.683.345-.947.345-1.478.345q-.9 0-1.65-.451m3.346-.877q.51-.262.765-.607v-5.49q-.12-.18-.563-.323a3 3 0 0 0-.938-.143q-1.17 0-1.867.893t-.698 2.752q0 1.62.615 2.4t1.59.78a2.35 2.35 0 0 0 1.096-.262M52.989 17.469l-1.395-.18v-.75h4.41v.75l-1.395.18v9.33l1.395.165v.72h-4.395v-.735l1.38-.15zm5.317 13.657q-.862-.607-.862-1.672 0-.66.412-1.215.413-.555.982-.84-.69-.39-.69-1.26 0-.54.315-1.02t.825-.735q-.75-.33-1.147-.945t-.397-1.455q0-.87.487-1.515.488-.645 1.29-.99a4.3 4.3 0 0 1 1.703-.345q1.515 0 2.37.63.225-.225.69-.435t.99-.21h.51v1.32h-1.65q.36.555.36 1.29 0 .886-.442 1.567a2.9 2.9 0 0 1-1.23 1.058q-.788.375-1.778.375-.645 0-1.155-.135-.21.21-.345.465t-.135.495q0 .54.36.742.36.203 1.29.203h1.695q1.455 0 2.16.555t.705 1.575q0 .855-.615 1.568t-1.657 1.125a6.1 6.1 0 0 1-2.258.412q-1.92-.001-2.783-.608m4.305-.48q.652-.218 1.057-.645t.405-.998q0-.675-.36-.982-.36-.308-1.395-.308h-1.77q-.6 0-.945-.075-.615.675-.615 1.515t.51 1.275c.51.435.915.435 1.725.435q.735.001 1.388-.217m.293-8.768q0-1.004-.443-1.478-.442-.472-1.327-.472-.825 0-1.305.458-.48.457-.48 1.462 0 .945.458 1.5.457.555 1.388.555 1.708.002 1.709-2.025m9.907 5.776q-.203-.165-.203-.54v-.51q-.495.495-1.237.87c-.742.375-.993.375-1.493.375q-1.395 0-1.98-.75t-.585-2.475v-4.35l-.84-.24v-.66l2.1-.195h.015l.285.18v5.145q0 .87.127 1.358t.45.72q.322.232.938.232.6 0 1.125-.255t.915-.6v-5.685l-1.08-.24v-.66l2.28-.195h.015l.345.18v7.56h.9l-.015.675q-.42.105-.728.165-.307.06-.712.06-.42 0-.622-.165m4.688-4.298q1.41-.667 3.57-.712v-.42q0-.705-.15-1.11c-.15-.405-.272-.467-.518-.593q-.367-.188-1.042-.188-.765 0-1.373.218a9 9 0 0 0-1.207.532l-.375-.78q.194-.165.72-.435c.526-.27.755-.34 1.215-.48s.92-.21 1.38-.21q1.064 0 1.688.292.622.292.892.938t.27 1.725v4.815h.885v.66q-.3.075-.757.15-.458.075-.803.075-.42 0-.57-.127t-.15-.563v-.495q-.45.45-1.102.825t-1.478.375q-1.08 0-1.792-.623-.713-.623-.713-1.792 0-1.409 1.41-2.077m2.64 3.232q.51-.24.93-.57v-2.58q-1.635 0-2.467.502t-.833 1.313c0 .811.132.938.397 1.193q.398.382 1.073.382.39.002.9-.24m5.459-10.094-1.215-.165v-.645l2.415-.285h.03l.33.225v11.205l1.275.12v.735h-4.05v-.735l1.215-.135zm5.49 10.904q-.75-.45-1.193-1.38c-.443-.93-.442-1.385-.442-2.295q0-1.275.525-2.325t1.508-1.657 2.317-.607q.765 0 1.395.165v-2.805l-1.53-.18v-.645l2.7-.27h.045l.33.24v11.28h.87v.69q-.48.105-.833.165c-.353.06-.482.06-.743.06q-.39 0-.555-.135t-.165-.57v-.48q-.42.51-1.103.855c-.683.345-.948.345-1.478.345q-.898 0-1.648-.451m3.345-.877q.51-.262.765-.607v-5.49q-.12-.18-.563-.323a3 3 0 0 0-.938-.143q-1.17 0-1.868.893-.697.893-.697 2.752 0 1.62.615 2.4t1.59.78q.586.001 1.096-.262m5.79-3.165q1.41-.667 3.57-.712v-.42q0-.705-.15-1.11c-.15-.405-.272-.467-.518-.593q-.367-.188-1.042-.188-.764 0-1.373.218a9 9 0 0 0-1.207.532l-.375-.78q.194-.165.72-.435c.526-.27.755-.34 1.215-.48s.92-.21 1.38-.21q1.065 0 1.688.292.622.292.892.938t.27 1.725v4.815h.885v.66q-.3.075-.757.15-.458.075-.803.075-.42 0-.57-.127t-.15-.563v-.495q-.45.45-1.102.825t-1.478.375q-1.08 0-1.792-.623-.713-.623-.713-1.792 0-1.409 1.41-2.077m2.64 3.232q.51-.24.93-.57v-2.58q-1.635 0-2.467.502t-.833 1.313c0 .811.132.938.397 1.193q.398.382 1.073.382.39.002.9-.24m5.955.81q-.75-.45-1.193-1.38c-.443-.93-.442-1.385-.442-2.295q0-1.275.525-2.325t1.508-1.657 2.317-.607q.765 0 1.395.165v-2.805l-1.53-.18v-.645l2.7-.27h.045l.33.24v11.28h.87v.69q-.48.105-.833.165c-.353.06-.482.06-.743.06q-.39 0-.555-.135t-.165-.57v-.48q-.42.51-1.103.855c-.683.345-.948.345-1.478.345q-.898 0-1.648-.451m3.345-.877q.51-.262.765-.607v-5.49q-.12-.18-.563-.323a3 3 0 0 0-.938-.143q-1.17 0-1.868.893-.697.893-.697 2.752 0 1.62.615 2.4t1.59.78q.586.001 1.096-.262M48.502 55.955q-.252.096-.792.228t-.876.18l-.12-.672a5.6 5.6 0 0 0 1.254-.444 5 5 0 0 0 1.074-.684h.012l.732.12v6.768l1.488.108v.588h-4.32v-.588l1.548-.108zm4.53 5.238q-.762-1.062-.762-2.742 0-1.176.432-2.058t1.176-1.35c.744-.468 1.04-.468 1.632-.468q1.56 0 2.28 1.002c.72 1.002.72 1.582.72 2.742q0 1.164-.414 2.058t-1.14 1.386a2.83 2.83 0 0 1-1.626.492q-1.535 0-2.298-1.062m4.135-2.754q0-1.56-.402-2.4c-.402-.84-.718-.84-1.35-.84q-.924 0-1.368.798c-.444.798-.444 1.294-.444 2.286q0 1.524.426 2.442t1.35.918q1.787 0 1.788-3.204m3.581 2.754q-.762-1.062-.762-2.742 0-1.176.432-2.058t1.176-1.35c.744-.468 1.04-.468 1.632-.468q1.56 0 2.28 1.002c.72 1.002.72 1.582.72 2.742q0 1.164-.414 2.058t-1.14 1.386a2.83 2.83 0 0 1-1.626.492q-1.536 0-2.298-1.062m4.134-2.754q0-1.56-.402-2.4c-.402-.84-.718-.84-1.35-.84q-.924 0-1.368.798c-.444.798-.444 1.294-.444 2.286q0 1.524.426 2.442t1.35.918q1.788 0 1.788-3.204m3.582 2.754q-.762-1.062-.762-2.742 0-1.176.432-2.058t1.176-1.35c.744-.468 1.04-.468 1.632-.468q1.56 0 2.28 1.002c.72 1.002.72 1.582.72 2.742q0 1.164-.414 2.058t-1.14 1.386a2.83 2.83 0 0 1-1.626.492q-1.536 0-2.298-1.062m4.134-2.754q0-1.56-.402-2.4c-.402-.84-.718-.84-1.35-.84q-.924 0-1.368.798c-.444.798-.444 1.294-.444 2.286q0 1.524.426 2.442t1.35.918q1.788 0 1.788-3.204m11.532 2.01q-.42.846-1.2 1.338c-.78.492-1.128.492-1.824.492q-.288 0-.624-.048a3 3 0 0 1-.54-.12l.036 1.008v1.212l1.248.132v.588h-3.348v-.588l.864-.132v-7.92l-.876-.216v-.648l1.704-.216h.024l.252.216v.708q.36-.396.894-.672a2.56 2.56 0 0 1 1.194-.276q.708 0 1.302.348t.954 1.08.36 1.848q0 1.02-.42 1.866m-3.54-4.11a2.1 2.1 0 0 0-.612.42v4.524q.084.144.426.258t.75.114q.924 0 1.494-.732t.57-2.208q0-1.296-.498-1.932t-1.278-.636q-.456 0-.852.192m5.742 4.992q-.762-.948-.762-2.532 0-1.044.396-1.836a2.9 2.9 0 0 1 1.11-1.224 3.1 3.1 0 0 1 1.626-.432q1.116 0 1.734.618t.654 1.77q0 .732-.084 1.116h-4.128q.024 1.188.552 1.914c.528.726.852.726 1.5.726q.48 0 1.002-.174t.81-.414l.228.528q-.348.36-1.032.624t-1.392.264q-1.452 0-2.214-.948m3.438-3.156q.036-.252.036-.516-.012-.78-.33-1.23t-1.002-.45q-.696 0-1.11.504c-.414.504-.434.9-.474 1.692zm2.376 3.384.9-.072v-5.076l-.864-.216v-.648l1.656-.216h.024l.264.216v.216l-.036.936h.036q.12-.204.432-.528a3.3 3.3 0 0 1 .804-.594q.492-.27 1.068-.27.24 0 .396.06v1.344a1 1 0 0 0-.27-.114 1.5 1.5 0 0 0-.414-.054q-.996 0-1.848.612v4.32l1.524.096v.576h-3.672zm6.587-.372q.12.18.51.324t.822.144q.684 0 1.008-.264t.324-.732a.84.84 0 0 0-.204-.564q-.204-.24-.57-.426a10 10 0 0 0-1.05-.45q-.924-.348-1.35-.834t-.426-1.278q0-.528.318-.924t.876-.618c.558-.222.786-.222 1.242-.222q.552 0 .966.084t.666.168.336.108v1.488h-.732l-.24-.888q-.072-.144-.384-.246c-.312-.102-.44-.102-.696-.102q-.54 0-.87.24a.76.76 0 0 0-.33.648q0 .36.174.594t.438.378c.264.144.416.208.72.336l.24.096q.672.264 1.092.504t.702.63.282.954q0 .888-.69 1.416c-.69.528-1.09.528-1.89.528q-.588 0-1.23-.162a8 8 0 0 1-1.05-.33v-1.536h.78zm5.389-4.26a3.09 3.09 0 0 1 2.724-1.62q1.512 0 2.274.96t.762 2.52q0 1.092-.444 1.884c-.444.792-.686.928-1.17 1.2s-1.002.408-1.554.408q-1.512 0-2.274-.96t-.762-2.52q0-1.08.444-1.872m3.936 3.984q.444-.684.444-2.028 0-1.332-.408-2.112c-.408-.78-.708-.78-1.308-.78q-.828 0-1.278.684t-.45 2.028q0 1.332.42 2.112t1.308.78q.828 0 1.272-.684m3.635-4.5-.864-.216v-.648l1.716-.216h.036l.252.216v.504l-.012.288q.431-.384 1.14-.696c.709-.312.924-.312 1.356-.312q.756 0 1.17.288t.582.882.168 1.602v3.36l.84.084v.6h-2.844v-.588l.744-.096v-3.372q0-.708-.096-1.11-.097-.402-.36-.6-.264-.198-.768-.198-.432 0-.924.216c-.492.216-.62.312-.876.504v4.548l.816.108v.588h-2.832v-.588l.756-.108zm8.376 2.274q1.128-.534 2.856-.57v-.336q0-.564-.12-.888a.84.84 0 0 0-.414-.474q-.294-.15-.834-.15-.612 0-1.098.174a8 8 0 0 0-.966.426l-.3-.624q.156-.132.576-.348a6 6 0 0 1 .972-.384 3.8 3.8 0 0 1 1.104-.168q.852 0 1.35.234t.714.75.216 1.38v3.852h.708v.528q-.24.06-.606.12t-.642.06q-.336 0-.456-.102c-.12-.102-.12-.218-.12-.45v-.396q-.36.36-.882.66c-.522.3-.742.3-1.182.3q-.864 0-1.434-.498t-.57-1.434q0-1.128 1.128-1.662m2.112 2.586q.408-.192.744-.456v-2.064q-1.308 0-1.974.402t-.666 1.05.318.954.858.306q.312 0 .72-.192m4.608-.084q.12.18.51.324t.822.144q.684 0 1.008-.264t.324-.732a.84.84 0 0 0-.204-.564q-.204-.24-.57-.426a10 10 0 0 0-1.05-.45q-.924-.348-1.35-.834t-.426-1.278q0-.528.318-.924t.876-.618c.558-.222.786-.222 1.242-.222q.552 0 .966.084t.666.168.336.108v1.488h-.732l-.24-.888q-.072-.144-.384-.246c-.312-.102-.44-.102-.696-.102q-.54 0-.87.24a.76.76 0 0 0-.33.648q0 .36.174.594t.438.378c.264.144.416.208.72.336l.24.096q.672.264 1.092.504t.702.63.282.954q0 .888-.69 1.416c-.69.528-1.09.528-1.89.528q-.588 0-1.23-.162a8 8 0 0 1-1.05-.33v-1.536h.78z" fill="#0C3958"/>
</svg>
